<?xml version="1.0" standalone="no"?>
<!DOCTYPE svg PUBLIC "-//W3C//DTD SVG 1.1//EN" "http://www.w3.org/Graphics/SVG/1.1/DTD/svg11.dtd" >
<svg xmlns="http://www.w3.org/2000/svg" width="100%" height="100%">
<metadata>
Created by FontXChange 20110222 at Sat Jul 11 16:56:17 2015
 By John Maeda
Copyright (c) 1998, 2005 Carter &#38; Cone Type Inc. All rights reserved.
</metadata>
<defs>
<font id="Fenway-SmallCaps" horiz-adv-x="643" >
  <font-face 
    font-family="Fenway"
    font-weight="500"
    font-variant="small-caps"
    font-stretch="normal"
    units-per-em="1000"
    panose-1="2 0 6 3 0 0 0 0 0 0"
    ascent="800"
    descent="-200"
    x-height="576"
    cap-height="678"
    bbox="-183 -265 1151 952"
    underline-thickness="20"
    underline-position="-133"
    stemh="40"
    stemv="99"
    unicode-range="U+0020-FFFD"
  />
<missing-glyph horiz-adv-x="500" 
 />
    <glyph glyph-name=".notdef" unicode="&#xfffd;" horiz-adv-x="500" 
 />
    <glyph glyph-name="space" unicode=" " horiz-adv-x="252" 
 />
    <glyph glyph-name="exclam" unicode="!" horiz-adv-x="342" 
d="M239 669c0 -27 -35 -326 -48 -462h-36c-12 136 -45 437 -45 463c0 31 25 53 65 53c35 0 64 -24 64 -54zM241 54c0 -37 -32 -69 -68 -69c-37 0 -67 32 -67 69s30 67 67 67s68 -30 68 -67z" />
    <glyph glyph-name="quotedbl" unicode="&#x22;" horiz-adv-x="426" 
d="M364 684c0 -26 -29 -143 -42 -266h-30c-13 122 -40 238 -40 266c0 30 20 47 56 47s56 -17 56 -47zM174 684c0 -26 -29 -143 -42 -266h-30c-13 122 -40 238 -40 266c0 30 20 47 56 47s56 -17 56 -47z" />
    <glyph glyph-name="numbersign" unicode="#" 
d="M571 364h-115l-35 -123h121v-60h-138l-52 -181h-54l52 181h-126l-52 -181h-55l53 181h-98v60h115l35 123h-121v60h138l51 177h54l-51 -177h126l52 177h55l-53 -177h98v-60zM404 365h-128l-36 -125h127z" />
    <glyph glyph-name="dollar" unicode="$" horiz-adv-x="597" 
d="M527 176c0 -101 -85 -177 -201 -185l2 -136h-48l2 135c-120 2 -217 60 -217 149c0 30 22 58 57 58c38 0 55 -23 55 -47s-7 -47 -34 -58c16 -39 63 -63 139 -64v243c-25 9 -48 16 -79 28c-75 29 -116 74 -116 152c0 96 88 168 195 169l-2 109h48l-2 -109
c109 -1 194 -53 194 -125c0 -30 -22 -58 -57 -58c-38 0 -55 23 -55 47s12 42 28 52c-6 20 -44 45 -110 45v-223c20 -8 41 -15 61 -22c79 -29 140 -65 140 -160zM282 368v213c-62 0 -110 -41 -110 -96c0 -58 24 -85 78 -106c9 -4 21 -7 32 -11zM437 139c0 56 -20 91 -90 116
c-7 2 -14 5 -21 7v-233c76 4 111 50 111 110z" />
    <glyph glyph-name="percent" unicode="%" horiz-adv-x="817" 
d="M385 519c0 -115 -68 -181 -166 -181c-110 0 -166 79 -166 181c0 96 55 180 166 180c114 0 166 -86 166 -180zM718 685l-538 -685h-69l536 685h71zM773 165c0 -115 -68 -181 -166 -181c-110 0 -166 79 -166 181c0 96 55 180 166 180c114 0 166 -86 166 -180zM301 519
c0 90 -23 144 -82 144c-58 0 -82 -53 -82 -144c0 -89 21 -145 82 -145c55 0 82 49 82 145zM689 165c0 90 -23 144 -82 144c-58 0 -82 -53 -82 -144c0 -89 21 -145 82 -145c55 0 82 49 82 145z" />
    <glyph glyph-name="ampersand" unicode="&#x26;" horiz-adv-x="634" 
d="M625 0h-182l-64 68c-42 -44 -94 -82 -173 -82c-86 0 -173 45 -173 153c0 79 39 127 133 180c-52 65 -72 90 -72 143c0 77 76 128 165 128c102 0 144 -56 144 -113c0 -72 -41 -115 -131 -153c56 -68 89 -105 146 -170c36 51 54 105 60 144c-15 8 -38 14 -74 19v37h221v-37
c-52 -6 -73 -11 -101 -56c-19 -31 -32 -66 -82 -133c26 -29 73 -68 95 -81l88 -11v-36zM327 466c0 59 -28 84 -69 84c-51 0 -72 -45 -72 -77c0 -36 20 -67 65 -121c54 30 76 67 76 114zM357 93c-54 63 -126 142 -169 196c-41 -27 -61 -69 -61 -119c0 -69 47 -124 121 -124
c42 0 81 16 109 47z" />
    <glyph glyph-name="quotesingle" unicode="'" horiz-adv-x="236" 
d="M174 684c0 -26 -29 -143 -42 -266h-30c-13 122 -40 238 -40 266c0 30 20 47 56 47s56 -17 56 -47z" />
    <glyph glyph-name="parenleft" unicode="(" horiz-adv-x="372" 
d="M335 -157c-171 21 -281 177 -281 442s106 424 281 447v-39c-134 -26 -185 -179 -185 -409c0 -229 54 -378 185 -401v-40z" />
    <glyph glyph-name="parenright" unicode=")" horiz-adv-x="372" 
d="M318 285c0 -265 -110 -421 -281 -442v40c131 23 185 172 185 401c0 230 -51 383 -185 409v39c174 -23 281 -182 281 -447z" />
    <glyph glyph-name="asterisk" unicode="*" horiz-adv-x="492" 
d="M451 583c0 -23 -42 -49 -64 -58c-6 -2 -13 -2 -23 -2c-23 0 -56 1 -100 -6c40 -44 83 -63 95 -79c10 -14 24 -43 24 -65c0 -14 -5 -26 -23 -26c-23 0 -54 26 -67 43c-12 15 -18 59 -47 114c-29 -55 -35 -99 -47 -114c-13 -17 -43 -43 -67 -43c-16 0 -23 11 -23 26
c0 22 13 52 24 65c12 15 55 36 95 79c-41 7 -75 6 -99 6c-9 0 -18 0 -24 2c-21 7 -64 35 -64 58c0 19 26 26 50 26c15 0 30 -2 40 -5c18 -7 49 -41 104 -67c-8 60 -30 101 -30 121c0 24 16 79 41 79c29 0 42 -55 42 -79c0 -20 -23 -61 -31 -121c54 26 86 60 104 67
c10 3 26 5 41 5c22 0 49 -6 49 -26z" />
    <glyph glyph-name="plus" unicode="+" 
d="M574 237h-220v-221h-64v221h-221v63h221v220h64v-220h220v-63z" />
    <glyph glyph-name="comma" unicode="," horiz-adv-x="237" 
d="M228 -1c0 -90 -64 -170 -193 -188l-8 33c121 27 147 86 147 132c0 23 -3 46 -16 63c-10 -15 -29 -34 -48 -34c-26 0 -55 17 -55 60c0 36 30 66 68 66c64 0 105 -51 105 -132z" />
    <glyph glyph-name="hyphen" unicode="-" horiz-adv-x="363" 
d="M317 262h-270v79h270v-79z" />
    <glyph glyph-name="period" unicode="." horiz-adv-x="237" 
d="M196 56c0 -38 -32 -70 -69 -70c-38 0 -68 32 -68 70s30 68 68 68s69 -30 69 -68z" />
    <glyph glyph-name="slash" unicode="/" horiz-adv-x="369" 
d="M367 726l-311 -874h-66l310 874h67z" />
    <glyph glyph-name="zero" unicode="0" horiz-adv-x="561" 
d="M521 304c0 -205 -98 -320 -241 -320c-160 0 -240 134 -240 320c0 174 78 320 240 320c172 0 241 -150 241 -320zM416 304c0 161 -36 282 -135 282c-100 0 -136 -119 -136 -282c0 -154 33 -281 135 -281c95 0 136 110 136 281z" />
    <glyph glyph-name="one" unicode="1" horiz-adv-x="416" 
d="M387 0h-322v36l117 12v494l-119 -66l-16 38l193 109h40c-2 -42 -4 -102 -4 -148v-428l111 -11v-36z" />
    <glyph glyph-name="two" unicode="2" horiz-adv-x="527" 
d="M493 165l-28 -165h-417v65c193 133 313 219 313 348c0 74 -37 133 -124 133c-82 0 -127 -57 -127 -119c0 -22 1 -33 3 -58l-38 -10c-6 29 -14 58 -14 86c0 105 82 179 196 179c120 0 203 -67 203 -187c0 -151 -130 -228 -317 -353h282l32 81h36z" />
    <glyph glyph-name="three" unicode="3" horiz-adv-x="533" 
d="M483 152c0 -131 -124 -232 -277 -232c-109 0 -185 49 -185 120c0 31 24 64 61 64c40 0 57 -22 57 -47c0 -24 -3 -40 -30 -57c9 -12 37 -41 109 -41c83 0 163 49 163 169c0 59 -37 123 -124 123c-21 0 -44 -6 -69 -19l-16 39c124 39 185 93 185 175c0 58 -35 106 -115 106
c-79 0 -126 -55 -126 -114v-35l-34 -8c-9 26 -13 37 -13 66c0 91 86 163 192 163c108 0 195 -55 195 -144c0 -88 -65 -128 -117 -159c48 -11 144 -49 144 -169z" />
    <glyph glyph-name="four" unicode="4" horiz-adv-x="549" 
d="M521 139h-102v-217h-92v217h-306v74l335 408h63v-419h102v-63zM327 202v313l-258 -313h258z" />
    <glyph glyph-name="five" unicode="5" horiz-adv-x="507" 
d="M468 159c0 -138 -121 -237 -249 -237c-117 0 -197 58 -197 133c0 31 23 60 59 60c40 0 59 -24 59 -49c0 -24 -3 -40 -30 -56c10 -18 34 -50 109 -50c83 0 155 53 155 178c0 127 -88 160 -187 160c-54 0 -91 -12 -107 -23l-8 2l39 332h301l18 47h36l-27 -134h-292
l-21 -151s25 12 94 12c136 0 248 -65 248 -224z" />
    <glyph glyph-name="six" unicode="6" horiz-adv-x="550" 
d="M512 220c0 -132 -104 -236 -235 -236c-148 0 -230 107 -230 282c0 228 158 397 386 429l8 -43l-45 -8c-115 -57 -205 -140 -241 -271c44 31 85 61 162 61c103 0 195 -85 195 -214zM408 207c0 104 -49 171 -131 171c-64 0 -97 -24 -131 -56c-5 -28 -7 -58 -7 -91
c0 -149 62 -208 134 -208c86 0 135 70 135 184z" />
    <glyph glyph-name="seven" unicode="7" horiz-adv-x="482" 
d="M489 577l-298 -601c-9 -19 -21 -56 -66 -56c-25 0 -36 15 -36 28c0 19 13 35 22 52l304 528h-193c-48 0 -86 1 -108 -9c-20 -8 -33 -53 -41 -107h-33v197h449v-32z" />
    <glyph glyph-name="eight" unicode="8" horiz-adv-x="577" 
d="M530 181c0 -106 -99 -198 -250 -198c-146 0 -233 81 -233 190c0 81 54 139 151 176c-81 45 -124 95 -124 163c0 99 96 184 225 184c125 0 207 -74 207 -175c0 -66 -44 -127 -126 -165c104 -45 150 -92 150 -175zM412 526c0 74 -44 131 -121 131c-72 0 -123 -53 -123 -124
c0 -79 53 -109 177 -160c48 30 67 85 67 153zM436 160c0 87 -64 114 -205 173c-61 -34 -88 -88 -88 -154c0 -95 58 -157 148 -157s145 58 145 138z" />
    <glyph glyph-name="nine" unicode="9" horiz-adv-x="550" 
d="M503 342c0 -228 -147 -391 -388 -425l-8 43l43 8c102 30 202 126 243 266c-43 -30 -84 -60 -160 -60c-103 0 -195 85 -195 214c0 132 102 236 239 236c149 0 226 -107 226 -282zM411 377c0 149 -61 208 -133 208c-86 0 -136 -70 -136 -184c0 -104 49 -171 131 -171
c63 0 96 23 130 55c5 29 8 60 8 92z" />
    <glyph glyph-name="colon" unicode=":" horiz-adv-x="340" 
d="M247 411c0 -38 -31 -69 -68 -69c-38 0 -69 31 -69 69s31 68 69 68c37 0 68 -30 68 -68zM247 56c0 -38 -31 -70 -68 -70c-38 0 -69 32 -69 70s31 68 69 68c37 0 68 -30 68 -68z" />
    <glyph glyph-name="semicolon" unicode=";" horiz-adv-x="340" 
d="M248 411c0 -38 -32 -69 -69 -69s-68 31 -68 69s31 68 68 68c38 0 69 -30 69 -68zM280 -1c0 -90 -64 -170 -193 -188l-8 35c121 27 147 84 147 130c0 23 -3 46 -16 63c-10 -15 -29 -34 -48 -34c-26 0 -55 17 -55 60c0 36 30 66 68 66c64 0 105 -51 105 -132z" />
    <glyph glyph-name="less" unicode="&#x3c;" horiz-adv-x="663" 
d="M543 -6l-470 223v56l470 223v-73l-382 -178l382 -178v-73z" />
    <glyph glyph-name="equal" unicode="=" 
d="M565 329h-487v64h487v-64zM565 144h-487v63h487v-63z" />
    <glyph glyph-name="greater" unicode="&#x3e;" horiz-adv-x="663" 
d="M590 217l-470 -223v73l382 178l-382 178v73l470 -223v-56z" />
    <glyph glyph-name="question" unicode="?" horiz-adv-x="432" 
d="M411 572c0 -179 -201 -178 -201 -285c0 -48 26 -63 52 -63c31 0 48 15 67 38l21 -22c-26 -34 -55 -58 -102 -58c-67 0 -119 43 -119 114c0 148 190 140 190 282c0 82 -45 104 -101 104c-53 0 -82 -29 -92 -48c27 -3 46 -22 46 -50c0 -33 -23 -56 -60 -56
c-30 0 -54 28 -54 61c0 72 79 131 166 131c125 0 187 -60 187 -148zM290 54c0 -37 -32 -69 -68 -69c-37 0 -67 32 -67 69s30 67 67 67s68 -30 68 -67z" />
    <glyph glyph-name="at" unicode="@" horiz-adv-x="966" 
d="M891 305c0 -163 -108 -313 -246 -313c-85 0 -106 26 -111 57l2 17c-70 -57 -98 -69 -152 -69c-63 0 -105 40 -105 112c0 162 143 331 267 331c41 0 74 -16 86 -24l25 24h64l-83 -293c-4 -16 -12 -52 -16 -73c3 -20 18 -37 38 -37c97 0 176 115 176 274
c0 156 -106 279 -299 279c-180 0 -371 -148 -371 -401c0 -248 146 -363 334 -363c109 0 188 31 258 86l23 -36c-72 -61 -170 -98 -285 -98c-206 0 -418 132 -418 405c0 236 185 456 464 456c238 0 349 -163 349 -334zM610 348c-13 16 -47 40 -92 40c-8 0 -19 0 -25 -2
c-59 -20 -119 -188 -119 -274c0 -36 21 -57 57 -57c38 0 77 31 114 64z" />
    <glyph glyph-name="A" unicode="A" horiz-adv-x="639" 
d="M668 0h-279v37l93 11l-69 190h-236c-14 -41 -48 -134 -54 -178c14 -9 58 -17 99 -23v-37h-249v37c46 6 84 18 103 66l229 585h38l248 -642l77 -9v-37zM396 280l-102 262l-99 -262h201z" />
    <glyph glyph-name="B" unicode="B" horiz-adv-x="641" 
d="M598 195c0 -155 -136 -199 -298 -199c-22 0 -102 4 -129 4h-130v37l93 11v582l-93 11v37c96 0 177 1 263 1c201 0 251 -72 251 -149s-58 -145 -145 -163v-4c107 -5 188 -72 188 -168zM443 501c0 94 -50 138 -153 138h-54v-272h33c126 0 174 48 174 134zM483 185
c0 103 -49 145 -175 145h-72v-286c12 -2 52 -5 80 -5c108 0 167 48 167 146z" />
    <glyph glyph-name="C" unicode="C" horiz-adv-x="638" 
d="M596 211l-12 -192c-69 -17 -148 -35 -224 -35c-196 0 -325 138 -325 354c0 209 136 355 327 355c95 0 154 -25 202 -25l26 6v-206h-38c-8 37 -26 96 -45 132c-23 26 -95 52 -139 52c-137 0 -218 -112 -218 -312c0 -195 79 -315 216 -315c44 0 116 23 139 49
c19 36 45 100 53 137h38z" />
    <glyph glyph-name="D" unicode="D" horiz-adv-x="723" 
d="M688 336c0 -231 -175 -336 -356 -336h-291v37l93 11v582l-93 11v37h308c134 0 339 -70 339 -342zM573 337c0 182 -94 302 -249 302c-21 0 -68 -1 -88 -2v-584c30 -7 56 -14 102 -14c165 0 235 115 235 298z" />
    <glyph glyph-name="E" unicode="E" 
d="M602 200l-12 -200h-549v37l93 11v582l-93 11v37h521v-163h-39c-9 35 -23 80 -52 111c-30 10 -68 13 -109 13h-126v-266h71c59 0 79 10 93 29c8 17 17 55 21 80h40v-266h-40c-2 29 -12 70 -21 86c-13 20 -34 30 -93 30h-71v-284c43 -7 80 -8 115 -8c51 0 126 1 156 22
c24 34 48 106 58 138h37z" />
    <glyph glyph-name="F" unicode="F" horiz-adv-x="587" 
d="M568 509h-39c-9 35 -23 86 -52 117c-30 10 -68 13 -109 13h-132v-271h77c59 0 79 10 93 29c8 17 17 55 21 80h40v-267h-40c-2 29 -12 71 -21 87c-13 20 -34 30 -93 30h-77v-279l95 -11v-37h-290v37l93 11v582l-93 11v37h527v-169z" />
    <glyph glyph-name="G" unicode="G" horiz-adv-x="709" 
d="M700 268l-90 -11v-104c0 -61 0 -97 2 -121c-67 -25 -164 -48 -256 -48c-176 0 -321 132 -321 353c0 211 141 356 332 356c110 0 164 -25 212 -25l26 6v-206h-38c-8 37 -26 96 -45 132c-23 26 -105 52 -149 52c-137 0 -223 -112 -223 -312c0 -176 76 -314 227 -314
c67 0 110 19 131 30c5 30 4 70 4 103v97l-102 12v37h290v-37z" />
    <glyph glyph-name="H" unicode="H" horiz-adv-x="795" 
d="M755 0h-285v37l90 11v283h-324v-283l90 -11v-37h-285v37l93 11v582l-93 11v37h285v-37l-90 -11v-256h324v256l-90 11v37h285v-37l-94 -11v-582l94 -11v-37z" />
    <glyph glyph-name="I" unicode="I" horiz-adv-x="370" 
d="M331 0h-292v37l95 11v582l-95 11v37h292v-37l-95 -11v-582l95 -11v-37z" />
    <glyph glyph-name="J" unicode="J" horiz-adv-x="368" 
d="M336 641l-95 -11v-566c0 -169 -92 -275 -212 -275c-65 0 -91 33 -91 68c0 30 18 63 59 63c42 0 59 -24 59 -56c0 -10 -4 -30 -12 -39c75 10 95 70 95 229v576l-100 11v37h297v-37z" />
    <glyph glyph-name="K" unicode="K" horiz-adv-x="681" 
d="M707 0h-189c-93 88 -181 234 -227 330l-55 -49v-233l90 -11v-37h-285v37l93 11v582l-93 11v37h285v-37l-90 -11v-302c105 102 225 233 259 293v7l-88 13v37h263v-37c-35 -3 -81 -7 -127 -52c-82 -81 -110 -117 -178 -190c38 -77 160 -285 258 -353l84 -9v-37z" />
    <glyph glyph-name="L" unicode="L" horiz-adv-x="587" 
d="M577 210l-13 -210h-523v37l93 11v582l-93 11v37h290v-37l-95 -11v-583c35 -6 78 -7 113 -7c51 0 101 3 129 22c24 34 52 116 62 148h37z" />
    <glyph glyph-name="M" unicode="M" horiz-adv-x="909" 
d="M869 0h-287v37l92 11v597h-2l-235 -645h-32l-221 646h-2v-589l90 -20v-37h-231v37l93 20v573l-93 11v37h234l178 -518l183 518h233v-37l-94 -11v-582l94 -11v-37z" />
    <glyph glyph-name="N" unicode="N" horiz-adv-x="758" 
d="M727 641l-93 -20v-626h-53l-399 563v-501l100 -20v-37h-241v37l93 20v573l-103 11v37h184l371 -524v467l-100 20v37h241v-37z" />
    <glyph glyph-name="O" unicode="O" horiz-adv-x="715" 
d="M680 340c0 -171 -95 -357 -323 -357c-207 0 -322 149 -322 357c0 196 121 354 323 354c220 0 322 -162 322 -354zM565 340c0 183 -58 312 -208 312c-154 0 -207 -154 -207 -312c0 -180 56 -315 207 -315c145 0 208 142 208 315z" />
    <glyph glyph-name="P" unicode="P" horiz-adv-x="589" 
d="M560 503c0 -142 -99 -216 -229 -216c-39 0 -72 6 -95 11v-250l95 -11v-37h-290v37l93 11v582l-93 11v37c79 0 164 1 268 1c139 0 251 -52 251 -176zM446 487c0 76 -30 152 -154 152h-56v-299c20 -6 39 -10 68 -10c114 0 142 109 142 157z" />
    <glyph glyph-name="Q" unicode="Q" horiz-adv-x="715" 
d="M690 -207h-208c-93 73 -125 108 -169 193c-179 20 -278 161 -278 354c0 196 121 354 323 354c220 0 322 -162 322 -354c0 -154 -77 -319 -259 -351c39 -58 82 -92 165 -150l104 -9v-37zM565 340c0 183 -58 312 -208 312c-154 0 -207 -154 -207 -312
c0 -180 56 -315 207 -315c145 0 208 142 208 315z" />
    <glyph glyph-name="R" unicode="R" horiz-adv-x="674" 
d="M709 0h-188c-99 90 -167 209 -210 303l-75 11v-266l86 -11v-37h-281v37l93 11v582l-93 11v37c106 0 181 1 267 1c205 0 254 -87 254 -165c0 -112 -90 -174 -154 -190c36 -68 120 -210 217 -278l84 -9v-37zM449 500c0 94 -53 139 -152 139h-61v-286c12 -3 43 -5 61 -5
c98 0 152 68 152 152z" />
    <glyph glyph-name="S" unicode="S" horiz-adv-x="534" 
d="M495 200c0 -106 -71 -215 -246 -215c-57 0 -127 22 -178 22l-27 -5v212h36c11 -40 30 -98 54 -136c29 -25 71 -52 119 -52c96 0 148 60 148 137c0 58 -32 97 -86 119c-58 23 -91 22 -138 40c-72 29 -116 89 -116 169c0 113 91 201 213 201c70 0 109 -12 157 -12l26 4
v-196h-38c-8 37 -25 90 -44 126c-22 24 -61 40 -96 40c-87 0 -130 -57 -130 -116c0 -52 22 -101 93 -125c50 -18 83 -18 139 -41c59 -25 114 -73 114 -172z" />
    <glyph glyph-name="T" unicode="T" horiz-adv-x="614" 
d="M602 491h-39c-9 35 -26 104 -55 135c-30 10 -68 13 -106 13h-44v-591l96 -11v-37h-294v37l96 11v591h-44c-38 0 -76 -3 -106 -13c-29 -31 -46 -100 -55 -135h-39v187h590v-187z" />
    <glyph glyph-name="U" unicode="U" horiz-adv-x="734" 
d="M714 641l-93 -20v-422c0 -158 -147 -216 -246 -216c-166 0 -255 94 -255 196v451l-90 11v37h282v-37l-89 -11v-421c0 -69 24 -172 169 -172s181 105 181 171v413l-100 20v37h241v-37z" />
    <glyph glyph-name="V" unicode="V" horiz-adv-x="640" 
d="M667 641c-46 -6 -82 -16 -102 -66l-233 -581h-39l-244 637l-77 10v37h279v-37l-93 -12l185 -488l103 259c20 50 65 174 72 218c-14 9 -59 17 -100 23v37h249v-37z" />
    <glyph glyph-name="W" unicode="W" horiz-adv-x="926" 
d="M956 641c-46 -6 -82 -16 -102 -66l-209 -581h-38l-138 427l-160 -427h-38l-211 637l-78 10v37h270v-37l-84 -12l155 -477l124 331l-50 148l-76 10v37h275v-37l-93 -12l155 -477l88 248c28 83 54 174 61 218c-14 9 -59 17 -100 23v37h249v-37z" />
    <glyph glyph-name="X" unicode="X" horiz-adv-x="669" 
d="M675 0h-294v37l94 12l-159 244c-70 -95 -122 -173 -157 -228v-6l90 -22v-37h-249v37c36 4 80 11 128 75c43 57 110 147 162 219l-202 300l-77 10v37h295v-37l-94 -12l146 -225c69 94 108 154 143 209v6l-90 22v37h248v-37c-36 -4 -78 -10 -128 -75
c-44 -57 -96 -127 -148 -198l216 -321l76 -10v-37z" />
    <glyph glyph-name="Y" unicode="Y" horiz-adv-x="602" 
d="M623 641c-35 -3 -70 -10 -105 -66c-46 -74 -78 -141 -138 -243c-12 -20 -22 -39 -29 -61v-223l96 -11v-37h-294v37l96 11v224l-192 359l-76 10v37h284v-37l-94 -12l161 -294c83 141 104 188 145 277v6l-100 23v37h246v-37z" />
    <glyph glyph-name="Z" unicode="Z" horiz-adv-x="592" 
d="M571 210l-13 -210h-548v17l425 622h-187c-38 0 -78 -3 -108 -13c-29 -31 -46 -100 -55 -135h-39v187h517v-17l-424 -621h194c53 0 109 5 137 24c24 34 54 114 64 146h37z" />
    <glyph glyph-name="bracketleft" unicode="[" horiz-adv-x="386" 
d="M341 -148h-261v874h261v-44h-174v-786h174v-44z" />
    <glyph glyph-name="backslash" unicode="\" horiz-adv-x="369" 
d="M379 -148h-66l-311 874h67z" />
    <glyph glyph-name="bracketright" unicode="]" horiz-adv-x="386" 
d="M299 -148h-261v44h174v786h-174v44h261v-874z" />
    <glyph glyph-name="asciicircum" unicode="^" 
d="M551 376h-73l-156 255l-157 -255h-73l201 322h58z" />
    <glyph glyph-name="underscore" unicode="_" horiz-adv-x="500" 
d="M503 -130h-506v46h506v-46z" />
    <glyph glyph-name="grave" unicode="`" horiz-adv-x="500" 
d="M368 545l-21 -17c-82 60 -132 91 -164 115c-26 19 -34 30 -34 55c0 19 19 39 42 39c25 0 39 -13 62 -43c27 -36 62 -77 115 -149z" />
    <glyph glyph-name="a" unicode="a" horiz-adv-x="587" 
d="M610 0h-259v36l84 10l-59 152h-210c-12 -35 -38 -104 -45 -140c12 -8 52 -16 89 -22v-36h-231v36c41 6 77 16 94 57l204 492h42l220 -541l71 -8v-36zM358 239l-87 216l-87 -216h174z" />
    <glyph glyph-name="b" unicode="b" horiz-adv-x="598" 
d="M552 167c0 -132 -122 -170 -268 -170c-20 0 -95 3 -119 3h-122v36l86 10v484l-86 10v36c86 0 167 1 245 1c180 0 225 -61 225 -127c0 -65 -52 -124 -130 -139v-4c96 -5 169 -59 169 -140zM407 425c0 77 -44 113 -135 113h-46v-224h27c111 0 154 41 154 111zM443 159
c0 85 -45 117 -155 117h-62v-234c11 -1 44 -4 69 -4c94 0 148 41 148 121z" />
    <glyph glyph-name="c" unicode="c" horiz-adv-x="592" 
d="M547 186l-10 -170c-63 -14 -135 -30 -205 -30c-179 0 -294 118 -294 301c0 178 121 302 296 302c87 0 141 -21 185 -21l23 5v-182h-38c-7 31 -24 83 -41 114c-20 22 -84 44 -124 44c-123 0 -191 -96 -191 -260c0 -163 71 -263 189 -263c37 0 103 20 123 42
c18 30 41 87 48 118h39z" />
    <glyph glyph-name="d" unicode="d" horiz-adv-x="667" 
d="M629 286c0 -197 -153 -286 -316 -286h-270v36l86 10v484l-86 10v36h285c121 0 301 -59 301 -290zM520 286c0 152 -81 252 -218 252c-18 0 -58 -1 -76 -2v-486c26 -6 48 -12 88 -12c146 0 206 96 206 248z" />
    <glyph glyph-name="e" unicode="e" horiz-adv-x="597" 
d="M556 175l-11 -175h-502v36l86 10v484l-86 10v36h478v-143h-38c-8 29 -23 68 -49 94c-27 9 -61 11 -98 11h-110v-218h60c53 0 71 9 84 25c7 14 15 46 19 68h39v-232h-39c-2 24 -11 59 -19 73c-12 17 -31 25 -84 25h-60v-233c39 -6 71 -7 103 -7c46 0 111 1 138 19
c22 29 43 90 52 117h37z" />
    <glyph glyph-name="f" unicode="f" horiz-adv-x="548" 
d="M525 428h-40c-8 29 -23 73 -49 99c-27 9 -61 11 -98 11h-112v-223h63c53 0 71 8 83 24c8 15 16 47 19 68h41v-233h-41c-2 25 -11 61 -19 74c-11 17 -30 26 -83 26h-63v-228l88 -10v-36h-271v36l86 10v484l-86 10v36h482v-148z" />
    <glyph glyph-name="g" unicode="g" horiz-adv-x="651" 
d="M638 225l-83 -10v-85c0 -52 0 -82 2 -103c-61 -21 -143 -41 -231 -41c-161 0 -288 113 -288 300c0 180 126 303 301 303c102 0 148 -21 191 -21l23 5v-182h-39c-7 31 -23 84 -40 114c-21 22 -90 44 -129 44c-121 0 -197 -94 -197 -260c0 -148 63 -262 197 -262
c57 0 93 15 112 25c5 25 4 55 4 83v80l-96 10v36h273v-36z" />
    <glyph glyph-name="h" unicode="h" horiz-adv-x="736" 
d="M693 0h-266v36l83 10v233h-284v-233l83 -10v-36h-266v36l86 10v484l-86 10v36h266v-36l-83 -10v-208h284v208l-83 10v36h266v-36l-86 -10v-484l86 -10v-36z" />
    <glyph glyph-name="i" unicode="i" horiz-adv-x="355" 
d="M314 0h-273v36l88 11v483l-88 10v36h273v-36l-88 -10v-484l88 -10v-36z" />
    <glyph glyph-name="j" unicode="j" horiz-adv-x="354" 
d="M322 540l-87 -10v-488c0 -146 -87 -237 -197 -237c-60 0 -85 34 -85 65c0 26 17 57 56 57c40 0 56 -22 56 -51c0 -8 -3 -27 -8 -36c65 5 81 65 81 193v497l-95 10v36h279v-36z" />
    <glyph glyph-name="k" unicode="k" horiz-adv-x="632" 
d="M647 0h-171c-83 75 -163 197 -204 278l-46 -36v-196l83 -10v-36h-266v36l86 10v484l-86 10v36h266v-36l-83 -10v-246c96 88 190 190 222 239v6l-76 11v36h246v-36c-32 -3 -80 -7 -121 -44c-76 -70 -92 -95 -154 -157c35 -65 144 -236 228 -295l76 -8v-36z" />
    <glyph glyph-name="l" unicode="l" horiz-adv-x="548" 
d="M533 196l-11 -196h-479v36l86 10v484l-86 10v36h271v-36l-88 -10v-485c32 -5 69 -6 100 -6c46 0 86 3 111 19c22 29 49 111 58 138h38z" />
    <glyph glyph-name="m" unicode="m" horiz-adv-x="852" 
d="M809 0h-268v36l85 10v503h-2l-212 -549h-34l-199 548h-2v-492l83 -20v-36h-217v36l86 20v474l-86 10v36h225l156 -432l161 432h224v-36l-86 -10v-484l86 -10v-36z" />
    <glyph glyph-name="n" unicode="n" horiz-adv-x="704" 
d="M670 540l-85 -20v-524h-58l-350 470v-410l94 -20v-36h-228v36l86 20v474l-95 10v36h177l325 -437v381l-94 20v36h228v-36z" />
    <glyph glyph-name="o" unicode="o" horiz-adv-x="653" 
d="M615 289c0 -145 -82 -303 -289 -303c-188 0 -288 126 -288 303c0 167 105 301 289 301c200 0 288 -138 288 -301zM505 289c0 153 -46 260 -179 260c-136 0 -178 -129 -178 -260c0 -150 44 -263 178 -263c129 0 179 119 179 263z" />
    <glyph glyph-name="p" unicode="p" horiz-adv-x="551" 
d="M518 425c0 -122 -89 -189 -206 -189c-46 0 -86 9 -86 9v-199l88 -10v-36h-271v36l86 10v484l-86 10v36c71 0 155 1 249 1c125 0 226 -47 226 -152zM410 411c0 63 -27 127 -135 127h-49v-251s24 -9 60 -9c100 0 124 93 124 133z" />
    <glyph glyph-name="q" unicode="q" horiz-adv-x="653" 
d="M631 -179h-193c-84 62 -115 95 -155 168c-161 18 -245 137 -245 300c0 167 105 301 289 301c200 0 288 -138 288 -301c0 -129 -67 -269 -225 -297c35 -50 75 -80 145 -127l96 -7v-37zM505 289c0 153 -46 260 -179 260c-136 0 -178 -129 -178 -260
c0 -150 44 -263 178 -263c129 0 179 119 179 263z" />
    <glyph glyph-name="r" unicode="r" horiz-adv-x="625" 
d="M647 0h-170c-89 76 -148 173 -187 253l-64 10v-217l80 -10v-36h-263v36l86 10v484l-86 10v36c95 0 173 1 250 1c185 0 227 -74 227 -140c0 -99 -80 -151 -138 -165c33 -57 105 -170 187 -228l78 -8v-36zM412 424c0 80 -51 114 -137 114h-49v-237c11 -3 34 -5 50 -5
c92 0 136 57 136 128z" />
    <glyph glyph-name="s" unicode="s" horiz-adv-x="502" 
d="M460 169c0 -90 -63 -182 -224 -182c-55 0 -117 19 -163 19l-24 -4v188h37c10 -34 27 -86 49 -119c26 -21 61 -44 105 -44c86 0 130 49 130 113c0 46 -29 76 -78 95c-52 19 -81 18 -124 34c-65 24 -105 80 -105 148c0 96 84 171 196 171c69 0 103 -10 146 -10l23 3v-174
h-39c-7 31 -22 79 -40 110c-19 20 -54 34 -86 34c-78 0 -115 -49 -115 -96c0 -42 21 -84 85 -104c46 -14 74 -15 125 -35c53 -21 102 -63 102 -147z" />
    <glyph glyph-name="t" unicode="t" horiz-adv-x="574" 
d="M556 399h-40c-8 30 -26 102 -52 128c-27 9 -61 11 -95 11h-34v-492l89 -10v-36h-274v36l88 10v492h-33c-34 0 -69 -2 -96 -11c-26 -26 -43 -98 -51 -128h-40v177h538v-177z" />
    <glyph glyph-name="u" unicode="u" horiz-adv-x="676" 
d="M652 540l-86 -20v-351c0 -138 -132 -183 -222 -183c-149 0 -228 75 -228 166v378l-83 10v36h263v-36l-82 -10v-345c0 -59 17 -147 146 -147c128 0 157 89 157 145v337l-94 20v36h229v-36z" />
    <glyph glyph-name="v" unicode="v" horiz-adv-x="577" 
d="M606 540c-41 -5 -74 -15 -91 -56l-207 -489h-40l-218 536l-71 9v36h259v-36l-84 -10l162 -403l90 214c17 41 58 146 62 176c-12 8 -53 18 -90 23v36h228v-36z" />
    <glyph glyph-name="w" unicode="w" horiz-adv-x="848" 
d="M870 540c-41 -5 -76 -15 -92 -56l-187 -489h-40l-119 357l-143 -357h-40l-187 536l-73 9v36h249v-36l-74 -10l134 -396l111 278l-43 119l-70 9v36h254v-36l-83 -10l133 -397l78 207c26 69 46 143 52 177c-12 8 -53 18 -90 23v36h230v-36z" />
    <glyph glyph-name="x" unicode="x" horiz-adv-x="616" 
d="M616 0h-274v36l82 11l-135 199c-61 -80 -100 -140 -132 -186v-3l79 -21v-36h-233v36c32 4 77 9 121 64c39 49 93 120 140 181l-176 250l-75 9v36h275v-36l-82 -10l123 -184c60 78 88 124 120 170v3l-79 21v36h232v-36c-32 -4 -76 -9 -121 -64c-40 -48 -81 -103 -127 -163
l188 -268l74 -9v-36z" />
    <glyph glyph-name="y" unicode="y" horiz-adv-x="557" 
d="M572 540c-32 -3 -72 -9 -105 -66l-141 -238v-190l88 -10v-36h-273v36l88 10v184l-171 301l-71 9v36h262v-36l-83 -10l140 -242c70 116 89 153 125 227v3l-89 22v36h230v-36z" />
    <glyph glyph-name="z" unicode="z" horiz-adv-x="545" 
d="M520 186l-12 -186h-493v20l375 518h-156c-32 0 -70 -2 -97 -11c-26 -26 -41 -88 -50 -118h-40v167h466v-20l-375 -517h163c47 0 98 4 123 20c22 29 49 100 58 127h38z" />
    <glyph glyph-name="braceleft" unicode="{" horiz-adv-x="433" 
d="M387 -160c-137 0 -221 22 -221 153c0 40 32 104 32 141c0 93 -66 113 -158 119v68c92 6 158 26 158 119c0 37 -32 101 -32 141c0 131 84 153 221 153v-41c-61 -5 -127 4 -127 -92c0 -28 22 -104 22 -132c0 -128 -80 -153 -172 -172v-20c92 -19 172 -44 172 -172
c0 -28 -22 -104 -22 -132c0 -96 66 -87 127 -92v-41z" />
    <glyph glyph-name="bar" unicode="|" horiz-adv-x="322" 
d="M193 -148h-64v874h64v-874z" />
    <glyph glyph-name="braceright" unicode="}" horiz-adv-x="433" 
d="M393 253c-92 -6 -158 -26 -158 -119c0 -37 32 -101 32 -141c0 -131 -84 -153 -221 -153v41c61 5 127 -4 127 92c0 28 -22 104 -22 132c0 128 80 153 172 172v20c-92 19 -172 44 -172 172c0 28 22 104 22 132c0 96 -66 87 -127 92v41c137 0 221 -22 221 -153
c0 -40 -32 -104 -32 -141c0 -93 66 -113 158 -119v-68z" />
    <glyph glyph-name="asciitilde" unicode="~" 
d="M581 345c-20 -54 -82 -146 -168 -146c-95 0 -148 66 -216 66c-47 0 -68 -35 -94 -85l-41 15c20 53 82 145 168 145c97 0 148 -66 216 -66c47 0 68 35 95 86z" />
    <glyph glyph-name="nbspace" unicode="&#xa0;" horiz-adv-x="126" 
 />
    <glyph glyph-name="exclamdown" unicode="&#xa1;" horiz-adv-x="342" 
d="M241 520c0 -37 -31 -67 -68 -67s-67 30 -67 67s30 69 67 69c36 0 68 -32 68 -69zM239 -95c0 -30 -29 -54 -64 -54c-40 0 -65 22 -65 53c0 26 33 327 45 463h36c13 -136 48 -435 48 -462z" />
    <glyph glyph-name="cent" unicode="&#xa2;" horiz-adv-x="513" 
d="M463 72c-54 -49 -107 -72 -163 -75c0 -1 2 -142 2 -142h-48l2 142c-116 10 -198 87 -198 237c0 127 78 231 198 248l-2 142h48l-2 -139c100 -2 161 -42 161 -114c0 -30 -22 -57 -57 -57c-38 0 -55 23 -55 47s12 42 28 52c-6 13 -17 34 -77 34v-383c87 0 123 24 163 42
v-34zM256 70v371c-57 -18 -107 -78 -107 -178c0 -103 34 -171 107 -193z" />
    <glyph glyph-name="sterling" unicode="&#xa3;" horiz-adv-x="609" 
d="M567 165l-31 -165h-469v66c88 30 99 124 99 227h-81v46h79c0 21 -6 80 -6 108c0 154 118 228 243 228c100 0 143 -52 143 -91s-22 -61 -60 -61c-39 0 -59 24 -59 54c0 18 9 31 16 39c-15 10 -32 19 -63 19c-75 0 -122 -53 -122 -172c0 -38 6 -78 6 -124h197v-46h-195
c0 -88 -28 -155 -107 -204v-5h342l32 81h36z" />
    <glyph glyph-name="yen" unicode="&#xa5;" horiz-adv-x="607" 
d="M596 573c-32 -3 -71 -9 -105 -66l-116 -197h136v-43h-163v-78h163v-43h-162v-100l89 -10v-36h-272v36l89 10v100h-162v43h163v78h-163v43h135l-144 254l-71 9v36h260v-36l-83 -10l139 -246c70 116 90 157 126 231v3l-89 22v36h230v-36z" />
    <glyph glyph-name="Scaron" unicode="&#x160;" horiz-adv-x="534" 
d="M455 914l-124 -171c-9 -12 -14 -20 -41 -20s-33 7 -44 22l-123 169l27 16l138 -131l140 131zM495 200c0 -106 -71 -215 -246 -215c-57 0 -127 22 -178 22l-27 -5v212h36c11 -40 30 -98 54 -136c29 -25 71 -52 119 -52c96 0 148 60 148 137c0 58 -32 97 -86 119
c-58 23 -91 22 -138 40c-72 29 -116 89 -116 169c0 113 91 201 213 201c70 0 109 -12 157 -12l26 4v-196h-38c-8 37 -25 90 -44 126c-22 24 -61 40 -96 40c-87 0 -130 -57 -130 -116c0 -52 22 -101 93 -125c50 -18 83 -18 139 -41c59 -25 114 -73 114 -172z" />
    <glyph glyph-name="section" unicode="&#xa7;" horiz-adv-x="537" 
d="M466 596c0 -38 -26 -63 -62 -63c-34 0 -60 20 -60 57c0 17 8 39 21 48c-10 7 -23 12 -46 12c-46 0 -89 -16 -126 -53c85 -141 161 -194 205 -258c42 -57 65 -105 65 -181c0 -145 -86 -297 -258 -297c-85 0 -134 32 -134 92c0 38 28 63 64 63c34 0 58 -20 58 -57
c0 -17 -8 -38 -21 -47c10 -7 23 -12 46 -12c46 0 89 16 126 53c-82 136 -162 194 -205 258c-42 57 -65 105 -65 181c0 145 86 297 258 297c85 0 134 -33 134 -93zM405 107c0 75 -32 123 -78 181c-82 106 -142 141 -166 269c-17 -31 -29 -66 -29 -114c0 -75 32 -123 78 -181
c82 -106 142 -141 166 -269c17 31 29 66 29 114z" />
    <glyph glyph-name="scaron" unicode="&#x161;" horiz-adv-x="502" 
d="M433 830l-124 -171c-9 -12 -14 -20 -41 -20s-33 7 -44 22l-123 169l27 16l138 -131l140 131zM460 169c0 -90 -63 -182 -224 -182c-55 0 -117 19 -163 19l-24 -4v188h37c10 -34 27 -86 49 -119c26 -21 61 -44 105 -44c86 0 130 49 130 113c0 46 -29 76 -78 95
c-52 19 -81 18 -124 34c-65 24 -105 80 -105 148c0 96 84 171 196 171c69 0 103 -10 146 -10l23 3v-174h-39c-7 31 -22 79 -40 110c-19 20 -54 34 -86 34c-78 0 -115 -49 -115 -96c0 -42 21 -84 85 -104c46 -14 74 -15 125 -35c53 -21 102 -63 102 -147z" />
    <glyph glyph-name="copyright" unicode="&#xa9;" horiz-adv-x="972" 
d="M918 295c0 -238 -195 -432 -431 -432c-238 0 -433 194 -433 432c0 236 195 430 433 430c236 0 431 -194 431 -430zM864 295c0 212 -164 383 -377 383c-214 0 -379 -171 -379 -383c0 -215 165 -386 379 -386c213 0 377 171 377 386zM681 216l-8 -139
c-52 -11 -113 -25 -170 -25c-148 0 -247 96 -247 241c0 142 104 242 249 242c71 0 115 -16 151 -16l21 3v-149h-35c-6 24 -20 67 -34 91c-16 16 -64 34 -97 34c-100 0 -156 -75 -156 -203s58 -205 154 -205c30 0 81 15 97 32c15 23 34 70 39 94h36z" />
    <glyph glyph-name="ordfeminine" unicode="&#xaa;" horiz-adv-x="527" 
d="M495 284h-188v36l56 6l-38 96h-140c-9 -25 -24 -66 -30 -90c10 -5 36 -8 61 -13v-35h-168v35c31 5 55 11 66 36l141 344h38l152 -374l50 -5v-36zM309 460l-55 134l-53 -134h108zM436 103h-333v48h333v-48z" />
    <glyph glyph-name="guillemotleft" unicode="&#xab;" horiz-adv-x="609" 
d="M517 105l-29 -20l-179 172c-8 8 -22 16 -22 38c0 21 14 34 23 42l178 170l29 -21l-134 -191zM311 105l-30 -20l-179 172c-7 7 -22 16 -22 38c0 21 14 34 23 42l178 170l30 -21l-135 -191z" />
    <glyph glyph-name="logicalnot" unicode="&#xac;" 
d="M564 16h-66v221h-429v63h495v-284z" />
    <glyph glyph-name="registered" unicode="&#xae;" horiz-adv-x="972" 
d="M918 295c0 -238 -195 -432 -431 -432c-238 0 -433 194 -433 432c0 236 195 430 433 430c236 0 431 -194 431 -430zM864 295c0 212 -164 383 -377 383c-214 0 -379 -171 -379 -383c0 -215 165 -386 379 -386c213 0 377 171 377 386zM775 71h-141c-74 61 -122 136 -154 199
l-49 7v-164l64 -8v-34h-217v34l69 8v374l-69 8v34c78 0 143 2 206 2c154 0 188 -60 188 -113c0 -77 -63 -120 -111 -132c28 -46 83 -130 149 -174l65 -7v-34zM579 407c0 62 -40 86 -110 86h-38v-180c10 -2 28 -4 40 -4c74 0 108 43 108 98z" />
    <glyph glyph-name="macron" unicode="&#xaf;" horiz-adv-x="500" 
d="M423 617h-346v63h346v-63z" />
    <glyph glyph-name="degree" unicode="&#xb0;" horiz-adv-x="410" 
d="M358 576c0 -83 -77 -151 -155 -151c-79 0 -151 53 -151 150c0 89 78 156 151 156c78 0 155 -50 155 -155zM289 574c0 73 -33 118 -85 118s-84 -49 -84 -113c0 -67 31 -115 86 -115c43 0 83 41 83 110z" />
    <glyph glyph-name="plusminus" unicode="&#xb1;" 
d="M574 0h-505v63h221v189h-221v63h221v220h64v-220h220v-63h-220v-189h220v-63z" />
    <glyph glyph-name="twosuperior" unicode="&#xb2;" horiz-adv-x="444" 
d="M389 421l-21 -112h-282v46c126 79 204 132 204 208c0 41 -22 75 -75 75c-51 0 -79 -32 -79 -67c0 -12 0 -19 3 -37l-34 -9c-6 22 -11 40 -11 57c0 65 56 114 133 114c82 0 139 -45 139 -118c0 -87 -81 -137 -196 -207h165l22 50h32z" />
    <glyph glyph-name="threesuperior" unicode="&#xb3;" horiz-adv-x="441" 
d="M381 420c0 -77 -78 -141 -177 -141c-72 0 -125 35 -125 78c0 20 18 42 44 42c29 0 41 -16 41 -32c0 -15 -2 -25 -16 -35c8 -7 29 -19 64 -19c49 0 94 28 94 93c0 33 -22 66 -73 66c-12 0 -26 -3 -46 -12l-14 31c81 22 119 49 119 99c0 31 -22 55 -68 55
c-47 0 -76 -28 -76 -60v-24l-29 -5c-8 18 -10 25 -10 42c0 54 57 98 127 98c71 0 129 -34 129 -87c0 -46 -36 -73 -68 -91c33 -9 84 -36 84 -98z" />
    <glyph glyph-name="Zcaron" unicode="&#x17d;" horiz-adv-x="592" 
d="M462 914l-124 -171c-9 -12 -14 -20 -41 -20s-33 7 -44 22l-123 169l27 16l138 -131l140 131zM571 210l-13 -210h-548v17l425 622h-187c-38 0 -78 -3 -108 -13c-29 -31 -46 -100 -55 -135h-39v187h517v-17l-424 -621h194c53 0 109 5 137 24c24 34 54 114 64 146h37z" />
    <glyph glyph-name="paragraph" unicode="&#xb6;" horiz-adv-x="524" 
d="M505 641l-99 -11v-451c0 -120 -3 -197 -69 -257c-26 -24 -70 -45 -121 -45c-81 0 -153 53 -153 140c0 66 54 128 130 128c57 0 87 -32 87 -79c0 -39 -27 -64 -65 -64s-60 25 -60 59c0 16 3 26 11 38c-38 2 -64 -44 -64 -84c0 -58 49 -100 112 -100c53 0 96 27 116 58
c29 46 29 122 29 190c0 56 -2 115 -2 143h-75c-192 0 -213 102 -213 184c0 78 32 188 183 188h253v-37z" />
    <glyph glyph-name="periodcentered" unicode="&#xb7;" horiz-adv-x="257" 
d="M206 298c0 -38 -32 -70 -69 -70c-38 0 -68 32 -68 70s30 68 68 68s69 -30 69 -68z" />
    <glyph glyph-name="zcaron" unicode="&#x17e;" horiz-adv-x="545" 
d="M432 830l-124 -171c-9 -12 -14 -20 -41 -20s-33 7 -44 22l-123 169l27 16l138 -131l140 131zM520 186l-12 -186h-493v20l375 518h-156c-32 0 -70 -2 -97 -11c-26 -26 -41 -88 -50 -118h-40v167h466v-20l-375 -517h163c47 0 98 4 123 20c22 29 49 100 58 127h38z" />
    <glyph glyph-name="onesuperior" unicode="&#xb9;" horiz-adv-x="367" 
d="M312 309h-227v31l79 8v288l-81 -39l-13 31l135 68h35c-1 -29 -3 -55 -3 -90v-259l75 -6v-32z" />
    <glyph glyph-name="ordmasculine" unicode="&#xba;" horiz-adv-x="548" 
d="M488 484c0 -104 -60 -217 -209 -217c-135 0 -209 90 -209 217c0 120 78 215 210 215c143 0 208 -98 208 -215zM397 484c0 104 -28 176 -118 176c-92 0 -118 -88 -118 -176c0 -102 27 -178 118 -178c87 0 118 80 118 178zM441 103h-333v48h333v-48z" />
    <glyph glyph-name="guillemotright" unicode="&#xbb;" horiz-adv-x="609" 
d="M529 295c0 -22 -15 -31 -22 -38l-179 -172l-30 20l135 190l-135 191l30 21l178 -170c9 -8 23 -21 23 -42zM322 295c0 -22 -14 -30 -22 -38l-179 -172l-29 20l134 190l-134 191l29 21l178 -170c9 -8 23 -21 23 -42z" />
    <glyph glyph-name="OE" unicode="&#x152;" horiz-adv-x="982" 
d="M941 200l-12 -200h-555c-136 0 -339 70 -339 342c0 231 175 336 356 336h510v-163h-39c-9 35 -23 80 -52 111c-30 10 -68 13 -109 13h-123v-266h68c59 0 79 10 93 29c8 17 17 55 21 80h40v-266h-40c-2 29 -12 70 -21 86c-13 20 -34 30 -93 30h-68v-286
c44 -5 87 -6 122 -6c44 0 116 1 146 22c24 34 48 106 58 138h37zM476 44v591c-26 2 -57 3 -91 3c-162 0 -235 -114 -235 -297s90 -302 249 -302c18 0 59 3 77 5z" />
    <glyph glyph-name="oe" unicode="&#x153;" horiz-adv-x="901" 
d="M860 175l-11 -175h-504c-131 0 -307 58 -307 290c0 196 155 286 322 286h465v-143h-38c-8 29 -23 68 -49 94c-27 9 -61 11 -98 11h-105v-218h55c53 0 71 9 84 25c7 14 15 46 19 68h39v-232h-39c-2 24 -11 59 -19 73c-12 17 -31 25 -84 25h-55v-233c39 -6 71 -7 103 -7
c46 0 106 1 133 19c22 29 43 90 52 117h37zM438 42v493c-23 1 -47 2 -78 2c-145 0 -212 -99 -212 -248c0 -155 79 -251 224 -251c16 0 50 3 66 4z" />
    <glyph glyph-name="Ydieresis" unicode="&#x178;" horiz-adv-x="602" 
d="M497 854c0 -33 -26 -60 -58 -60s-58 27 -58 60s26 60 58 60s58 -27 58 -60zM261 854c0 -33 -26 -60 -58 -60s-58 27 -58 60s26 60 58 60s58 -27 58 -60zM623 641c-35 -3 -70 -10 -105 -66c-46 -74 -78 -141 -138 -243c-12 -20 -22 -39 -29 -61v-223l96 -11v-37h-294v37
l96 11v224l-192 359l-76 10v37h284v-37l-94 -12l161 -294c83 141 104 188 145 277v6l-100 23v37h246v-37z" />
    <glyph glyph-name="questiondown" unicode="&#xbf;" horiz-adv-x="432" 
d="M277 520c0 -37 -30 -67 -67 -67s-68 30 -68 67s32 69 68 69c37 0 67 -32 67 -69zM374 -15c0 -72 -79 -131 -166 -131c-125 0 -187 60 -187 148c0 179 201 178 201 285c0 48 -26 63 -52 63c-31 0 -48 -15 -67 -38l-21 22c26 34 55 58 102 58c67 0 119 -43 119 -114
c0 -148 -190 -140 -190 -282c0 -82 45 -104 101 -104c53 0 82 29 92 48c-27 3 -46 22 -46 50c0 33 23 56 60 56c30 0 54 -28 54 -61z" />
    <glyph glyph-name="Agrave" unicode="&#xc0;" horiz-adv-x="639" 
d="M668 0h-279v37l93 11l-69 190h-236c-14 -41 -48 -134 -54 -178c14 -9 58 -17 99 -23v-37h-249v37c46 6 84 18 103 66l229 585h38l248 -642l77 -9v-37zM396 280l-102 262l-99 -262h201zM416 738l-21 -17c-82 60 -132 91 -164 115c-26 19 -34 30 -34 55c0 19 19 39 42 39
c25 0 39 -13 62 -43c27 -36 62 -77 115 -149z" />
    <glyph glyph-name="Aacute" unicode="&#xc1;" horiz-adv-x="639" 
d="M668 0h-279v37l93 11l-69 190h-236c-14 -41 -48 -134 -54 -178c14 -9 58 -17 99 -23v-37h-249v37c46 6 84 18 103 66l229 585h38l248 -642l77 -9v-37zM396 280l-102 262l-99 -262h201zM443 891c0 -25 -9 -35 -34 -55c-33 -27 -78 -53 -164 -115l-21 17
c54 72 87 113 115 149c24 31 37 43 62 43c23 0 42 -20 42 -39z" />
    <glyph glyph-name="Acircumflex" unicode="&#xc2;" horiz-adv-x="639" 
d="M668 0h-279v37l93 11l-69 190h-236c-14 -41 -48 -134 -54 -178c14 -9 58 -17 99 -23v-37h-249v37c46 6 84 18 103 66l229 585h38l248 -642l77 -9v-37zM396 280l-102 262l-99 -262h201zM488 732l-27 -16l-140 131l-138 -131l-27 16l123 169c11 15 17 22 44 22
s32 -7 41 -20z" />
    <glyph glyph-name="Atilde" unicode="&#xc3;" horiz-adv-x="639" 
d="M668 0h-279v37l93 11l-69 190h-236c-14 -41 -48 -134 -54 -178c14 -9 58 -17 99 -23v-37h-249v37c46 6 84 18 103 66l229 585h38l248 -642l77 -9v-37zM396 280l-102 262l-99 -262h201zM517 902c-13 -46 -60 -122 -127 -122c-76 0 -107 50 -157 50c-36 0 -45 -23 -69 -66
l-31 12c15 44 60 122 124 122c71 0 109 -50 152 -50c52 0 57 25 76 66z" />
    <glyph glyph-name="Adieresis" unicode="&#xc4;" horiz-adv-x="639" 
d="M496 847c0 -33 -26 -60 -58 -60s-58 27 -58 60s26 60 58 60s58 -27 58 -60zM272 847c0 -33 -26 -60 -58 -60s-58 27 -58 60s26 60 58 60s58 -27 58 -60zM668 0h-279v37l93 11l-69 190h-236c-14 -41 -48 -134 -54 -178c14 -9 58 -17 99 -23v-37h-249v37c46 6 84 18 103 66
l229 585h38l248 -642l77 -9v-37zM396 280l-102 262l-99 -262h201z" />
    <glyph glyph-name="Aring" unicode="&#xc5;" horiz-adv-x="639" 
d="M464 833c0 -70 -56 -120 -140 -120c-85 0 -140 48 -140 120c0 70 62 119 140 119c80 0 140 -46 140 -119zM395 833c0 48 -25 85 -71 85c-45 0 -71 -33 -71 -85c0 -49 25 -86 71 -86s71 36 71 86zM668 0h-279v37l93 11l-69 190h-236c-14 -41 -48 -134 -54 -178
c14 -9 58 -17 99 -23v-37h-249v37c46 6 84 18 103 66l229 585h38l248 -642l77 -9v-37zM396 280l-102 262l-99 -262h201z" />
    <glyph glyph-name="AE" unicode="&#xc6;" horiz-adv-x="951" 
d="M910 200l-12 -200h-545v37l93 11v240h-224c-21 -41 -96 -179 -110 -228c12 -9 55 -17 95 -23v-37h-253v37c47 6 85 18 112 66l291 528l-95 10v37h608v-163h-39c-9 35 -23 80 -52 111c-30 10 -68 13 -109 13h-123v-266h68c59 0 79 10 93 29c8 17 17 55 21 80h40v-266h-40
c-2 29 -12 70 -21 86c-13 20 -34 30 -93 30h-68v-284c43 -7 87 -8 122 -8c45 0 116 1 146 22c24 34 48 106 58 138h37zM446 331v308h-34l-167 -308h201z" />
    <glyph glyph-name="Ccedilla" unicode="&#xc7;" horiz-adv-x="638" 
d="M596 211l-12 -192c-66 -16 -142 -34 -215 -35l-15 -44c63 -1 115 -33 115 -99c0 -63 -57 -106 -125 -106c-51 0 -89 20 -89 56c0 16 14 36 35 36c23 0 34 -16 34 -33c0 -10 -4 -18 -12 -25c5 -4 23 -6 31 -6c27 0 66 21 66 67c0 42 -27 68 -72 68c-10 0 -34 -3 -44 -9v23
l19 18l21 55c-181 12 -298 147 -298 353c0 209 136 355 327 355c95 0 154 -25 202 -25l26 6v-206h-38c-8 37 -26 96 -45 132c-23 26 -95 52 -139 52c-137 0 -218 -112 -218 -312c0 -195 79 -315 216 -315c44 0 116 23 139 49c19 36 45 100 53 137h38z" />
    <glyph glyph-name="Egrave" unicode="&#xc8;" 
d="M602 200l-12 -200h-549v37l93 11v582l-93 11v37h521v-163h-39c-9 35 -23 80 -52 111c-30 10 -68 13 -109 13h-126v-266h71c59 0 79 10 93 29c8 17 17 55 21 80h40v-266h-40c-2 29 -12 70 -21 86c-13 20 -34 30 -93 30h-71v-284c43 -7 80 -8 115 -8c51 0 126 1 156 22
c24 34 48 106 58 138h37zM438 738l-21 -17c-82 60 -132 91 -164 115c-26 19 -34 30 -34 55c0 19 19 39 42 39c25 0 39 -13 62 -43c27 -36 62 -77 115 -149z" />
    <glyph glyph-name="Eacute" unicode="&#xc9;" 
d="M602 200l-12 -200h-549v37l93 11v582l-93 11v37h521v-163h-39c-9 35 -23 80 -52 111c-30 10 -68 13 -109 13h-126v-266h71c59 0 79 10 93 29c8 17 17 55 21 80h40v-266h-40c-2 29 -12 70 -21 86c-13 20 -34 30 -93 30h-71v-284c43 -7 80 -8 115 -8c51 0 126 1 156 22
c24 34 48 106 58 138h37zM460 891c0 -25 -9 -35 -34 -55c-33 -27 -78 -53 -164 -115l-21 17c54 72 87 113 115 149c24 31 37 43 62 43c23 0 42 -20 42 -39z" />
    <glyph glyph-name="Ecircumflex" unicode="&#xca;" 
d="M602 200l-12 -200h-549v37l93 11v582l-93 11v37h521v-163h-39c-9 35 -23 80 -52 111c-30 10 -68 13 -109 13h-126v-266h71c59 0 79 10 93 29c8 17 17 55 21 80h40v-266h-40c-2 29 -12 70 -21 86c-13 20 -34 30 -93 30h-71v-284c43 -7 80 -8 115 -8c51 0 126 1 156 22
c24 34 48 106 58 138h37zM496 739l-27 -16l-140 131l-138 -131l-27 16l123 169c11 15 17 22 44 22s32 -7 41 -20z" />
    <glyph glyph-name="Edieresis" unicode="&#xcb;" 
d="M500 854c0 -33 -26 -60 -58 -60s-58 27 -58 60s26 60 58 60s58 -27 58 -60zM264 854c0 -33 -26 -60 -58 -60s-58 27 -58 60s26 60 58 60s58 -27 58 -60zM602 200l-12 -200h-549v37l93 11v582l-93 11v37h521v-163h-39c-9 35 -23 80 -52 111c-30 10 -68 13 -109 13h-126
v-266h71c59 0 79 10 93 29c8 17 17 55 21 80h40v-266h-40c-2 29 -12 70 -21 86c-13 20 -34 30 -93 30h-71v-284c43 -7 80 -8 115 -8c51 0 126 1 156 22c24 34 48 106 58 138h37z" />
    <glyph glyph-name="Igrave" unicode="&#xcc;" horiz-adv-x="370" 
d="M331 0h-292v37l95 11v582l-95 11v37h292v-37l-95 -11v-582l95 -11v-37zM287 738l-21 -17c-82 60 -132 91 -164 115c-26 19 -34 30 -34 55c0 19 19 39 42 39c25 0 39 -13 62 -43c27 -36 62 -77 115 -149z" />
    <glyph glyph-name="Iacute" unicode="&#xcd;" horiz-adv-x="370" 
d="M331 0h-292v37l95 11v582l-95 11v37h292v-37l-95 -11v-582l95 -11v-37zM305 891c0 -25 -9 -35 -34 -55c-33 -27 -78 -53 -164 -115l-21 17c54 72 87 113 115 149c24 31 37 43 62 43c23 0 42 -20 42 -39z" />
    <glyph glyph-name="Icircumflex" unicode="&#xce;" horiz-adv-x="370" 
d="M331 0h-292v37l95 11v582l-95 11v37h292v-37l-95 -11v-582l95 -11v-37zM351 739l-27 -16l-140 131l-138 -131l-27 16l123 169c11 15 17 22 44 22s32 -7 41 -20z" />
    <glyph glyph-name="Idieresis" unicode="&#xcf;" horiz-adv-x="370" 
d="M331 0h-292v37l95 11v582l-95 11v37h292v-37l-95 -11v-582l95 -11v-37zM353 854c0 -33 -26 -60 -58 -60s-58 27 -58 60s26 60 58 60s58 -27 58 -60zM131 854c0 -33 -26 -60 -58 -60s-58 27 -58 60s26 60 58 60s58 -27 58 -60z" />
    <glyph glyph-name="Eth" unicode="&#xd0;" horiz-adv-x="723" 
d="M688 336c0 -231 -175 -336 -356 -336h-291v37l93 11v282h-93v48h93v252l-93 11v37h308c134 0 339 -70 339 -342zM573 337c0 182 -94 302 -249 302c-21 0 -68 -1 -88 -2v-259h150v-48h-150v-277c30 -7 56 -14 102 -14c165 0 235 115 235 298z" />
    <glyph glyph-name="Ntilde" unicode="&#xd1;" horiz-adv-x="758" 
d="M727 641l-93 -20v-626h-53l-399 563v-501l100 -20v-37h-241v37l93 20v573l-103 11v37h184l371 -524v467l-100 20v37h241v-37zM594 907c-13 -46 -60 -122 -127 -122c-76 0 -107 50 -157 50c-36 0 -45 -23 -69 -66l-31 12c15 44 60 122 124 122c71 0 109 -50 152 -50
c52 0 57 25 76 66z" />
    <glyph glyph-name="Ograve" unicode="&#xd2;" horiz-adv-x="715" 
d="M680 340c0 -171 -95 -357 -323 -357c-207 0 -322 149 -322 357c0 196 121 354 323 354c220 0 322 -162 322 -354zM565 340c0 183 -58 312 -208 312c-154 0 -207 -154 -207 -312c0 -180 56 -315 207 -315c145 0 208 142 208 315zM454 738l-21 -17c-82 60 -132 91 -164 115
c-26 19 -34 30 -34 55c0 19 19 39 42 39c25 0 39 -13 62 -43c27 -36 62 -77 115 -149z" />
    <glyph glyph-name="Oacute" unicode="&#xd3;" horiz-adv-x="715" 
d="M680 340c0 -171 -95 -357 -323 -357c-207 0 -322 149 -322 357c0 196 121 354 323 354c220 0 322 -162 322 -354zM565 340c0 183 -58 312 -208 312c-154 0 -207 -154 -207 -312c0 -180 56 -315 207 -315c145 0 208 142 208 315zM477 891c0 -25 -9 -35 -34 -55
c-33 -27 -78 -53 -164 -115l-21 17c54 72 87 113 115 149c24 31 37 43 62 43c23 0 42 -20 42 -39z" />
    <glyph glyph-name="Ocircumflex" unicode="&#xd4;" horiz-adv-x="715" 
d="M680 340c0 -171 -95 -357 -323 -357c-207 0 -322 149 -322 357c0 196 121 354 323 354c220 0 322 -162 322 -354zM565 340c0 183 -58 312 -208 312c-154 0 -207 -154 -207 -312c0 -180 56 -315 207 -315c145 0 208 142 208 315zM519 739l-27 -16l-140 131l-138 -131
l-27 16l123 169c11 15 17 22 44 22s32 -7 41 -20z" />
    <glyph glyph-name="Otilde" unicode="&#xd5;" horiz-adv-x="715" 
d="M680 340c0 -171 -95 -357 -323 -357c-207 0 -322 149 -322 357c0 196 121 354 323 354c220 0 322 -162 322 -354zM565 340c0 183 -58 312 -208 312c-154 0 -207 -154 -207 -312c0 -180 56 -315 207 -315c145 0 208 142 208 315zM548 907c-13 -46 -60 -122 -127 -122
c-76 0 -107 50 -157 50c-36 0 -45 -23 -69 -66l-31 12c15 44 60 122 124 122c71 0 109 -50 152 -50c52 0 57 25 76 66z" />
    <glyph glyph-name="Odieresis" unicode="&#xd6;" horiz-adv-x="715" 
d="M531 854c0 -33 -26 -60 -58 -60s-58 27 -58 60s26 60 58 60s58 -27 58 -60zM295 854c0 -33 -26 -60 -58 -60s-58 27 -58 60s26 60 58 60s58 -27 58 -60zM680 340c0 -171 -95 -357 -323 -357c-207 0 -322 149 -322 357c0 196 121 354 323 354c220 0 322 -162 322 -354z
M565 340c0 183 -58 312 -208 312c-154 0 -207 -154 -207 -312c0 -180 56 -315 207 -315c145 0 208 142 208 315z" />
    <glyph glyph-name="multiply" unicode="&#xd7;" 
d="M552 81l-44 -44l-187 187l-187 -187l-44 44l187 187l-187 187l44 44l187 -187l187 187l44 -44l-187 -187z" />
    <glyph glyph-name="Oslash" unicode="&#xd8;" horiz-adv-x="715" 
d="M680 340c0 -171 -95 -357 -323 -357c-86 0 -157 27 -210 73l-85 -103l-32 26l89 105c-55 64 -84 153 -84 256c0 196 121 354 323 354c88 0 157 -27 209 -71l73 87l32 -26l-76 -90c56 -64 84 -155 84 -254zM519 565c-34 55 -87 87 -162 87c-154 0 -210 -154 -210 -312
c0 -71 9 -139 29 -191zM568 340c0 72 -9 139 -29 190l-344 -416c34 -56 86 -89 162 -89c145 0 211 142 211 315z" />
    <glyph glyph-name="Ugrave" unicode="&#xd9;" horiz-adv-x="734" 
d="M714 641l-93 -20v-422c0 -158 -147 -216 -246 -216c-166 0 -255 94 -255 196v451l-90 11v37h282v-37l-89 -11v-421c0 -69 24 -172 169 -172s181 105 181 171v413l-100 20v37h241v-37zM485 738l-21 -17c-82 60 -132 91 -164 115c-26 19 -34 30 -34 55c0 19 19 39 42 39
c25 0 39 -13 62 -43c27 -36 62 -77 115 -149z" />
    <glyph glyph-name="Uacute" unicode="&#xda;" horiz-adv-x="734" 
d="M714 641l-93 -20v-422c0 -158 -147 -216 -246 -216c-166 0 -255 94 -255 196v451l-90 11v37h282v-37l-89 -11v-421c0 -69 24 -172 169 -172s181 105 181 171v413l-100 20v37h241v-37zM502 891c0 -25 -9 -35 -34 -55c-33 -27 -78 -53 -164 -115l-21 17
c54 72 87 113 115 149c24 31 37 43 62 43c23 0 42 -20 42 -39z" />
    <glyph glyph-name="Ucircumflex" unicode="&#xdb;" horiz-adv-x="734" 
d="M714 641l-93 -20v-422c0 -158 -147 -216 -246 -216c-166 0 -255 94 -255 196v451l-90 11v37h282v-37l-89 -11v-421c0 -69 24 -172 169 -172s181 105 181 171v413l-100 20v37h241v-37zM559 739l-27 -16l-140 131l-138 -131l-27 16l123 169c11 15 17 22 44 22s32 -7 41 -20
z" />
    <glyph glyph-name="Udieresis" unicode="&#xdc;" horiz-adv-x="734" 
d="M566 854c0 -33 -26 -60 -58 -60s-58 27 -58 60s26 60 58 60s58 -27 58 -60zM330 854c0 -33 -26 -60 -58 -60s-58 27 -58 60s26 60 58 60s58 -27 58 -60zM714 641l-93 -20v-422c0 -158 -147 -216 -246 -216c-166 0 -255 94 -255 196v451l-90 11v37h282v-37l-89 -11v-421
c0 -69 24 -172 169 -172s181 105 181 171v413l-100 20v37h241v-37z" />
    <glyph glyph-name="Yacute" unicode="&#xdd;" horiz-adv-x="602" 
d="M623 641c-35 -3 -70 -10 -105 -66c-46 -74 -78 -141 -138 -243c-12 -20 -22 -39 -29 -61v-223l96 -11v-37h-294v37l96 11v224l-192 359l-76 10v37h284v-37l-94 -12l161 -294c83 141 104 188 145 277v6l-100 23v37h246v-37zM448 891c0 -25 -9 -35 -34 -55
c-33 -27 -78 -53 -164 -115l-21 17c54 72 87 113 115 149c24 31 37 43 62 43c23 0 42 -20 42 -39z" />
    <glyph glyph-name="Thorn" unicode="&#xde;" horiz-adv-x="596" 
d="M567 371c0 -142 -101 -220 -231 -220c-47 0 -100 11 -100 11v-114l90 -11v-37h-285v37l93 11v582l-93 11v37h285v-37l-90 -11v-83h81c141 0 250 -50 250 -176zM454 355c0 76 -28 152 -152 152h-66v-303s38 -10 78 -10c121 0 140 113 140 161z" />
    <glyph glyph-name="germandbls" unicode="&#xdf;" horiz-adv-x="1004" 
d="M460 169c0 -90 -63 -182 -224 -182c-55 0 -117 19 -163 19l-24 -4v188h37c10 -34 27 -86 49 -119c26 -21 61 -44 105 -44c86 0 130 49 130 113c0 46 -29 76 -78 95c-52 19 -81 18 -124 34c-65 24 -105 80 -105 148c0 96 84 171 196 171c69 0 103 -10 146 -10l23 3v-174
h-39c-7 31 -22 79 -40 110c-19 20 -54 34 -86 34c-78 0 -115 -49 -115 -96c0 -42 21 -84 85 -104c46 -14 74 -15 125 -35c53 -21 102 -63 102 -147zM962 169c0 -90 -63 -182 -224 -182c-55 0 -117 19 -163 19l-24 -4v188h37c10 -34 27 -86 49 -119c26 -21 61 -44 105 -44
c86 0 130 49 130 113c0 46 -29 76 -78 95c-52 19 -81 18 -124 34c-65 24 -105 80 -105 148c0 96 84 171 196 171c69 0 103 -10 146 -10l23 3v-174h-39c-7 31 -22 79 -40 110c-19 20 -54 34 -86 34c-78 0 -115 -49 -115 -96c0 -42 21 -84 85 -104c46 -14 74 -15 125 -35
c53 -21 102 -63 102 -147z" />
    <glyph glyph-name="agrave" unicode="&#xe0;" horiz-adv-x="587" 
d="M610 0h-259v36l84 10l-59 152h-210c-12 -35 -38 -104 -45 -140c12 -8 52 -16 89 -22v-36h-231v36c41 6 77 16 94 57l204 492h42l220 -541l71 -8v-36zM358 239l-87 216l-87 -216h174zM396 654l-21 -17c-82 60 -132 91 -164 115c-26 19 -34 30 -34 55c0 19 19 39 42 39
c25 0 39 -13 62 -43c27 -36 62 -77 115 -149z" />
    <glyph glyph-name="aacute" unicode="&#xe1;" horiz-adv-x="587" 
d="M610 0h-259v36l84 10l-59 152h-210c-12 -35 -38 -104 -45 -140c12 -8 52 -16 89 -22v-36h-231v36c41 6 77 16 94 57l204 492h42l220 -541l71 -8v-36zM358 239l-87 216l-87 -216h174zM410 807c0 -25 -9 -35 -34 -55c-33 -27 -78 -53 -164 -115l-21 17
c54 72 87 113 115 149c24 31 37 43 62 43c23 0 42 -20 42 -39z" />
    <glyph glyph-name="acircumflex" unicode="&#xe2;" horiz-adv-x="587" 
d="M610 0h-259v36l84 10l-59 152h-210c-12 -35 -38 -104 -45 -140c12 -8 52 -16 89 -22v-36h-231v36c41 6 77 16 94 57l204 492h42l220 -541l71 -8v-36zM358 239l-87 216l-87 -216h174zM459 650l-27 -16l-140 131l-138 -131l-27 16l123 169c11 15 17 22 44 22s32 -7 41 -20z
" />
    <glyph glyph-name="atilde" unicode="&#xe3;" horiz-adv-x="587" 
d="M610 0h-259v36l84 10l-59 152h-210c-12 -35 -38 -104 -45 -140c12 -8 52 -16 89 -22v-36h-231v36c41 6 77 16 94 57l204 492h42l220 -541l71 -8v-36zM358 239l-87 216l-87 -216h174zM488 808c-13 -46 -60 -122 -127 -122c-76 0 -107 50 -157 50c-36 0 -45 -23 -69 -66
l-31 12c15 44 60 122 124 122c71 0 109 -50 152 -50c52 0 57 25 76 66z" />
    <glyph glyph-name="adieresis" unicode="&#xe4;" horiz-adv-x="587" 
d="M610 0h-259v36l84 10l-59 152h-210c-12 -35 -38 -104 -45 -140c12 -8 52 -16 89 -22v-36h-231v36c41 6 77 16 94 57l204 492h42l220 -541l71 -8v-36zM358 239l-87 216l-87 -216h174zM462 737c0 -33 -26 -60 -58 -60s-58 27 -58 60s26 60 58 60s58 -27 58 -60zM240 737
c0 -33 -26 -60 -58 -60s-58 27 -58 60s26 60 58 60s58 -27 58 -60z" />
    <glyph glyph-name="aring" unicode="&#xe5;" horiz-adv-x="587" 
d="M610 0h-259v36l84 10l-59 152h-210c-12 -35 -38 -104 -45 -140c12 -8 52 -16 89 -22v-36h-231v36c41 6 77 16 94 57l204 492h42l220 -541l71 -8v-36zM358 239l-87 216l-87 -216h174zM423 750c0 -65 -53 -112 -131 -112c-79 0 -131 45 -131 112c0 65 59 111 131 111
c74 0 131 -44 131 -111zM359 750c0 45 -24 79 -67 79c-42 0 -67 -31 -67 -79c0 -46 24 -80 67 -80s67 33 67 80z" />
    <glyph glyph-name="ae" unicode="&#xe6;" horiz-adv-x="863" 
d="M822 175l-11 -175h-496v36l86 10v196h-202c-19 -35 -83 -146 -94 -186c12 -7 45 -14 82 -20v-36h-234v36c42 6 80 18 103 57l256 438l-82 9v36h557v-143h-38c-8 29 -23 68 -49 94c-27 9 -61 11 -98 11h-105v-218h55c53 0 71 9 84 25c7 14 15 46 19 68h39v-232h-39
c-2 24 -11 59 -19 73c-12 17 -31 25 -84 25h-55v-233c39 -6 71 -7 103 -7c46 0 106 1 133 19c22 29 43 90 52 117h37zM401 284v254h-32l-146 -254h178z" />
    <glyph glyph-name="ccedilla" unicode="&#xe7;" horiz-adv-x="592" 
d="M547 186l-10 -170c-58 -13 -124 -27 -189 -30l-15 -46c63 -1 115 -33 115 -99c0 -63 -57 -106 -125 -106c-51 0 -89 20 -89 56c0 16 14 36 35 36c23 0 34 -16 34 -33c0 -10 -4 -18 -12 -25c5 -4 23 -6 31 -6c27 0 66 21 66 67c0 42 -27 68 -72 68c-10 0 -34 -3 -44 -9v23
l19 18l21 56c-167 9 -274 125 -274 301c0 178 121 302 296 302c87 0 141 -21 185 -21l23 5v-182h-38c-7 31 -24 83 -41 114c-20 22 -84 44 -124 44c-123 0 -191 -96 -191 -260c0 -163 71 -263 189 -263c37 0 103 20 123 42c18 30 41 87 48 118h39z" />
    <glyph glyph-name="egrave" unicode="&#xe8;" horiz-adv-x="597" 
d="M556 175l-11 -175h-502v36l86 10v484l-86 10v36h478v-143h-38c-8 29 -23 68 -49 94c-27 9 -61 11 -98 11h-110v-218h60c53 0 71 9 84 25c7 14 15 46 19 68h39v-232h-39c-2 24 -11 59 -19 73c-12 17 -31 25 -84 25h-60v-233c39 -6 71 -7 103 -7c46 0 111 1 138 19
c22 29 43 90 52 117h37zM417 654l-21 -17c-82 60 -132 91 -164 115c-26 19 -34 30 -34 55c0 19 19 39 42 39c25 0 39 -13 62 -43c27 -36 62 -77 115 -149z" />
    <glyph glyph-name="eacute" unicode="&#xe9;" horiz-adv-x="597" 
d="M556 175l-11 -175h-502v36l86 10v484l-86 10v36h478v-143h-38c-8 29 -23 68 -49 94c-27 9 -61 11 -98 11h-110v-218h60c53 0 71 9 84 25c7 14 15 46 19 68h39v-232h-39c-2 24 -11 59 -19 73c-12 17 -31 25 -84 25h-60v-233c39 -6 71 -7 103 -7c46 0 111 1 138 19
c22 29 43 90 52 117h37zM418 807c0 -25 -9 -35 -34 -55c-33 -27 -78 -53 -164 -115l-21 17c54 72 87 113 115 149c24 31 37 43 62 43c23 0 42 -20 42 -39z" />
    <glyph glyph-name="ecircumflex" unicode="&#xea;" horiz-adv-x="597" 
d="M556 175l-11 -175h-502v36l86 10v484l-86 10v36h478v-143h-38c-8 29 -23 68 -49 94c-27 9 -61 11 -98 11h-110v-218h60c53 0 71 9 84 25c7 14 15 46 19 68h39v-232h-39c-2 24 -11 59 -19 73c-12 17 -31 25 -84 25h-60v-233c39 -6 71 -7 103 -7c46 0 111 1 138 19
c22 29 43 90 52 117h37zM469 660l-27 -16l-140 131l-138 -131l-27 16l123 169c11 15 17 22 44 22s32 -7 41 -20z" />
    <glyph glyph-name="edieresis" unicode="&#xeb;" horiz-adv-x="597" 
d="M556 175l-11 -175h-502v36l86 10v484l-86 10v36h478v-143h-38c-8 29 -23 68 -49 94c-27 9 -61 11 -98 11h-110v-218h60c53 0 71 9 84 25c7 14 15 46 19 68h39v-232h-39c-2 24 -11 59 -19 73c-12 17 -31 25 -84 25h-60v-233c39 -6 71 -7 103 -7c46 0 111 1 138 19
c22 29 43 90 52 117h37zM472 742c0 -33 -26 -60 -58 -60s-58 27 -58 60s26 60 58 60s58 -27 58 -60zM250 742c0 -33 -26 -60 -58 -60s-58 27 -58 60s26 60 58 60s58 -27 58 -60z" />
    <glyph glyph-name="igrave" unicode="&#xec;" horiz-adv-x="355" 
d="M288 654l-21 -17c-82 60 -132 91 -164 115c-26 19 -34 30 -34 55c0 19 19 39 42 39c25 0 39 -13 62 -43c27 -36 62 -77 115 -149zM314 0h-273v36l88 11v483l-88 10v36h273v-36l-88 -10v-484l88 -10v-36z" />
    <glyph glyph-name="iacute" unicode="&#xed;" horiz-adv-x="355" 
d="M288 807c0 -25 -9 -35 -34 -55c-33 -27 -78 -53 -164 -115l-21 17c54 72 87 113 115 149c24 31 37 43 62 43c23 0 42 -20 42 -39zM314 0h-273v36l88 11v483l-88 10v36h273v-36l-88 -10v-484l88 -10v-36z" />
    <glyph glyph-name="icircumflex" unicode="&#xee;" horiz-adv-x="355" 
d="M336 660l-27 -16l-132 131l-130 -131l-27 16l115 169c11 16 17 22 44 22s32 -7 41 -20zM314 0h-273v36l88 11v483l-88 10v36h273v-36l-88 -10v-484l88 -10v-36z" />
    <glyph glyph-name="idieresis" unicode="&#xef;" horiz-adv-x="355" 
d="M339 742c0 -33 -26 -60 -58 -60s-58 27 -58 60s26 60 58 60s58 -27 58 -60zM133 742c0 -33 -26 -60 -58 -60s-58 27 -58 60s26 60 58 60s58 -27 58 -60zM314 0h-273v36l88 11v483l-88 10v36h273v-36l-88 -10v-484l88 -10v-36z" />
    <glyph glyph-name="eth" unicode="&#xf0;" horiz-adv-x="667" 
d="M629 286c0 -197 -153 -286 -316 -286h-270v36l86 10v232h-84v46h84v206l-86 10v36h285c121 0 301 -59 301 -290zM520 286c0 152 -81 252 -218 252c-18 0 -58 -1 -76 -2v-212h138v-46h-138v-228c26 -6 48 -12 88 -12c146 0 206 96 206 248z" />
    <glyph glyph-name="ntilde" unicode="&#xf1;" horiz-adv-x="704" 
d="M670 540l-85 -20v-524h-58l-350 470v-410l94 -20v-36h-228v36l86 20v474l-95 10v36h177l325 -437v381l-94 20v36h228v-36zM559 813c-13 -46 -60 -122 -127 -122c-76 0 -107 50 -157 50c-36 0 -45 -23 -69 -66l-31 12c15 44 60 122 124 122c71 0 109 -50 152 -50
c52 0 57 25 76 66z" />
    <glyph glyph-name="ograve" unicode="&#xf2;" horiz-adv-x="653" 
d="M615 289c0 -145 -82 -303 -289 -303c-188 0 -288 126 -288 303c0 167 105 301 289 301c200 0 288 -138 288 -301zM505 289c0 153 -46 260 -179 260c-136 0 -178 -129 -178 -260c0 -150 44 -263 178 -263c129 0 179 119 179 263zM445 654l-21 -17c-82 60 -132 91 -164 115
c-26 19 -34 30 -34 55c0 19 19 39 42 39c25 0 39 -13 62 -43c27 -36 62 -77 115 -149z" />
    <glyph glyph-name="oacute" unicode="&#xf3;" horiz-adv-x="653" 
d="M615 289c0 -145 -82 -303 -289 -303c-188 0 -288 126 -288 303c0 167 105 301 289 301c200 0 288 -138 288 -301zM505 289c0 153 -46 260 -179 260c-136 0 -178 -129 -178 -260c0 -150 44 -263 178 -263c129 0 179 119 179 263zM427 807c0 -25 -9 -35 -34 -55
c-33 -27 -78 -53 -164 -115l-21 17c54 72 87 113 115 149c24 31 37 43 62 43c23 0 42 -20 42 -39z" />
    <glyph glyph-name="ocircumflex" unicode="&#xf4;" horiz-adv-x="653" 
d="M615 289c0 -145 -82 -303 -289 -303c-188 0 -288 126 -288 303c0 167 105 301 289 301c200 0 288 -138 288 -301zM505 289c0 153 -46 260 -179 260c-136 0 -178 -129 -178 -260c0 -150 44 -263 178 -263c129 0 179 119 179 263zM493 655l-27 -16l-140 131l-138 -131
l-27 16l123 169c11 15 17 22 44 22s32 -7 41 -20z" />
    <glyph glyph-name="otilde" unicode="&#xf5;" horiz-adv-x="653" 
d="M615 289c0 -145 -82 -303 -289 -303c-188 0 -288 126 -288 303c0 167 105 301 289 301c200 0 288 -138 288 -301zM505 289c0 153 -46 260 -179 260c-136 0 -178 -129 -178 -260c0 -150 44 -263 178 -263c129 0 179 119 179 263zM521 813c-13 -46 -60 -122 -127 -122
c-76 0 -107 50 -157 50c-36 0 -45 -23 -69 -66l-31 12c15 44 60 122 124 122c71 0 109 -50 152 -50c52 0 57 25 76 66z" />
    <glyph glyph-name="odieresis" unicode="&#xf6;" horiz-adv-x="653" 
d="M615 289c0 -145 -82 -303 -289 -303c-188 0 -288 126 -288 303c0 167 105 301 289 301c200 0 288 -138 288 -301zM505 289c0 153 -46 260 -179 260c-136 0 -178 -129 -178 -260c0 -150 44 -263 178 -263c129 0 179 119 179 263zM496 742c0 -33 -26 -60 -58 -60
s-58 27 -58 60s26 60 58 60s58 -27 58 -60zM274 742c0 -33 -26 -60 -58 -60s-58 27 -58 60s26 60 58 60s58 -27 58 -60z" />
    <glyph glyph-name="divide" unicode="&#xf7;" 
d="M388 469c0 -36 -31 -65 -66 -65c-36 0 -66 29 -66 65c0 35 30 65 66 65c35 0 66 -30 66 -65zM573 237h-503v63h503v-63zM388 67c0 -36 -31 -64 -66 -64c-36 0 -66 28 -66 64c0 35 30 66 66 66c35 0 66 -31 66 -66z" />
    <glyph glyph-name="oslash" unicode="&#xf8;" horiz-adv-x="653" 
d="M615 289c0 -145 -82 -303 -289 -303c-73 0 -133 20 -179 55l-73 -90l-33 28l76 88c-52 54 -79 131 -79 222c0 167 105 301 289 301c75 0 135 -20 179 -54l69 85l33 -28l-71 -84c53 -55 78 -134 78 -220zM463 484c-29 41 -73 65 -137 65c-136 0 -181 -129 -181 -260
c0 -60 6 -118 24 -162zM508 289c0 60 -6 118 -24 160l-294 -356c29 -42 72 -67 136 -67c129 0 182 119 182 263z" />
    <glyph glyph-name="ugrave" unicode="&#xf9;" horiz-adv-x="676" 
d="M652 540l-86 -20v-351c0 -138 -132 -183 -222 -183c-149 0 -228 75 -228 166v378l-83 10v36h263v-36l-82 -10v-345c0 -59 17 -147 146 -147c128 0 157 89 157 145v337l-94 20v36h229v-36zM447 654l-21 -17c-82 60 -132 91 -164 115c-26 19 -34 30 -34 55
c0 19 19 39 42 39c25 0 39 -13 62 -43c27 -36 62 -77 115 -149z" />
    <glyph glyph-name="uacute" unicode="&#xfa;" horiz-adv-x="676" 
d="M652 540l-86 -20v-351c0 -138 -132 -183 -222 -183c-149 0 -228 75 -228 166v378l-83 10v36h263v-36l-82 -10v-345c0 -59 17 -147 146 -147c128 0 157 89 157 145v337l-94 20v36h229v-36zM457 807c0 -25 -9 -35 -34 -55c-33 -27 -78 -53 -164 -115l-21 17
c54 72 87 113 115 149c24 31 37 43 62 43c23 0 42 -20 42 -39z" />
    <glyph glyph-name="ucircumflex" unicode="&#xfb;" horiz-adv-x="676" 
d="M652 540l-86 -20v-351c0 -138 -132 -183 -222 -183c-149 0 -228 75 -228 166v378l-83 10v36h263v-36l-82 -10v-345c0 -59 17 -147 146 -147c128 0 157 89 157 145v337l-94 20v36h229v-36zM509 660l-27 -16l-140 131l-138 -131l-27 16l123 169c11 15 17 22 44 22
s32 -7 41 -20z" />
    <glyph glyph-name="udieresis" unicode="&#xfc;" horiz-adv-x="676" 
d="M652 540l-86 -20v-351c0 -138 -132 -183 -222 -183c-149 0 -228 75 -228 166v378l-83 10v36h263v-36l-82 -10v-345c0 -59 17 -147 146 -147c128 0 157 89 157 145v337l-94 20v36h229v-36zM517 742c0 -33 -26 -60 -58 -60s-58 27 -58 60s26 60 58 60s58 -27 58 -60z
M295 742c0 -33 -26 -60 -58 -60s-58 27 -58 60s26 60 58 60s58 -27 58 -60z" />
    <glyph glyph-name="yacute" unicode="&#xfd;" horiz-adv-x="557" 
d="M572 540c-32 -3 -72 -9 -105 -66l-141 -238v-190l88 -10v-36h-273v36l88 10v184l-171 301l-71 9v36h262v-36l-83 -10l140 -242c70 116 89 153 125 227v3l-89 22v36h230v-36zM419 807c0 -25 -9 -35 -34 -55c-33 -27 -78 -53 -164 -115l-21 17c54 72 87 113 115 149
c24 31 37 43 62 43c23 0 42 -20 42 -39z" />
    <glyph glyph-name="thorn" unicode="&#xfe;" horiz-adv-x="558" 
d="M524 315c0 -120 -91 -190 -208 -190c-42 0 -90 10 -90 10v-89l83 -10v-36h-266v36l86 10v484l-86 10v36h266v-36l-83 -10v-63h73c127 0 225 -44 225 -152zM417 302c0 64 -26 125 -137 125h-54v-251s29 -8 65 -8c108 0 126 87 126 134z" />
    <glyph glyph-name="ydieresis" unicode="&#xff;" horiz-adv-x="557" 
d="M572 540c-32 -3 -72 -9 -105 -66l-141 -238v-190l88 -10v-36h-273v36l88 10v184l-171 301l-71 9v36h262v-36l-83 -10l140 -242c70 116 89 153 125 227v3l-89 22v36h230v-36zM458 742c0 -33 -26 -60 -58 -60s-58 27 -58 60s26 60 58 60s58 -27 58 -60zM236 742
c0 -33 -26 -60 -58 -60s-58 27 -58 60s26 60 58 60s58 -27 58 -60z" />
    <glyph glyph-name="NUL" horiz-adv-x="0" 
 />
    <glyph glyph-name="Lslash" unicode="&#x141;" horiz-adv-x="587" 
d="M577 210l-13 -210h-523v37l93 11v255l-81 -33l-17 42l98 41v277l-93 11v37h290v-37l-95 -11v-238l135 56l17 -43l-152 -62v-296c35 -6 78 -7 113 -7c51 0 101 3 129 22c24 34 52 116 62 148h37z" />
    <glyph glyph-name="lslash" unicode="&#x142;" horiz-adv-x="548" 
d="M533 196l-11 -196h-479v36l86 10v207l-73 -29l-16 41l89 35v230l-86 10v36h271v-36l-88 -10v-193l127 51l15 -42l-142 -55v-246c32 -5 69 -6 100 -6c46 0 86 3 111 19c22 29 49 111 58 138h38z" />
    <glyph glyph-name="HT" horiz-adv-x="0" 
 />
    <glyph glyph-name="CR" horiz-adv-x="0" 
 />
    <glyph glyph-name="onehalf" unicode="&#xbd;" horiz-adv-x="895" 
d="M726 685l-538 -685h-69l536 685h71zM825 112l-21 -112h-282v46c126 79 204 132 204 208c0 41 -22 75 -75 75c-51 0 -79 -32 -79 -67c0 -12 0 -19 3 -37l-34 -9c-6 22 -11 40 -11 57c0 65 56 114 133 114c82 0 139 -45 139 -118c0 -87 -81 -137 -196 -207h165l22 50h32z
M320 315h-227v31l79 8v282l-81 -39l-13 31l135 68h35c-1 -29 -3 -55 -3 -90v-253l75 -6v-32z" />
    <glyph glyph-name="onequarter" unicode="&#xbc;" horiz-adv-x="815" 
d="M736 685l-538 -685h-69l536 685h71zM320 315h-227v31l79 8v282l-81 -39l-13 31l135 68h35c-1 -29 -3 -55 -3 -90v-253l75 -6v-32zM758 85h-65v-109h-71v109h-190v51l210 240h51v-245h65v-46zM622 131v166l-144 -166h144z" />
    <glyph glyph-name="threequarters" unicode="&#xbe;" horiz-adv-x="875" 
d="M384 420c0 -77 -78 -141 -177 -141c-72 0 -125 35 -125 78c0 20 18 42 44 42c29 0 41 -16 41 -32c0 -15 -2 -25 -16 -35c8 -7 29 -19 64 -19c49 0 94 28 94 93c0 33 -22 66 -73 66c-12 0 -26 -3 -46 -12l-14 31c81 22 119 49 119 99c0 31 -22 55 -68 55
c-47 0 -76 -28 -76 -60v-24l-29 -5c-8 18 -10 25 -10 42c0 54 57 98 127 98c71 0 129 -34 129 -87c0 -46 -36 -73 -68 -91c33 -9 84 -36 84 -98zM793 685l-538 -685h-69l536 685h71zM818 85h-65v-109h-71v109h-190v51l210 240h51v-245h65v-46zM682 131v166l-144 -166h144z
" />
    <glyph glyph-name="brokenbar" unicode="&#xa6;" horiz-adv-x="322" 
d="M193 368h-64v358h64v-358zM193 -168h-64v368h64v-368z" />
    <glyph glyph-name="minus" unicode="&#x2212;" 
d="M565 236h-487v64h487v-64z" />
    <glyph glyph-name="dagger" unicode="&#x2020;" horiz-adv-x="492" 
d="M451 522c0 -25 -55 -41 -80 -41c-19 0 -49 20 -111 30c12 -194 28 -350 28 -371c0 -23 -15 -86 -41 -86c-25 0 -42 63 -42 86c0 21 16 177 27 371c-61 -8 -92 -30 -111 -30c-25 0 -80 16 -80 41c0 29 55 42 80 42c19 0 50 -23 111 -31c-6 59 -28 105 -28 125
c0 24 17 79 42 79c29 0 43 -55 43 -79c0 -20 -23 -67 -29 -125c61 8 92 31 111 31c25 0 80 -13 80 -42z" />
    <glyph glyph-name="bullet" unicode="&#x2022;" horiz-adv-x="419" 
d="M351 272c0 -78 -63 -141 -142 -141c-78 0 -142 63 -142 141c0 79 64 142 142 142c79 0 142 -63 142 -142z" />
    <glyph glyph-name="trademark" unicode="&#x2122;" horiz-adv-x="900" 
d="M862 343h-168v27l52 7v277l-115 -311h-27l-107 311v-273l50 -11v-27h-137v27l52 11v263l-52 5v29h145l80 -237l82 237h145v-29l-52 -5v-267l52 -6v-28zM371 569h-30c-5 20 -15 60 -29 74c-15 5 -33 6 -52 6h-15v-272l54 -6v-28h-172v27l54 7v272h-15c-19 0 -37 -1 -53 -6
c-14 -14 -22 -55 -28 -74h-30v109h316v-109z" />
    <glyph glyph-name="acute" unicode="&#xb4;" horiz-adv-x="500" 
d="M350 698c0 -25 -9 -35 -34 -55c-33 -27 -78 -53 -164 -115l-21 17c54 72 87 113 115 149c24 31 37 43 62 43c23 0 42 -20 42 -39z" />
    <glyph glyph-name="dieresis" unicode="&#xa8;" horiz-adv-x="500" 
d="M419 661c0 -33 -26 -60 -58 -60s-58 27 -58 60s26 60 58 60s58 -27 58 -60zM197 661c0 -33 -26 -60 -58 -60s-58 27 -58 60s26 60 58 60s58 -27 58 -60z" />
    <glyph glyph-name="mu" unicode="&#x3bc;" horiz-adv-x="576" 
d="M563 9c-26 -9 -55 -18 -80 -18c-51 0 -86 25 -95 75h-3c-37 -40 -68 -76 -153 -76c-39 0 -76 17 -93 39h-3v-48c0 -65 26 -121 26 -168c0 -32 -24 -50 -48 -50c-26 0 -45 19 -45 49c0 37 16 114 21 147c4 33 5 64 5 87v422h93v-317c0 -69 34 -106 80 -106
c73 0 107 47 119 68v355h93v-369c0 -28 8 -43 27 -53c12 -6 38 -5 56 -5v-32z" />
    <glyph glyph-name="florin" unicode="&#x192;" horiz-adv-x="440" 
d="M445 655c0 -25 -11 -58 -50 -58c-34 0 -54 21 -54 46c0 8 2 23 11 35c-65 -8 -91 -71 -108 -201l-7 -55h133l-8 -47h-133c-12 -90 -25 -172 -49 -298c-16 -85 -39 -148 -62 -179c-20 -27 -72 -71 -130 -71c-56 0 -95 28 -95 64c0 25 12 54 49 54c35 0 51 -22 51 -44
c0 -8 -3 -28 -11 -40c81 0 92 67 112 205c19 129 28 194 45 309h-82l5 32l85 22l6 38c24 153 105 245 213 245c55 0 79 -26 79 -57z" />
    <glyph glyph-name="ellipsis" unicode="&#x2026;" horiz-adv-x="711" 
d="M670 56c0 -38 -32 -70 -69 -70c-38 0 -68 32 -68 70s30 68 68 68s69 -30 69 -68zM433 56c0 -38 -32 -70 -69 -70c-38 0 -68 32 -68 70s30 68 68 68s69 -30 69 -68zM196 56c0 -38 -32 -70 -69 -70c-38 0 -68 32 -68 70s30 68 68 68s69 -30 69 -68z" />
    <glyph glyph-name="endash" unicode="&#x2013;" horiz-adv-x="609" 
d="M544 272h-479v69h479v-69z" />
    <glyph glyph-name="emdash" unicode="&#x2014;" horiz-adv-x="910" 
d="M846 272h-781v69h781v-69z" />
    <glyph glyph-name="quotedblleft" unicode="&#x201c;" horiz-adv-x="443" 
d="M403 496c0 -34 -30 -63 -66 -63c-61 0 -99 49 -99 125c0 82 77 154 153 172l9 -31c-70 -21 -110 -69 -110 -118c0 -23 4 -45 16 -61c10 14 25 29 43 29c25 0 54 -12 54 -53zM202 496c0 -34 -29 -63 -66 -63c-60 0 -99 49 -99 125c0 82 77 154 153 172l10 -31
c-70 -21 -111 -69 -111 -118c0 -23 4 -45 17 -61c9 14 24 29 43 29c25 0 53 -12 53 -53z" />
    <glyph glyph-name="quotedblright" unicode="&#x201d;" horiz-adv-x="443" 
d="M406 605c0 -81 -77 -153 -153 -171l-10 31c70 20 111 69 111 118c0 22 -4 45 -17 61c-9 -15 -25 -29 -43 -29c-25 0 -54 12 -54 53c0 34 30 63 67 63c60 0 99 -49 99 -126zM205 605c0 -81 -77 -153 -153 -171l-9 31c70 20 110 69 110 118c0 22 -4 45 -16 61
c-10 -15 -25 -29 -43 -29c-25 0 -54 12 -54 53c0 34 30 63 66 63c61 0 99 -49 99 -126z" />
    <glyph glyph-name="quoteleft" unicode="&#x2018;" horiz-adv-x="242" 
d="M202 496c0 -34 -29 -63 -66 -63c-60 0 -99 49 -99 125c0 82 77 154 153 172l9 -31c-70 -21 -110 -69 -110 -118c0 -23 4 -45 16 -61c10 14 25 29 44 29c25 0 53 -12 53 -53z" />
    <glyph glyph-name="quoteright" unicode="&#x2019;" horiz-adv-x="242" 
d="M205 605c0 -81 -77 -153 -153 -171l-9 31c70 20 110 69 110 118c0 22 -4 45 -16 61c-10 -15 -25 -29 -44 -29c-25 0 -53 12 -53 53c0 34 29 63 66 63c60 0 99 -49 99 -126z" />
    <glyph glyph-name="fraction" unicode="&#x2044;" horiz-adv-x="144" 
d="M316 707l-438 -831h-61l437 831h62z" />
    <glyph glyph-name="currency" unicode="&#xa4;" horiz-adv-x="607" 
d="M554 500c0 -31 -24 -60 -61 -60c-39 0 -56 24 -56 49s12 43 28 53c-5 17 -41 42 -98 42c-93 0 -154 -83 -171 -209h237v-43h-243v-32c0 -18 0 -30 1 -46h202v-43h-196c19 -100 80 -157 168 -157c103 0 144 34 179 57v-35c-58 -56 -113 -89 -197 -89
c-132 0 -219 77 -243 224h-63v43h61c-1 16 -1 27 -1 44c0 6 0 24 1 34h-61v43h64c27 147 125 248 266 248c101 0 183 -48 183 -123z" />
    <glyph glyph-name="guilsinglleft" unicode="&#x2039;" horiz-adv-x="402" 
d="M310 105l-29 -20l-179 172c-8 8 -22 16 -22 38c0 21 14 34 23 42l178 170l29 -21l-134 -191z" />
    <glyph glyph-name="guilsinglright" unicode="&#x203a;" horiz-adv-x="402" 
d="M322 295c0 -22 -14 -30 -22 -38l-179 -172l-29 20l134 190l-134 191l29 21l178 -170c9 -8 23 -21 23 -42z" />
    <glyph glyph-name="fi" unicode="&#xfb01;" horiz-adv-x="903" 
d="M862 0h-273v36l88 11v483l-88 10v36h273v-36l-88 -10v-484l88 -10v-36zM525 428h-40c-8 29 -21 73 -47 99c-27 9 -61 11 -98 11h-114v-223h63c53 0 71 8 83 24c8 15 16 47 19 68h41v-233h-41c-2 25 -11 61 -19 74c-11 17 -30 26 -83 26h-63v-228l88 -10v-36h-271v36
l86 10v484l-86 10v36h482v-148z" />
    <glyph glyph-name="fl" unicode="&#xfb02;" horiz-adv-x="1096" 
d="M1081 186l-11 -186h-479v36l86 10v484l-86 10v36h271v-36l-88 -10v-485c32 -5 69 -6 100 -6c46 0 88 3 113 19c22 29 47 101 56 128h38zM525 428h-40c-8 29 -21 73 -47 99c-27 9 -61 11 -98 11h-114v-223h63c53 0 71 8 83 24c8 15 16 47 19 68h41v-233h-41
c-2 25 -11 61 -19 74c-11 17 -30 26 -83 26h-63v-228l88 -10v-36h-271v36l86 10v484l-86 10v36h482v-148z" />
    <glyph glyph-name="daggerdbl" unicode="&#x2021;" horiz-adv-x="492" 
d="M448 259c0 -29 -55 -42 -79 -42c-20 0 -48 23 -109 31c6 -59 29 -101 29 -121c0 -24 -14 -79 -43 -79c-25 0 -42 55 -42 79c0 20 22 61 28 121c-61 -8 -89 -31 -109 -31c-24 0 -79 13 -79 42c0 25 55 40 79 40c20 0 48 -22 109 -29c-3 38 -16 95 -16 123s13 83 16 122
c-61 -7 -89 -29 -109 -29c-24 0 -79 15 -79 40c0 29 55 42 79 42c20 0 48 -23 109 -31c-6 60 -28 101 -28 121c0 24 17 79 42 79c29 0 43 -55 43 -79c0 -20 -23 -62 -29 -121c61 8 89 31 109 31c24 0 79 -13 79 -42c0 -25 -55 -40 -79 -40c-20 0 -47 20 -109 29
c2 -39 16 -94 16 -123c0 -26 -14 -84 -16 -122c62 10 89 29 109 29c24 0 79 -15 79 -40z" />
    <glyph glyph-name="quotesinglbase" unicode="&#x201a;" horiz-adv-x="242" 
d="M205 0c0 -81 -77 -153 -153 -171l-9 31c70 20 110 69 110 118c0 22 -4 45 -16 61c-10 -15 -25 -29 -44 -29c-25 0 -53 12 -53 53c0 34 29 63 66 63c60 0 99 -49 99 -126z" />
    <glyph glyph-name="quotedblbase" unicode="&#x201e;" horiz-adv-x="443" 
d="M406 0c0 -81 -77 -153 -153 -171l-10 31c70 20 111 69 111 118c0 22 -4 45 -17 61c-9 -15 -25 -29 -43 -29c-25 0 -54 12 -54 53c0 34 30 63 67 63c60 0 99 -49 99 -126zM205 0c0 -81 -77 -153 -153 -171l-9 31c70 20 110 69 110 118c0 22 -4 45 -16 61
c-10 -15 -25 -29 -43 -29c-25 0 -54 12 -54 53c0 34 30 63 66 63c61 0 99 -49 99 -126z" />
    <glyph glyph-name="perthousand" unicode="&#x2030;" horiz-adv-x="1193" 
d="M385 519c0 -115 -68 -181 -166 -181c-110 0 -166 79 -166 181c0 96 55 180 166 180c114 0 166 -86 166 -180zM718 685l-538 -685h-69l536 685h71zM1151 165c0 -115 -68 -181 -166 -181c-110 0 -166 79 -166 181c0 96 55 180 166 180c114 0 166 -86 166 -180zM773 165
c0 -115 -68 -181 -166 -181c-110 0 -166 79 -166 181c0 96 55 180 166 180c114 0 166 -86 166 -180zM301 519c0 90 -23 144 -82 144c-58 0 -82 -53 -82 -144c0 -89 21 -145 82 -145c55 0 82 49 82 145zM1067 165c0 90 -23 144 -82 144c-58 0 -82 -53 -82 -144
c0 -89 21 -145 82 -145c55 0 82 49 82 145zM689 165c0 90 -23 144 -82 144c-58 0 -82 -53 -82 -144c0 -89 21 -145 82 -145c55 0 82 49 82 145z" />
    <glyph glyph-name="dotlessi" unicode="&#x131;" horiz-adv-x="355" 
d="M314 0h-273v36l88 11v483l-88 10v36h273v-36l-88 -10v-484l88 -10v-36z" />
    <glyph glyph-name="circumflex" unicode="&#x2c6;" horiz-adv-x="500" 
d="M416 546l-27 -16l-140 131l-138 -131l-27 16l123 169c11 15 17 22 44 22s32 -7 41 -20z" />
    <glyph glyph-name="tilde" unicode="&#x2dc;" horiz-adv-x="500" 
d="M444 714c-13 -46 -60 -122 -127 -122c-76 0 -107 50 -157 50c-36 0 -45 -23 -69 -66l-31 12c15 44 60 122 124 122c71 0 109 -50 152 -50c52 0 57 25 76 66z" />
    <glyph glyph-name="breve" unicode="&#x2d8;" horiz-adv-x="500" 
d="M403 730c-17 -117 -63 -181 -153 -181s-137 65 -153 181l30 7c20 -62 41 -113 123 -113c80 0 102 48 123 113z" />
    <glyph glyph-name="dotaccent" unicode="&#x2d9;" horiz-adv-x="500" 
d="M311 665c0 -34 -28 -61 -62 -61s-60 27 -60 61s26 61 60 61s62 -27 62 -61z" />
    <glyph glyph-name="ring" unicode="&#x2da;" horiz-adv-x="500" 
d="M381 641c0 -65 -53 -112 -131 -112c-79 0 -131 45 -131 112c0 65 59 111 131 111c74 0 131 -44 131 -111zM317 641c0 45 -24 79 -67 79c-42 0 -67 -31 -67 -79c0 -46 24 -80 67 -80s67 33 67 80z" />
    <glyph glyph-name="cedilla" unicode="&#xb8;" horiz-adv-x="500" 
d="M359 -159c0 -63 -57 -106 -125 -106c-51 0 -89 20 -89 56c0 16 14 36 35 36c23 0 34 -16 34 -33c0 -10 -4 -18 -12 -25c5 -4 23 -6 31 -6c27 0 66 21 66 67c0 42 -27 68 -72 68c-10 0 -34 -3 -44 -9v23l19 18l29 78h36l-23 -68c63 -1 115 -33 115 -99z" />
    <glyph glyph-name="hungarumlaut" unicode="&#x2dd;" horiz-adv-x="500" 
d="M455 699c0 -25 -9 -36 -31 -55c-27 -25 -61 -52 -136 -116l-17 14c46 74 69 113 89 150c19 33 31 45 55 45c23 0 40 -19 40 -38zM268 698c0 -24 -9 -35 -29 -54c-28 -25 -57 -52 -130 -116l-18 14c45 74 64 112 83 150c17 33 30 45 54 45c22 0 40 -20 40 -39z" />
    <glyph glyph-name="ogonek" unicode="&#x2db;" horiz-adv-x="500" 
d="M351 -192c-30 -15 -58 -30 -92 -30c-66 0 -112 38 -112 101c0 53 41 102 126 149h31c-65 -51 -73 -95 -73 -128c0 -41 20 -73 73 -73c16 0 30 4 47 11v-30z" />
    <glyph glyph-name="caron" unicode="&#x2c7;" horiz-adv-x="500" 
d="M416 721l-124 -171c-9 -12 -14 -20 -41 -20s-33 7 -44 22l-123 169l27 16l138 -131l140 131z" />
    </font>
</defs>
</svg>
