<?xml version="1.0" standalone="no"?>
<!-- Licensee: John Maeda (#24804) - http://vllg.com -->
<!DOCTYPE svg PUBLIC "-//W3C//DTD SVG 1.1//EN" "http://www.w3.org/Graphics/SVG/1.1/DTD/svg11.dtd" ><svg version="1.1" xmlns="http://www.w3.org/2000/svg"><defs><font horiz-adv-x="0" id="font"><font-face ascent="800" bbox="-140 -256 1361 1050" cap-height="780" descent="-200" font-family="Polaris Condensed Book" font-stretch="normal" font-style="normal" font-weight="640" units-per-em="1000" x-height="530" /><missing-glyph d="M808 115V665L533 390ZM168 665V115L443 390ZM488 435 767 714H209ZM209 66H767L488 345ZM98 780H878V0H98Z" horiz-adv-x="976" /><glyph d="M139 227H342L241 730ZM290 789 455 0H388L354 169H128L94 0H27L191 789Z" glyph-name="A" horiz-adv-x="482" unicode="A" /><glyph d="M166 226H368L328 718ZM659 780V721H389L415 430H626V371H420L448 59H677V0H387L373 170H148L92 0H23L286 780Z" glyph-name="AE" horiz-adv-x="715" unicode="&#198;" /><glyph d="M330 1030 270 822H209L259 1030ZM139 227H342L241 730ZM290 789 455 0H388L354 169H128L94 0H27L191 789Z" glyph-name="Aacute" horiz-adv-x="482" unicode="&#193;" /><glyph d="M241 827Q197 827 170 841.5Q143 856 128 882.5Q113 909 108.5 946.5Q104 984 104 1030H155Q154 957 170.5 919.5Q187 882 241 882Q295 882 311.5 919.5Q328 957 327 1030H378Q378 984 373.5 946.5Q369 909 354 882.5Q339 856 312 841.5Q285 827 241 827ZM139 227H342L241 730ZM290 789 455 0H388L354 169H128L94 0H27L191 789Z" glyph-name="Abreve" horiz-adv-x="482" unicode="&#258;" /><glyph d="M103 822 204 1030H278L379 822H326L241 981L156 822ZM139 227H342L241 730ZM290 789 455 0H388L354 169H128L94 0H27L191 789Z" glyph-name="Acircumflex" horiz-adv-x="482" unicode="&#194;" /><glyph d="M361 900H285V976H361ZM197 900H121V976H197ZM139 227H342L241 730ZM290 789 455 0H388L354 169H128L94 0H27L191 789Z" glyph-name="Adieresis" horiz-adv-x="482" unicode="&#196;" /><glyph d="M223 1030 273 822H212L152 1030ZM139 227H342L241 730ZM290 789 455 0H388L354 169H128L94 0H27L191 789Z" glyph-name="Agrave" horiz-adv-x="482" unicode="&#192;" /><glyph d="M139 969H343V910H139ZM139 227H342L241 730ZM290 789 455 0H388L354 169H128L94 0H27L191 789Z" glyph-name="Amacron" horiz-adv-x="482" unicode="&#256;" /><glyph d="M139 227H342L241 730ZM290 789 455 0Q415 -11 389 -37.5Q363 -64 364 -107Q364 -138 381 -151Q398 -164 420 -162Q441 -161 455 -154Q469 -147 477 -141L492 -187Q476 -198 456 -204.5Q436 -211 410 -211Q393 -211 376 -206.5Q359 -202 345 -191.5Q331 -181 322 -164Q313 -147 312 -122Q308 -78 327.5 -45Q347 -12 385 11L354 169H128L94 0H27L191 789Z" glyph-name="Aogonek" horiz-adv-x="482" unicode="&#260;" /><glyph d="M312 926Q312 961 294 980.5Q276 1000 241 1000Q206 1000 188 980.5Q170 961 170 926Q170 891 188 871.5Q206 852 241 852Q276 852 294 871.5Q312 891 312 926ZM126 926Q126 977 156 1009Q186 1041 241 1041Q296 1041 326 1009Q356 977 356 926Q356 875 326 843Q296 811 241 811Q186 811 156 843Q126 875 126 926ZM139 227H342L241 730ZM290 789 455 0H388L354 169H128L94 0H27L191 789Z" glyph-name="Aring" horiz-adv-x="482" unicode="&#197;" /><glyph d="M393 973Q389 922 368.5 891.5Q348 861 309 862Q286 862 268 873.5Q250 885 234.5 898.5Q219 912 204.5 923.5Q190 935 174 936Q151 937 143.5 919.5Q136 902 134 875L86 882Q89 933 109.5 963.5Q130 994 169 993Q193 992 211 980.5Q229 969 244 955.5Q259 942 273.5 931Q288 920 304 919Q327 917 335 935Q343 953 345 980ZM139 227H342L241 730ZM290 789 455 0H388L354 169H128L94 0H27L191 789Z" glyph-name="Atilde" horiz-adv-x="482" unicode="&#195;" /><glyph d="M125 721V430H280Q325 430 351 465.5Q377 501 377 579Q377 622 371 649.5Q365 677 352.5 693Q340 709 321.5 715Q303 721 278 721ZM280 59Q306 59 327 65Q348 71 363 87Q378 103 386 132Q394 161 394 207Q394 258 385 290Q376 322 361 340Q346 358 326 364Q306 370 284 370H125V59ZM59 0V780H289Q328 780 357 771Q386 762 405.5 739Q425 716 435 677.5Q445 639 445 581Q445 538 437.5 507.5Q430 477 418 456.5Q406 436 391.5 423.5Q377 411 362 405Q379 400 396.5 389.5Q414 379 428.5 356.5Q443 334 452 297.5Q461 261 461 206Q461 146 450 106.5Q439 67 418 43Q397 19 366 9.5Q335 0 295 0Z" glyph-name="B" horiz-adv-x="506" unicode="B" /><glyph d="M114 390Q114 300 119 235Q124 170 140 129Q156 88 184.5 68.5Q213 49 260 49Q298 49 321.5 58Q345 67 358.5 87Q372 107 377 138Q382 169 382 213L448 203Q448 150 440 110.5Q432 71 411 44Q390 17 354 3.5Q318 -10 261 -10Q199 -10 158.5 10.5Q118 31 93 78.5Q68 126 58 202.5Q48 279 48 390Q48 501 58 577.5Q68 654 93 701.5Q118 749 158.5 769.5Q199 790 261 790Q318 790 354 776.5Q390 763 411 736Q432 709 440 669Q448 629 448 577L382 567Q382 611 377 642Q372 673 358.5 693Q345 713 321.5 722Q298 731 260 731Q213 731 184.5 711.5Q156 692 140 651Q124 610 119 545Q114 480 114 390Z" glyph-name="C" horiz-adv-x="486" unicode="C" /><glyph d="M349 1030 289 822H228L278 1030ZM114 390Q114 300 119 235Q124 170 140 129Q156 88 184.5 68.5Q213 49 260 49Q298 49 321.5 58Q345 67 358.5 87Q372 107 377 138Q382 169 382 213L448 203Q448 150 440 110.5Q432 71 411 44Q390 17 354 3.5Q318 -10 261 -10Q199 -10 158.5 10.5Q118 31 93 78.5Q68 126 58 202.5Q48 279 48 390Q48 501 58 577.5Q68 654 93 701.5Q118 749 158.5 769.5Q199 790 261 790Q318 790 354 776.5Q390 763 411 736Q432 709 440 669Q448 629 448 577L382 567Q382 611 377 642Q372 673 358.5 693Q345 713 321.5 722Q298 731 260 731Q213 731 184.5 711.5Q156 692 140 651Q124 610 119 545Q114 480 114 390Z" glyph-name="Cacute" horiz-adv-x="486" unicode="&#262;" /><glyph d="M402 1030 298 822H222L118 1030H172L260 874L348 1030ZM114 390Q114 300 119 235Q124 170 140 129Q156 88 184.5 68.5Q213 49 260 49Q298 49 321.5 58Q345 67 358.5 87Q372 107 377 138Q382 169 382 213L448 203Q448 150 440 110.5Q432 71 411 44Q390 17 354 3.5Q318 -10 261 -10Q199 -10 158.5 10.5Q118 31 93 78.5Q68 126 58 202.5Q48 279 48 390Q48 501 58 577.5Q68 654 93 701.5Q118 749 158.5 769.5Q199 790 261 790Q318 790 354 776.5Q390 763 411 736Q432 709 440 669Q448 629 448 577L382 567Q382 611 377 642Q372 673 358.5 693Q345 713 321.5 722Q298 731 260 731Q213 731 184.5 711.5Q156 692 140 651Q124 610 119 545Q114 480 114 390Z" glyph-name="Ccaron" horiz-adv-x="486" unicode="&#268;" /><glyph d="M114 390Q114 300 119 235Q124 170 140 129Q156 88 184.5 68.5Q213 49 260 49Q298 49 321.5 58Q345 67 358.5 87Q372 107 377 138Q382 169 382 213L448 203Q448 152 440.5 113Q433 74 413.5 47Q394 20 360 5.5Q326 -9 273 -10L265 -40Q316 -48 345 -69.5Q374 -91 372 -129Q371 -173 338 -192Q305 -211 258 -211Q229 -211 204.5 -205Q180 -199 169 -193L182 -154Q189 -158 199 -162Q207 -165 217.5 -167.5Q228 -170 240 -171Q272 -172 293.5 -163Q315 -154 315 -126Q315 -109 305.5 -99Q296 -89 281 -83Q266 -77 247.5 -74Q229 -71 212 -69L233 -8Q180 -4 144.5 19.5Q109 43 87.5 90.5Q66 138 57 211.5Q48 285 48 390Q48 501 58 577.5Q68 654 93 701.5Q118 749 158.5 769.5Q199 790 261 790Q318 790 354 776.5Q390 763 411 736Q432 709 440 669Q448 629 448 577L382 567Q382 611 377 642Q372 673 358.5 693Q345 713 321.5 722Q298 731 260 731Q213 731 184.5 711.5Q156 692 140 651Q124 610 119 545Q114 480 114 390Z" glyph-name="Ccedilla" horiz-adv-x="486" unicode="&#199;" /><glyph d="M122 822 223 1030H297L398 822H345L260 981L175 822ZM114 390Q114 300 119 235Q124 170 140 129Q156 88 184.5 68.5Q213 49 260 49Q298 49 321.5 58Q345 67 358.5 87Q372 107 377 138Q382 169 382 213L448 203Q448 150 440 110.5Q432 71 411 44Q390 17 354 3.5Q318 -10 261 -10Q199 -10 158.5 10.5Q118 31 93 78.5Q68 126 58 202.5Q48 279 48 390Q48 501 58 577.5Q68 654 93 701.5Q118 749 158.5 769.5Q199 790 261 790Q318 790 354 776.5Q390 763 411 736Q432 709 440 669Q448 629 448 577L382 567Q382 611 377 642Q372 673 358.5 693Q345 713 321.5 722Q298 731 260 731Q213 731 184.5 711.5Q156 692 140 651Q124 610 119 545Q114 480 114 390Z" glyph-name="Ccircumflex" horiz-adv-x="486" unicode="&#264;" /><glyph d="M298 900H222V976H298ZM114 390Q114 300 119 235Q124 170 140 129Q156 88 184.5 68.5Q213 49 260 49Q298 49 321.5 58Q345 67 358.5 87Q372 107 377 138Q382 169 382 213L448 203Q448 150 440 110.5Q432 71 411 44Q390 17 354 3.5Q318 -10 261 -10Q199 -10 158.5 10.5Q118 31 93 78.5Q68 126 58 202.5Q48 279 48 390Q48 501 58 577.5Q68 654 93 701.5Q118 749 158.5 769.5Q199 790 261 790Q318 790 354 776.5Q390 763 411 736Q432 709 440 669Q448 629 448 577L382 567Q382 611 377 642Q372 673 358.5 693Q345 713 321.5 722Q298 731 260 731Q213 731 184.5 711.5Q156 692 140 651Q124 610 119 545Q114 480 114 390Z" glyph-name="Cdotaccent" horiz-adv-x="486" unicode="&#266;" /><glyph d="M215 59Q274 59 310 75.5Q346 92 365.5 131Q385 170 391.5 233.5Q398 297 398 390Q398 483 391.5 546.5Q385 610 365.5 649Q346 688 310 704.5Q274 721 215 721H125V59ZM59 0V780H206Q283 780 333 761.5Q383 743 412.5 698.5Q442 654 453.5 579Q465 504 465 390Q465 276 453.5 201Q442 126 412.5 81.5Q383 37 333 18.5Q283 0 206 0Z" glyph-name="D" horiz-adv-x="513" unicode="D" /><glyph d="M372 1030 268 822H192L88 1030H142L230 874L318 1030ZM214 59Q273 59 309 75.5Q345 92 364.5 131Q384 170 390.5 233.5Q397 297 397 390Q397 483 390.5 546.5Q384 610 364.5 649Q345 688 309 704.5Q273 721 214 721H124V59ZM58 0V780H205Q282 780 332 761.5Q382 743 411.5 698.5Q441 654 452.5 579Q464 504 464 390Q464 276 452.5 201Q441 126 411.5 81.5Q382 37 332 18.5Q282 0 205 0Z" glyph-name="Dcaron" horiz-adv-x="512" unicode="&#270;" /><glyph d="M259 59Q318 59 354 75.5Q390 92 409.5 131Q429 170 435.5 233.5Q442 297 442 390Q442 483 435.5 546.5Q429 610 409.5 649Q390 688 354 704.5Q318 721 259 721H169V430H306V371H169V59ZM103 0V371H30V430H103V780H250Q327 780 377 761.5Q427 743 456.5 698.5Q486 654 497.5 579Q509 504 509 390Q509 276 497.5 201Q486 126 456.5 81.5Q427 37 377 18.5Q327 0 250 0Z" glyph-name="Dcroat" horiz-adv-x="557" unicode="&#272;" /><glyph d="M440 684 386 565 145 59 264 61H616L735 60L494 565ZM65 37 418 774H462L815 37V0H65Z" glyph-name="Delta" horiz-adv-x="880" unicode="&#8710;" /><glyph d="M372 780V721H125V430H339V371H125V59H390V0H59V780Z" glyph-name="E" horiz-adv-x="428" unicode="E" /><glyph d="M302 1030 242 822H181L231 1030ZM371 780V721H124V430H338V371H124V59H389V0H58V780Z" glyph-name="Eacute" horiz-adv-x="427" unicode="&#201;" /><glyph d="M213 827Q169 827 142 841.5Q115 856 100 882.5Q85 909 80.5 946.5Q76 984 76 1030H127Q126 957 142.5 919.5Q159 882 213 882Q267 882 283.5 919.5Q300 957 299 1030H350Q350 984 345.5 946.5Q341 909 326 882.5Q311 856 284 841.5Q257 827 213 827ZM371 780V721H124V430H338V371H124V59H389V0H58V780Z" glyph-name="Ebreve" horiz-adv-x="427" unicode="&#276;" /><glyph d="M355 1030 251 822H175L71 1030H125L213 874L301 1030ZM371 780V721H124V430H338V371H124V59H389V0H58V780Z" glyph-name="Ecaron" horiz-adv-x="427" unicode="&#282;" /><glyph d="M75 822 176 1030H250L351 822H298L213 981L128 822ZM371 780V721H124V430H338V371H124V59H389V0H58V780Z" glyph-name="Ecircumflex" horiz-adv-x="427" unicode="&#202;" /><glyph d="M334 900H258V976H334ZM170 900H94V976H170ZM372 780V721H125V430H339V371H125V59H390V0H59V780Z" glyph-name="Edieresis" horiz-adv-x="428" unicode="&#203;" /><glyph d="M252 900H176V976H252ZM372 780V721H125V430H339V371H125V59H390V0H59V780Z" glyph-name="Edotaccent" horiz-adv-x="428" unicode="&#278;" /><glyph d="M195 1030 245 822H184L124 1030ZM371 780V721H124V430H338V371H124V59H389V0H58V780Z" glyph-name="Egrave" horiz-adv-x="427" unicode="&#200;" /><glyph d="M111 969H315V910H111ZM371 780V721H124V430H338V371H124V59H389V0H58V780Z" glyph-name="Emacron" horiz-adv-x="427" unicode="&#274;" /><glyph d="M314 312 387 107 384 357V780H447V-105Q447 -155 422 -183Q397 -211 335 -211Q313 -211 298 -208Q283 -205 272 -201L278 -144Q284 -146 296 -149.5Q308 -153 325 -153Q351 -153 365.5 -142Q380 -131 380 -95V-37L191 468L118 673L122 423V0H58V780H140Z" glyph-name="Eng" horiz-adv-x="506" unicode="&#330;" /><glyph d="M371 780V721H124V430H338V371H124V59H389V0Q349 -11 323 -37.5Q297 -64 298 -107Q298 -138 315 -151Q332 -164 354 -162Q375 -161 389 -154Q403 -147 411 -141L426 -187Q410 -198 390 -204.5Q370 -211 344 -211Q327 -211 310 -206.5Q293 -202 279 -191.5Q265 -181 256 -164Q247 -147 246 -122Q243 -83 258 -53Q273 -23 303 0H58V780Z" glyph-name="Eogonek" horiz-adv-x="427" unicode="&#280;" /><glyph d="M259 59Q318 59 354 75.5Q390 92 409.5 131Q429 170 435.5 233.5Q442 297 442 390Q442 483 435.5 546.5Q429 610 409.5 649Q390 688 354 704.5Q318 721 259 721H169V430H306V371H169V59ZM103 0V371H30V430H103V780H250Q327 780 377 761.5Q427 743 456.5 698.5Q486 654 497.5 579Q509 504 509 390Q509 276 497.5 201Q486 126 456.5 81.5Q427 37 377 18.5Q327 0 250 0Z" glyph-name="Eth" horiz-adv-x="557" unicode="&#208;" /><glyph d="M345 279H183Q186 216 193.5 172Q201 128 216.5 100.5Q232 73 258 60.5Q284 48 323 48Q359 48 381.5 57Q404 66 417 84.5Q430 103 435 132Q440 161 440 202L506 193Q506 143 499 105Q492 67 471.5 41.5Q451 16 415.5 3Q380 -10 325 -10Q269 -10 231 5Q193 20 169 54Q145 88 133 143.5Q121 199 117 279H41V329H115V435H41V485H117Q121 565 133 620Q145 675 169 709.5Q193 744 231 759Q269 774 325 774Q380 774 415.5 761Q451 748 471.5 722.5Q492 697 499 659Q506 621 506 571L440 562Q440 602 435 631.5Q430 661 417 679.5Q404 698 381.5 707Q359 716 323 716Q284 716 258 703.5Q232 691 216.5 663.5Q201 636 193.5 592Q186 548 183 485H408L393 435H182V329H360Z" glyph-name="Euro" horiz-adv-x="542" unicode="&#8364;" /><glyph d="M125 0H59V780H371V721H125V430H340V371H125Z" glyph-name="F" horiz-adv-x="399" unicode="F" /><glyph d="M48 390Q48 499 58.5 575Q69 651 95 699Q121 747 163.5 768.5Q206 790 271 790Q328 790 364.5 776.5Q401 763 422 736Q443 709 450.5 669Q458 629 458 577L392 567Q392 611 387 642Q382 673 368.5 693Q355 713 331 722Q307 731 270 731Q223 731 192.5 712Q162 693 144.5 651.5Q127 610 120.5 545.5Q114 481 114 390Q114 299 119 234.5Q124 170 139.5 128.5Q155 87 184.5 68Q214 49 264 49Q309 49 340 55.5Q371 62 394 73V343H291V401H458V34Q416 11 371 0.5Q326 -10 263 -10Q198 -10 156.5 11.5Q115 33 91 81Q67 129 57.5 205Q48 281 48 390Z" glyph-name="G" horiz-adv-x="510" unicode="G" /><glyph d="M260 827Q216 827 189 841.5Q162 856 147 882.5Q132 909 127.5 946.5Q123 984 123 1030H174Q173 957 189.5 919.5Q206 882 260 882Q314 882 330.5 919.5Q347 957 346 1030H397Q397 984 392.5 946.5Q388 909 373 882.5Q358 856 331 841.5Q304 827 260 827ZM48 390Q48 499 58.5 575Q69 651 95 699Q121 747 163.5 768.5Q206 790 271 790Q328 790 364.5 776.5Q401 763 422 736Q443 709 450.5 669Q458 629 458 577L392 567Q392 611 387 642Q382 673 368.5 693Q355 713 331 722Q307 731 270 731Q223 731 192.5 712Q162 693 144.5 651.5Q127 610 120.5 545.5Q114 481 114 390Q114 299 119 234.5Q124 170 139.5 128.5Q155 87 184.5 68Q214 49 264 49Q309 49 340 55.5Q371 62 394 73V343H291V401H458V34Q416 11 371 0.5Q326 -10 263 -10Q198 -10 156.5 11.5Q115 33 91 81Q67 129 57.5 205Q48 281 48 390Z" glyph-name="Gbreve" horiz-adv-x="510" unicode="&#286;" /><glyph d="M122 822 223 1030H297L398 822H345L260 981L175 822ZM48 390Q48 499 58.5 575Q69 651 95 699Q121 747 163.5 768.5Q206 790 271 790Q328 790 364.5 776.5Q401 763 422 736Q443 709 450.5 669Q458 629 458 577L392 567Q392 611 387 642Q382 673 368.5 693Q355 713 331 722Q307 731 270 731Q223 731 192.5 712Q162 693 144.5 651.5Q127 610 120.5 545.5Q114 481 114 390Q114 299 119 234.5Q124 170 139.5 128.5Q155 87 184.5 68Q214 49 264 49Q309 49 340 55.5Q371 62 394 73V343H291V401H458V34Q416 11 371 0.5Q326 -10 263 -10Q198 -10 156.5 11.5Q115 33 91 81Q67 129 57.5 205Q48 281 48 390Z" glyph-name="Gcircumflex" horiz-adv-x="510" unicode="&#284;" /><glyph d="M311 -40 279 -200H226L236 -40ZM48 390Q48 499 58.5 575Q69 651 95 699Q121 747 163.5 768.5Q206 790 271 790Q328 790 364.5 776.5Q401 763 422 736Q443 709 450.5 669Q458 629 458 577L392 567Q392 611 387 642Q382 673 368.5 693Q355 713 331 722Q307 731 270 731Q223 731 192.5 712Q162 693 144.5 651.5Q127 610 120.5 545.5Q114 481 114 390Q114 299 119 234.5Q124 170 139.5 128.5Q155 87 184.5 68Q214 49 264 49Q309 49 340 55.5Q371 62 394 73V343H291V401H458V34Q416 11 371 0.5Q326 -10 263 -10Q198 -10 156.5 11.5Q115 33 91 81Q67 129 57.5 205Q48 281 48 390Z" glyph-name="Gcommaaccent" horiz-adv-x="510" unicode="&#290;" /><glyph d="M298 900H222V976H298ZM48 390Q48 499 58.5 575Q69 651 95 699Q121 747 163.5 768.5Q206 790 271 790Q328 790 364.5 776.5Q401 763 422 736Q443 709 450.5 669Q458 629 458 577L392 567Q392 611 387 642Q382 673 368.5 693Q355 713 331 722Q307 731 270 731Q223 731 192.5 712Q162 693 144.5 651.5Q127 610 120.5 545.5Q114 481 114 390Q114 299 119 234.5Q124 170 139.5 128.5Q155 87 184.5 68Q214 49 264 49Q309 49 340 55.5Q371 62 394 73V343H291V401H458V34Q416 11 371 0.5Q326 -10 263 -10Q198 -10 156.5 11.5Q115 33 91 81Q67 129 57.5 205Q48 281 48 390Z" glyph-name="Gdotaccent" horiz-adv-x="510" unicode="&#288;" /><glyph d="M457 780V0H392V371H125V0H59V780H125V430H392V780Z" glyph-name="H" horiz-adv-x="516" unicode="H" /><glyph d="M392 430V576H124V430ZM458 780V0H392V371H124V0H58V780H124V635H392V780Z" glyph-name="Hbar" horiz-adv-x="516" unicode="&#294;" /><glyph d="M119 822 220 1030H294L395 822H342L257 981L172 822ZM457 780V0H392V371H125V0H59V780H125V430H392V780Z" glyph-name="Hcircumflex" horiz-adv-x="516" unicode="&#292;" /><glyph d="M129 0H63V780H129Z" glyph-name="I" horiz-adv-x="192" unicode="I" /><glyph d="M130 0H63V780H130ZM250 48Q276 48 291.5 60Q307 72 307 110V780H373V105Q373 48 345.5 18.5Q318 -11 258 -11Q238 -11 219.5 -7.5Q201 -4 190 1L196 59Q203 56 217 52Q231 48 250 48Z" glyph-name="IJ" horiz-adv-x="436" unicode="&#306;" /><glyph d="M187 1030 127 822H66L116 1030ZM129 0H63V780H129Z" glyph-name="Iacute" horiz-adv-x="192" unicode="&#205;" /><glyph d="M96 827Q52 827 25 841.5Q-2 856 -17 882.5Q-32 909 -36.5 946.5Q-41 984 -41 1030H10Q9 957 25.5 919.5Q42 882 96 882Q150 882 166.5 919.5Q183 957 182 1030H233Q233 984 228.5 946.5Q224 909 209 882.5Q194 856 167 841.5Q140 827 96 827ZM129 0H63V780H129Z" glyph-name="Ibreve" horiz-adv-x="192" unicode="&#300;" /><glyph d="M-42 822 59 1030H133L234 822H181L96 981L11 822ZM129 0H63V780H129Z" glyph-name="Icircumflex" horiz-adv-x="192" unicode="&#206;" /><glyph d="M216 900H140V976H216ZM52 900H-24V976H52ZM129 0H63V780H129Z" glyph-name="Idieresis" horiz-adv-x="192" unicode="&#207;" /><glyph d="M134 900H58V976H134ZM129 0H63V780H129Z" glyph-name="Idotaccent" horiz-adv-x="192" unicode="&#304;" /><glyph d="M76 1030 126 822H65L5 1030ZM129 0H63V780H129Z" glyph-name="Igrave" horiz-adv-x="192" unicode="&#204;" /><glyph d="M-6 969H198V910H-6ZM129 0H63V780H129Z" glyph-name="Imacron" horiz-adv-x="192" unicode="&#298;" /><glyph d="M129 0Q97 -11 74.5 -37.5Q52 -64 53 -107Q53 -138 70 -151Q87 -164 109 -162Q130 -161 144 -154Q158 -147 166 -141L181 -187Q165 -198 145 -204.5Q125 -211 99 -211Q82 -211 65 -206.5Q48 -202 34 -191.5Q20 -181 11 -164Q2 -147 1 -122Q-2 -79 14.5 -46.5Q31 -14 63 9V780H129Z" glyph-name="Iogonek" horiz-adv-x="192" unicode="&#302;" /><glyph d="M248 973Q244 922 223.5 891.5Q203 861 164 862Q141 862 123 873.5Q105 885 89.5 898.5Q74 912 59.5 923.5Q45 935 29 936Q6 937 -1.5 919.5Q-9 902 -11 875L-59 882Q-56 933 -35.5 963.5Q-15 994 24 993Q48 992 66 980.5Q84 969 99 955.5Q114 942 128.5 931Q143 920 159 919Q182 917 190 935Q198 953 200 980ZM129 0H63V780H129Z" glyph-name="Itilde" horiz-adv-x="192" unicode="&#296;" /><glyph d="M351 780V183Q351 78 313 34Q275 -10 190 -10Q142 -10 112 4Q82 18 66 41.5Q50 65 44.5 97Q39 129 39 165L103 174Q103 145 106 121.5Q109 98 119 81.5Q129 65 146 56.5Q163 48 192 49Q222 50 240 58Q258 66 268.5 82Q279 98 282.5 123Q286 148 286 182V780Z" glyph-name="J" horiz-adv-x="408" unicode="J" /><glyph d="M180 822 281 1030H355L456 822H403L318 981L233 822ZM351 780V183Q351 78 313 34Q275 -10 190 -10Q142 -10 112 4Q82 18 66 41.5Q50 65 44.5 97Q39 129 39 165L103 174Q103 145 106 121.5Q109 98 119 81.5Q129 65 146 56.5Q163 48 192 49Q222 50 240 58Q258 66 268.5 82Q279 98 282.5 123Q286 148 286 182V780Z" glyph-name="Jcircumflex" horiz-adv-x="414" unicode="&#308;" /><glyph d="M123 346 344 780H420L238 436L437 0H362L196 375L123 241L125 0H59V780H125Z" glyph-name="K" horiz-adv-x="461" unicode="K" /><glyph d="M275 -40 243 -200H190L200 -40ZM122 346 343 780H419L237 436L436 0H361L195 375L122 241L124 0H58V780H124Z" glyph-name="Kcommaaccent" horiz-adv-x="460" unicode="&#310;" /><glyph d="M125 59H358V0H59V780H125Z" glyph-name="L" horiz-adv-x="378" unicode="L" /><glyph d="M182 1030 122 822H61L111 1030ZM124 59H357V0H58V780H124Z" glyph-name="Lacute" horiz-adv-x="377" unicode="&#313;" /><glyph d="M291 800 267 592H231V800ZM124 59H357V0H58V780H124Z" glyph-name="Lcaron" horiz-adv-x="377" unicode="&#317;" /><glyph d="M245 -40 213 -200H160L170 -40ZM124 59H357V0H58V780H124Z" glyph-name="Lcommaaccent" horiz-adv-x="377" unicode="&#315;" /><glyph d="M304 361H228V437H304ZM124 59H357V0H58V780H124Z" glyph-name="Ldot" horiz-adv-x="384" unicode="&#319;" /><glyph d="M154 351V59H387V0H88V318L25 287V341L88 372V780H154V405L300 479V425Z" glyph-name="Lslash" horiz-adv-x="407" unicode="&#321;" /><glyph d="M279 0 120 656 125 0H59V780H155L315 99L475 780H570V0H505L509 656L350 0Z" glyph-name="M" horiz-adv-x="629" unicode="M" /><glyph d="M315 312 388 108 385 357V780H448V0H367L192 468L119 672L122 423L123 0H59V780H141Z" glyph-name="N" horiz-adv-x="507" unicode="N" /><glyph d="M346 1030 286 822H225L275 1030ZM314 312 387 108 384 357V780H447V0H366L191 468L118 672L121 423L122 0H58V780H140Z" glyph-name="Nacute" horiz-adv-x="505" unicode="&#323;" /><glyph d="M399 1030 295 822H219L115 1030H169L257 874L345 1030ZM314 312 387 108 384 357V780H447V0H366L191 468L118 672L121 423L122 0H58V780H140Z" glyph-name="Ncaron" horiz-adv-x="505" unicode="&#327;" /><glyph d="M295 -40 263 -200H210L220 -40ZM314 312 387 108 384 357V780H447V0H366L191 468L118 672L121 423L122 0H58V780H140Z" glyph-name="Ncommaaccent" horiz-adv-x="505" unicode="&#325;" /><glyph d="M404 973Q400 922 379.5 891.5Q359 861 320 862Q297 862 279 873.5Q261 885 245.5 898.5Q230 912 215.5 923.5Q201 935 185 936Q162 937 154.5 919.5Q147 902 145 875L97 882Q100 933 120.5 963.5Q141 994 180 993Q204 992 222 980.5Q240 969 255 955.5Q270 942 284.5 931Q299 920 315 919Q338 917 346 935Q354 953 356 980ZM314 312 387 108 384 357V780H447V0H366L191 468L118 672L121 423L122 0H58V780H140Z" glyph-name="Ntilde" horiz-adv-x="505" unicode="&#209;" /><glyph d="M252 731Q209 731 182.5 713Q156 695 141 654.5Q126 614 120.5 549Q115 484 115 390Q115 296 120.5 231Q126 166 141 125.5Q156 85 182.5 67Q209 49 252 49Q295 49 321.5 67Q348 85 363 125.5Q378 166 383.5 231Q389 296 389 390Q389 484 383.5 549Q378 614 363 654.5Q348 695 321.5 713Q295 731 252 731ZM252 -10Q191 -10 151.5 11.5Q112 33 89 81Q66 129 57 205Q48 281 48 390Q48 499 57 575Q66 651 89 699Q112 747 151.5 768.5Q191 790 252 790Q313 790 352.5 768.5Q392 747 415 699Q438 651 447 575Q456 499 456 390Q456 281 447 205Q438 129 415 81Q392 33 352.5 11.5Q313 -10 252 -10Z" glyph-name="O" horiz-adv-x="504" unicode="O" /><glyph d="M350 59V721H299Q239 721 203 704.5Q167 688 147.5 649Q128 610 121.5 546.5Q115 483 115 390Q115 297 121.5 233.5Q128 170 147.5 131Q167 92 203 75.5Q239 59 299 59ZM307 0Q230 0 180 18.5Q130 37 100.5 81.5Q71 126 59.5 201Q48 276 48 390Q48 504 59.5 579Q71 654 100.5 698.5Q130 743 180 761.5Q230 780 307 780H659V721H416V430H626V371H416V59H677V0Z" glyph-name="OE" horiz-adv-x="715" unicode="&#338;" /><glyph d="M342 1030 282 822H221L271 1030ZM252 731Q209 731 182.5 713Q156 695 141 654.5Q126 614 120.5 549Q115 484 115 390Q115 296 120.5 231Q126 166 141 125.5Q156 85 182.5 67Q209 49 252 49Q295 49 321.5 67Q348 85 363 125.5Q378 166 383.5 231Q389 296 389 390Q389 484 383.5 549Q378 614 363 654.5Q348 695 321.5 713Q295 731 252 731ZM252 -10Q191 -10 151.5 11.5Q112 33 89 81Q66 129 57 205Q48 281 48 390Q48 499 57 575Q66 651 89 699Q112 747 151.5 768.5Q191 790 252 790Q313 790 352.5 768.5Q392 747 415 699Q438 651 447 575Q456 499 456 390Q456 281 447 205Q438 129 415 81Q392 33 352.5 11.5Q313 -10 252 -10Z" glyph-name="Oacute" horiz-adv-x="502" unicode="&#211;" /><glyph d="M251 827Q207 827 180 841.5Q153 856 138 882.5Q123 909 118.5 946.5Q114 984 114 1030H165Q164 957 180.5 919.5Q197 882 251 882Q305 882 321.5 919.5Q338 957 337 1030H388Q388 984 383.5 946.5Q379 909 364 882.5Q349 856 322 841.5Q295 827 251 827ZM252 731Q209 731 182.5 713Q156 695 141 654.5Q126 614 120.5 549Q115 484 115 390Q115 296 120.5 231Q126 166 141 125.5Q156 85 182.5 67Q209 49 252 49Q295 49 321.5 67Q348 85 363 125.5Q378 166 383.5 231Q389 296 389 390Q389 484 383.5 549Q378 614 363 654.5Q348 695 321.5 713Q295 731 252 731ZM252 -10Q191 -10 151.5 11.5Q112 33 89 81Q66 129 57 205Q48 281 48 390Q48 499 57 575Q66 651 89 699Q112 747 151.5 768.5Q191 790 252 790Q313 790 352.5 768.5Q392 747 415 699Q438 651 447 575Q456 499 456 390Q456 281 447 205Q438 129 415 81Q392 33 352.5 11.5Q313 -10 252 -10Z" glyph-name="Obreve" horiz-adv-x="502" unicode="&#334;" /><glyph d="M113 822 214 1030H288L389 822H336L251 981L166 822ZM252 731Q209 731 182.5 713Q156 695 141 654.5Q126 614 120.5 549Q115 484 115 390Q115 296 120.5 231Q126 166 141 125.5Q156 85 182.5 67Q209 49 252 49Q295 49 321.5 67Q348 85 363 125.5Q378 166 383.5 231Q389 296 389 390Q389 484 383.5 549Q378 614 363 654.5Q348 695 321.5 713Q295 731 252 731ZM252 -10Q191 -10 151.5 11.5Q112 33 89 81Q66 129 57 205Q48 281 48 390Q48 499 57 575Q66 651 89 699Q112 747 151.5 768.5Q191 790 252 790Q313 790 352.5 768.5Q392 747 415 699Q438 651 447 575Q456 499 456 390Q456 281 447 205Q438 129 415 81Q392 33 352.5 11.5Q313 -10 252 -10Z" glyph-name="Ocircumflex" horiz-adv-x="502" unicode="&#212;" /><glyph d="M372 900H296V976H372ZM208 900H132V976H208ZM252 731Q209 731 182.5 713Q156 695 141 654.5Q126 614 120.5 549Q115 484 115 390Q115 296 120.5 231Q126 166 141 125.5Q156 85 182.5 67Q209 49 252 49Q295 49 321.5 67Q348 85 363 125.5Q378 166 383.5 231Q389 296 389 390Q389 484 383.5 549Q378 614 363 654.5Q348 695 321.5 713Q295 731 252 731ZM252 -10Q191 -10 151.5 11.5Q112 33 89 81Q66 129 57 205Q48 281 48 390Q48 499 57 575Q66 651 89 699Q112 747 151.5 768.5Q191 790 252 790Q313 790 352.5 768.5Q392 747 415 699Q438 651 447 575Q456 499 456 390Q456 281 447 205Q438 129 415 81Q392 33 352.5 11.5Q313 -10 252 -10Z" glyph-name="Odieresis" horiz-adv-x="504" unicode="&#214;" /><glyph d="M231 1030 281 822H220L160 1030ZM252 731Q209 731 182.5 713Q156 695 141 654.5Q126 614 120.5 549Q115 484 115 390Q115 296 120.5 231Q126 166 141 125.5Q156 85 182.5 67Q209 49 252 49Q295 49 321.5 67Q348 85 363 125.5Q378 166 383.5 231Q389 296 389 390Q389 484 383.5 549Q378 614 363 654.5Q348 695 321.5 713Q295 731 252 731ZM252 -10Q191 -10 151.5 11.5Q112 33 89 81Q66 129 57 205Q48 281 48 390Q48 499 57 575Q66 651 89 699Q112 747 151.5 768.5Q191 790 252 790Q313 790 352.5 768.5Q392 747 415 699Q438 651 447 575Q456 499 456 390Q456 281 447 205Q438 129 415 81Q392 33 352.5 11.5Q313 -10 252 -10Z" glyph-name="Ograve" horiz-adv-x="502" unicode="&#210;" /><glyph d="M406 1030 343 822H283L334 1030ZM281 1030 219 822H159L210 1030ZM252 731Q209 731 182.5 713Q156 695 141 654.5Q126 614 120.5 549Q115 484 115 390Q115 296 120.5 231Q126 166 141 125.5Q156 85 182.5 67Q209 49 252 49Q295 49 321.5 67Q348 85 363 125.5Q378 166 383.5 231Q389 296 389 390Q389 484 383.5 549Q378 614 363 654.5Q348 695 321.5 713Q295 731 252 731ZM252 -10Q191 -10 151.5 11.5Q112 33 89 81Q66 129 57 205Q48 281 48 390Q48 499 57 575Q66 651 89 699Q112 747 151.5 768.5Q191 790 252 790Q313 790 352.5 768.5Q392 747 415 699Q438 651 447 575Q456 499 456 390Q456 281 447 205Q438 129 415 81Q392 33 352.5 11.5Q313 -10 252 -10Z" glyph-name="Ohungarumlaut" horiz-adv-x="502" unicode="&#336;" /><glyph d="M149 969H353V910H149ZM252 731Q209 731 182.5 713Q156 695 141 654.5Q126 614 120.5 549Q115 484 115 390Q115 296 120.5 231Q126 166 141 125.5Q156 85 182.5 67Q209 49 252 49Q295 49 321.5 67Q348 85 363 125.5Q378 166 383.5 231Q389 296 389 390Q389 484 383.5 549Q378 614 363 654.5Q348 695 321.5 713Q295 731 252 731ZM252 -10Q191 -10 151.5 11.5Q112 33 89 81Q66 129 57 205Q48 281 48 390Q48 499 57 575Q66 651 89 699Q112 747 151.5 768.5Q191 790 252 790Q313 790 352.5 768.5Q392 747 415 699Q438 651 447 575Q456 499 456 390Q456 281 447 205Q438 129 415 81Q392 33 352.5 11.5Q313 -10 252 -10Z" glyph-name="Omacron" horiz-adv-x="502" unicode="&#332;" /><glyph d="M252 731Q209 731 182.5 713Q156 695 141 654.5Q126 614 120.5 549Q115 484 115 390Q115 317 118 262.5Q121 208 129 168L348 685Q318 731 252 731ZM389 390Q389 462 385.5 517Q382 572 374 612L155 95Q185 49 252 49Q295 49 321.5 67Q348 85 363 125.5Q378 166 383.5 231Q389 296 389 390ZM413 702Q437 654 446.5 578Q456 502 456 390Q456 281 447 205Q438 129 415 81Q392 33 352.5 11.5Q313 -10 252 -10Q170 -10 127 29L115 0H58L91 78Q67 126 57.5 202Q48 278 48 390Q48 499 57 575Q66 651 89 699Q112 747 151.5 768.5Q191 790 252 790Q333 790 376 751L389 780H446Z" glyph-name="Oslash" horiz-adv-x="504" unicode="&#216;" /><glyph d="M403 973Q399 922 378.5 891.5Q358 861 319 862Q296 862 278 873.5Q260 885 244.5 898.5Q229 912 214.5 923.5Q200 935 184 936Q161 937 153.5 919.5Q146 902 144 875L96 882Q99 933 119.5 963.5Q140 994 179 993Q203 992 221 980.5Q239 969 254 955.5Q269 942 283.5 931Q298 920 314 919Q337 917 345 935Q353 953 355 980ZM252 731Q209 731 182.5 713Q156 695 141 654.5Q126 614 120.5 549Q115 484 115 390Q115 296 120.5 231Q126 166 141 125.5Q156 85 182.5 67Q209 49 252 49Q295 49 321.5 67Q348 85 363 125.5Q378 166 383.5 231Q389 296 389 390Q389 484 383.5 549Q378 614 363 654.5Q348 695 321.5 713Q295 731 252 731ZM252 -10Q191 -10 151.5 11.5Q112 33 89 81Q66 129 57 205Q48 281 48 390Q48 499 57 575Q66 651 89 699Q112 747 151.5 768.5Q191 790 252 790Q313 790 352.5 768.5Q392 747 415 699Q438 651 447 575Q456 499 456 390Q456 281 447 205Q438 129 415 81Q392 33 352.5 11.5Q313 -10 252 -10Z" glyph-name="Otilde" horiz-adv-x="502" unicode="&#213;" /><glyph d="M125 0H59V780H224Q264 780 297.5 770Q331 760 355 734.5Q379 709 392.5 664.5Q406 620 406 550Q406 480 392.5 435.5Q379 391 355 365.5Q331 340 297.5 330Q264 320 225 320H125ZM220 380Q249 380 271.5 387.5Q294 395 309 414.5Q324 434 331.5 467Q339 500 339 550Q339 600 331.5 633Q324 666 309 685.5Q294 705 271.5 713Q249 721 220 721H125V380Z" glyph-name="P" horiz-adv-x="442" unicode="P" /><glyph d="M252 731Q209 731 182.5 713Q156 695 141 654.5Q126 614 120.5 549Q115 484 115 390Q115 296 120.5 231Q126 166 141 125.5Q156 85 182.5 67Q209 49 252 49Q295 49 321.5 67Q348 85 363 125.5Q378 166 383.5 231Q389 296 389 390Q389 484 383.5 549Q378 614 363 654.5Q348 695 321.5 713Q295 731 252 731ZM135 22Q111 43 94.5 74.5Q78 106 67.5 151Q57 196 52.5 255Q48 314 48 390Q48 499 57 575Q66 651 89 699Q112 747 151.5 768.5Q191 790 252 790Q313 790 352.5 768.5Q392 747 415 699Q438 651 447 575Q456 499 456 390Q456 282 447 206.5Q438 131 415.5 83.5Q393 36 355 13.5Q317 -9 258 -10L431 -147L405 -211Z" glyph-name="Q" horiz-adv-x="504" unicode="Q" /><glyph d="M223 393Q253 393 275 399.5Q297 406 311.5 424Q326 442 333.5 474Q341 506 341 557Q341 608 333.5 640Q326 672 311.5 690Q297 708 275 714.5Q253 721 223 721H125V393ZM125 0H59V780H229Q269 780 302 771.5Q335 763 358.5 739Q382 715 395 671Q408 627 408 557Q408 502 400 464Q392 426 378 400.5Q364 375 343 361Q322 347 297 341L423 0H349L233 334H125Z" glyph-name="R" horiz-adv-x="459" unicode="R" /><glyph d="M309 1030 249 822H188L238 1030ZM222 393Q252 393 274 399.5Q296 406 310.5 424Q325 442 332.5 474Q340 506 340 557Q340 608 332.5 640Q325 672 310.5 690Q296 708 274 714.5Q252 721 222 721H124V393ZM124 0H58V780H228Q268 780 301 771.5Q334 763 357.5 739Q381 715 394 671Q407 627 407 557Q407 502 399 464Q391 426 377 400.5Q363 375 342 361Q321 347 296 341L422 0H348L232 334H124Z" glyph-name="Racute" horiz-adv-x="458" unicode="&#340;" /><glyph d="M362 1030 258 822H182L78 1030H132L220 874L308 1030ZM222 393Q252 393 274 399.5Q296 406 310.5 424Q325 442 332.5 474Q340 506 340 557Q340 608 332.5 640Q325 672 310.5 690Q296 708 274 714.5Q252 721 222 721H124V393ZM124 0H58V780H228Q268 780 301 771.5Q334 763 357.5 739Q381 715 394 671Q407 627 407 557Q407 502 399 464Q391 426 377 400.5Q363 375 342 361Q321 347 296 341L422 0H348L232 334H124Z" glyph-name="Rcaron" horiz-adv-x="458" unicode="&#344;" /><glyph d="M273 -40 241 -200H188L198 -40ZM222 393Q252 393 274 399.5Q296 406 310.5 424Q325 442 332.5 474Q340 506 340 557Q340 608 332.5 640Q325 672 310.5 690Q296 708 274 714.5Q252 721 222 721H124V393ZM124 0H58V780H228Q268 780 301 771.5Q334 763 357.5 739Q381 715 394 671Q407 627 407 557Q407 502 399 464Q391 426 377 400.5Q363 375 342 361Q321 347 296 341L422 0H348L232 334H124Z" glyph-name="Rcommaaccent" horiz-adv-x="458" unicode="&#342;" /><glyph d="M220 48Q257 48 283.5 56Q310 64 327.5 82Q345 100 353 129.5Q361 159 361 202Q361 243 354.5 269.5Q348 296 332.5 314Q317 332 291.5 344Q266 356 228 367Q193 377 162 390Q131 403 107.5 426Q84 449 70 485Q56 521 56 578Q56 686 98 738.5Q140 791 245 791Q304 791 338.5 774.5Q373 758 390.5 729.5Q408 701 413 662.5Q418 624 418 580L353 571Q353 607 350 636.5Q347 666 336 687Q325 708 303.5 720Q282 732 244 732Q183 732 153 698Q123 664 123 579Q123 543 129 519.5Q135 496 149.5 479.5Q164 463 188 452Q212 441 248 431Q288 420 321 406.5Q354 393 378 368.5Q402 344 415 304.5Q428 265 428 204Q428 90 376.5 39.5Q325 -11 219 -11Q162 -11 126.5 4.5Q91 20 71 48Q51 76 43.5 116Q36 156 36 206L101 215Q101 175 105 144Q109 113 121.5 91.5Q134 70 157.5 59Q181 48 220 48Z" glyph-name="S" horiz-adv-x="464" unicode="S" /><glyph d="M331 1030 271 822H210L260 1030ZM220 48Q257 48 283.5 56Q310 64 327.5 82Q345 100 353 129.5Q361 159 361 202Q361 243 354.5 269.5Q348 296 332.5 314Q317 332 291.5 344Q266 356 228 367Q193 377 162 390Q131 403 107.5 426Q84 449 70 485Q56 521 56 578Q56 686 98 738.5Q140 791 245 791Q304 791 338.5 774.5Q373 758 390.5 729.5Q408 701 413 662.5Q418 624 418 580L353 571Q353 607 350 636.5Q347 666 336 687Q325 708 303.5 720Q282 732 244 732Q183 732 153 698Q123 664 123 579Q123 543 129 519.5Q135 496 149.5 479.5Q164 463 188 452Q212 441 248 431Q288 420 321 406.5Q354 393 378 368.5Q402 344 415 304.5Q428 265 428 204Q428 90 376.5 39.5Q325 -11 219 -11Q162 -11 126.5 4.5Q91 20 71 48Q51 76 43.5 116Q36 156 36 206L101 215Q101 175 105 144Q109 113 121.5 91.5Q134 70 157.5 59Q181 48 220 48Z" glyph-name="Sacute" horiz-adv-x="464" unicode="&#346;" /><glyph d="M384 1030 280 822H204L100 1030H154L242 874L330 1030ZM220 48Q257 48 283.5 56Q310 64 327.5 82Q345 100 353 129.5Q361 159 361 202Q361 243 354.5 269.5Q348 296 332.5 314Q317 332 291.5 344Q266 356 228 367Q193 377 162 390Q131 403 107.5 426Q84 449 70 485Q56 521 56 578Q56 686 98 738.5Q140 791 245 791Q304 791 338.5 774.5Q373 758 390.5 729.5Q408 701 413 662.5Q418 624 418 580L353 571Q353 607 350 636.5Q347 666 336 687Q325 708 303.5 720Q282 732 244 732Q183 732 153 698Q123 664 123 579Q123 543 129 519.5Q135 496 149.5 479.5Q164 463 188 452Q212 441 248 431Q288 420 321 406.5Q354 393 378 368.5Q402 344 415 304.5Q428 265 428 204Q428 90 376.5 39.5Q325 -11 219 -11Q162 -11 126.5 4.5Q91 20 71 48Q51 76 43.5 116Q36 156 36 206L101 215Q101 175 105 144Q109 113 121.5 91.5Q134 70 157.5 59Q181 48 220 48Z" glyph-name="Scaron" horiz-adv-x="464" unicode="&#352;" /><glyph d="M220 48Q257 48 283.5 56Q310 64 327.5 82Q345 100 353 129.5Q361 159 361 202Q361 243 354.5 269.5Q348 296 332.5 314Q317 332 291.5 344Q266 356 228 367Q193 377 162 390Q131 403 107.5 426Q84 449 70 485Q56 521 56 578Q56 686 98 738.5Q140 791 245 791Q304 791 338.5 774.5Q373 758 390.5 729.5Q408 701 413 662.5Q418 624 418 580L353 571Q353 607 350 636.5Q347 666 336 687Q325 708 303.5 720Q282 732 244 732Q183 732 153 698Q123 664 123 579Q123 543 129 519.5Q135 496 149.5 479.5Q164 463 188 452Q212 441 248 431Q288 420 321 406.5Q354 393 378 368.5Q402 344 415 304.5Q428 265 428 204Q428 96 383 45.5Q338 -5 244 -10L236 -40Q287 -48 316 -69.5Q345 -91 343 -129Q342 -173 309 -192Q276 -211 229 -211Q200 -211 175.5 -205Q151 -199 140 -193L153 -154Q160 -158 170 -162Q178 -165 188.5 -167.5Q199 -170 211 -171Q243 -172 264.5 -163Q286 -154 286 -126Q286 -109 276.5 -99Q267 -89 252 -83Q237 -77 218.5 -74Q200 -71 183 -69L203 -11Q151 -9 118.5 7.5Q86 24 67.5 52Q49 80 42.5 119Q36 158 36 206L101 215Q101 175 105 144Q109 113 121.5 91.5Q134 70 157.5 59Q181 48 220 48Z" glyph-name="Scedilla" horiz-adv-x="464" unicode="&#350;" /><glyph d="M104 822 205 1030H279L380 822H327L242 981L157 822ZM220 48Q257 48 283.5 56Q310 64 327.5 82Q345 100 353 129.5Q361 159 361 202Q361 243 354.5 269.5Q348 296 332.5 314Q317 332 291.5 344Q266 356 228 367Q193 377 162 390Q131 403 107.5 426Q84 449 70 485Q56 521 56 578Q56 686 98 738.5Q140 791 245 791Q304 791 338.5 774.5Q373 758 390.5 729.5Q408 701 413 662.5Q418 624 418 580L353 571Q353 607 350 636.5Q347 666 336 687Q325 708 303.5 720Q282 732 244 732Q183 732 153 698Q123 664 123 579Q123 543 129 519.5Q135 496 149.5 479.5Q164 463 188 452Q212 441 248 431Q288 420 321 406.5Q354 393 378 368.5Q402 344 415 304.5Q428 265 428 204Q428 90 376.5 39.5Q325 -11 219 -11Q162 -11 126.5 4.5Q91 20 71 48Q51 76 43.5 116Q36 156 36 206L101 215Q101 175 105 144Q109 113 121.5 91.5Q134 70 157.5 59Q181 48 220 48Z" glyph-name="Scircumflex" horiz-adv-x="464" unicode="&#348;" /><glyph d="M266 -40 234 -200H181L191 -40ZM220 48Q257 48 283.5 56Q310 64 327.5 82Q345 100 353 129.5Q361 159 361 202Q361 243 354.5 269.5Q348 296 332.5 314Q317 332 291.5 344Q266 356 228 367Q193 377 162 390Q131 403 107.5 426Q84 449 70 485Q56 521 56 578Q56 686 98 738.5Q140 791 245 791Q304 791 338.5 774.5Q373 758 390.5 729.5Q408 701 413 662.5Q418 624 418 580L353 571Q353 607 350 636.5Q347 666 336 687Q325 708 303.5 720Q282 732 244 732Q183 732 153 698Q123 664 123 579Q123 543 129 519.5Q135 496 149.5 479.5Q164 463 188 452Q212 441 248 431Q288 420 321 406.5Q354 393 378 368.5Q402 344 415 304.5Q428 265 428 204Q428 90 376.5 39.5Q325 -11 219 -11Q162 -11 126.5 4.5Q91 20 71 48Q51 76 43.5 116Q36 156 36 206L101 215Q101 175 105 144Q109 113 121.5 91.5Q134 70 157.5 59Q181 48 220 48Z" glyph-name="Scommaaccent" horiz-adv-x="464" unicode="&#536;" /><glyph d="M234 0H168V721H20V780H382V721H234Z" glyph-name="T" horiz-adv-x="402" unicode="T" /><glyph d="M86 430H168V721H20V780H382V721H234V430H316V371H234V0H168V371H86Z" glyph-name="Tbar" horiz-adv-x="403" unicode="&#358;" /><glyph d="M343 1030 239 822H163L59 1030H113L201 874L289 1030ZM234 0H168V721H20V780H382V721H234Z" glyph-name="Tcaron" horiz-adv-x="403" unicode="&#356;" /><glyph d="M237 -40 205 -200H152L162 -40ZM234 0H168V721H20V780H382V721H234Z" glyph-name="Tcommaaccent" horiz-adv-x="403" unicode="&#354;" /><glyph d="M220 219Q249 219 271.5 227Q294 235 309 254.5Q324 274 331.5 307Q339 340 339 390Q339 440 331.5 473Q324 506 309 525.5Q294 545 271.5 553Q249 561 220 561H125V219ZM125 620H224Q264 620 297.5 610Q331 600 355 574.5Q379 549 392.5 504.5Q406 460 406 390Q406 320 392.5 275.5Q379 231 355 205.5Q331 180 298 170Q265 160 225 160H125V0H59V780H125Z" glyph-name="Thorn" horiz-adv-x="443" unicode="&#222;" /><glyph d="M252 -11Q191 -11 152.5 2.5Q114 16 92.5 42Q71 68 63.5 106.5Q56 145 56 195V780H123V197Q123 160 127 132Q131 104 144 85.5Q157 67 182.5 57.5Q208 48 252 48Q295 48 321 57.5Q347 67 360 85.5Q373 104 377 132Q381 160 381 197V780H448V195Q448 145 440.5 106.5Q433 68 411.5 42Q390 16 351.5 2.5Q313 -11 252 -11Z" glyph-name="U" horiz-adv-x="504" unicode="U" /><glyph d="M339 1030 279 822H218L268 1030ZM250 -11Q189 -11 150.5 2.5Q112 16 90.5 42Q69 68 61.5 106.5Q54 145 54 195V780H121V197Q121 160 125 132Q129 104 142 85.5Q155 67 180.5 57.5Q206 48 250 48Q293 48 319 57.5Q345 67 358 85.5Q371 104 375 132Q379 160 379 197V780H446V195Q446 145 438.5 106.5Q431 68 409.5 42Q388 16 349.5 2.5Q311 -11 250 -11Z" glyph-name="Uacute" horiz-adv-x="502" unicode="&#218;" /><glyph d="M250 827Q206 827 179 841.5Q152 856 137 882.5Q122 909 117.5 946.5Q113 984 113 1030H164Q163 957 179.5 919.5Q196 882 250 882Q304 882 320.5 919.5Q337 957 336 1030H387Q387 984 382.5 946.5Q378 909 363 882.5Q348 856 321 841.5Q294 827 250 827ZM250 -11Q189 -11 150.5 2.5Q112 16 90.5 42Q69 68 61.5 106.5Q54 145 54 195V780H121V197Q121 160 125 132Q129 104 142 85.5Q155 67 180.5 57.5Q206 48 250 48Q293 48 319 57.5Q345 67 358 85.5Q371 104 375 132Q379 160 379 197V780H446V195Q446 145 438.5 106.5Q431 68 409.5 42Q388 16 349.5 2.5Q311 -11 250 -11Z" glyph-name="Ubreve" horiz-adv-x="502" unicode="&#364;" /><glyph d="M112 822 213 1030H287L388 822H335L250 981L165 822ZM250 -11Q189 -11 150.5 2.5Q112 16 90.5 42Q69 68 61.5 106.5Q54 145 54 195V780H121V197Q121 160 125 132Q129 104 142 85.5Q155 67 180.5 57.5Q206 48 250 48Q293 48 319 57.5Q345 67 358 85.5Q371 104 375 132Q379 160 379 197V780H446V195Q446 145 438.5 106.5Q431 68 409.5 42Q388 16 349.5 2.5Q311 -11 250 -11Z" glyph-name="Ucircumflex" horiz-adv-x="502" unicode="&#219;" /><glyph d="M372 900H296V976H372ZM208 900H132V976H208ZM252 -11Q191 -11 152.5 2.5Q114 16 92.5 42Q71 68 63.5 106.5Q56 145 56 195V780H123V197Q123 160 127 132Q131 104 144 85.5Q157 67 182.5 57.5Q208 48 252 48Q295 48 321 57.5Q347 67 360 85.5Q373 104 377 132Q381 160 381 197V780H448V195Q448 145 440.5 106.5Q433 68 411.5 42Q390 16 351.5 2.5Q313 -11 252 -11Z" glyph-name="Udieresis" horiz-adv-x="504" unicode="&#220;" /><glyph d="M232 1030 282 822H221L161 1030ZM250 -11Q189 -11 150.5 2.5Q112 16 90.5 42Q69 68 61.5 106.5Q54 145 54 195V780H121V197Q121 160 125 132Q129 104 142 85.5Q155 67 180.5 57.5Q206 48 250 48Q293 48 319 57.5Q345 67 358 85.5Q371 104 375 132Q379 160 379 197V780H446V195Q446 145 438.5 106.5Q431 68 409.5 42Q388 16 349.5 2.5Q311 -11 250 -11Z" glyph-name="Ugrave" horiz-adv-x="502" unicode="&#217;" /><glyph d="M405 1030 342 822H282L333 1030ZM280 1030 218 822H158L209 1030ZM250 -11Q189 -11 150.5 2.5Q112 16 90.5 42Q69 68 61.5 106.5Q54 145 54 195V780H121V197Q121 160 125 132Q129 104 142 85.5Q155 67 180.5 57.5Q206 48 250 48Q293 48 319 57.5Q345 67 358 85.5Q371 104 375 132Q379 160 379 197V780H446V195Q446 145 438.5 106.5Q431 68 409.5 42Q388 16 349.5 2.5Q311 -11 250 -11Z" glyph-name="Uhungarumlaut" horiz-adv-x="502" unicode="&#368;" /><glyph d="M148 969H352V910H148ZM250 -11Q189 -11 150.5 2.5Q112 16 90.5 42Q69 68 61.5 106.5Q54 145 54 195V780H121V197Q121 160 125 132Q129 104 142 85.5Q155 67 180.5 57.5Q206 48 250 48Q293 48 319 57.5Q345 67 358 85.5Q371 104 375 132Q379 160 379 197V780H446V195Q446 145 438.5 106.5Q431 68 409.5 42Q388 16 349.5 2.5Q311 -11 250 -11Z" glyph-name="Umacron" horiz-adv-x="502" unicode="&#362;" /><glyph d="M317 32Q321 25 325 19Q332 6 331 -3Q293 -14 268.5 -38Q244 -62 244 -106Q244 -137 260.5 -150Q277 -163 297 -163Q319 -163 334 -155.5Q349 -148 357 -141L372 -187Q356 -198 336 -204.5Q316 -211 290 -211Q273 -211 255 -206Q237 -201 223 -190Q209 -179 200 -161.5Q191 -144 191 -118Q191 -53 241 -11Q183 -10 146.5 4Q110 18 90 44Q70 70 62.5 107.5Q55 145 55 195V780H122V197Q122 160 126 132Q130 104 143.5 85.5Q157 67 182.5 57.5Q208 48 251 48Q294 48 319.5 57.5Q345 67 358.5 85.5Q372 104 376 132Q380 160 380 197V780H447V195Q447 145 439.5 106.5Q432 68 410.5 42Q389 16 350.5 2.5Q312 -11 251 -11H241Q256 2 275 12.5Q294 23 317 32Z" glyph-name="Uogonek" horiz-adv-x="502" unicode="&#370;" /><glyph d="M321 926Q321 961 303 980.5Q285 1000 250 1000Q215 1000 197 980.5Q179 961 179 926Q179 891 197 871.5Q215 852 250 852Q285 852 303 871.5Q321 891 321 926ZM135 926Q135 977 165 1009Q195 1041 250 1041Q305 1041 335 1009Q365 977 365 926Q365 875 335 843Q305 811 250 811Q195 811 165 843Q135 875 135 926ZM250 -11Q189 -11 150.5 2.5Q112 16 90.5 42Q69 68 61.5 106.5Q54 145 54 195V780H121V197Q121 160 125 132Q129 104 142 85.5Q155 67 180.5 57.5Q206 48 250 48Q293 48 319 57.5Q345 67 358 85.5Q371 104 375 132Q379 160 379 197V780H446V195Q446 145 438.5 106.5Q431 68 409.5 42Q388 16 349.5 2.5Q311 -11 250 -11Z" glyph-name="Uring" horiz-adv-x="502" unicode="&#366;" /><glyph d="M402 973Q398 922 377.5 891.5Q357 861 318 862Q295 862 277 873.5Q259 885 243.5 898.5Q228 912 213.5 923.5Q199 935 183 936Q160 937 152.5 919.5Q145 902 143 875L95 882Q98 933 118.5 963.5Q139 994 178 993Q202 992 220 980.5Q238 969 253 955.5Q268 942 282.5 931Q297 920 313 919Q336 917 344 935Q352 953 354 980ZM250 -11Q189 -11 150.5 2.5Q112 16 90.5 42Q69 68 61.5 106.5Q54 145 54 195V780H121V197Q121 160 125 132Q129 104 142 85.5Q155 67 180.5 57.5Q206 48 250 48Q293 48 319 57.5Q345 67 358 85.5Q371 104 375 132Q379 160 379 197V780H446V195Q446 145 438.5 106.5Q431 68 409.5 42Q388 16 349.5 2.5Q311 -11 250 -11Z" glyph-name="Utilde" horiz-adv-x="502" unicode="&#360;" /><glyph d="M191 -9 27 780H94L241 50L388 780H455L290 -9Z" glyph-name="V" horiz-adv-x="482" unicode="V" /><glyph d="M330 690 217 -10H128L36 780H99L176 85L289 780H371L483 85L560 780H623L531 -10H442Z" glyph-name="W" horiz-adv-x="659" unicode="W" /><glyph d="M191 822 292 1030H366L467 822H414L329 981L244 822ZM330 690 217 -10H128L36 780H99L176 85L289 780H371L483 85L560 780H623L531 -10H442Z" glyph-name="Wcircumflex" horiz-adv-x="659" unicode="&#372;" /><glyph d="M262 357 103 0H28L212 409L50 780H123L262 455L401 780H474L312 409L497 0H421Z" glyph-name="X" horiz-adv-x="524" unicode="X" /><glyph d="M393 780H462L274 295L275 0H209L210 295L21 780H91L242 370Z" glyph-name="Y" horiz-adv-x="484" unicode="Y" /><glyph d="M330 1030 270 822H209L259 1030ZM393 780H462L274 295L275 0H209L210 295L21 780H91L242 370Z" glyph-name="Yacute" horiz-adv-x="484" unicode="&#221;" /><glyph d="M103 822 204 1030H278L379 822H326L241 981L156 822ZM393 780H462L274 295L275 0H209L210 295L21 780H91L242 370Z" glyph-name="Ycircumflex" horiz-adv-x="484" unicode="&#374;" /><glyph d="M361 900H285V976H361ZM197 900H121V976H197ZM393 780H462L274 295L275 0H209L210 295L21 780H91L242 370Z" glyph-name="Ydieresis" horiz-adv-x="484" unicode="&#376;" /><glyph d="M32 49 292 604 349 723 190 722H43V780H422V731L162 176L104 57L264 58H430V0H32Z" glyph-name="Z" horiz-adv-x="463" unicode="Z" /><glyph d="M320 1030 260 822H199L249 1030ZM32 49 292 604 349 723 190 722H43V780H422V731L162 176L104 57L264 58H430V0H32Z" glyph-name="Zacute" horiz-adv-x="463" unicode="&#377;" /><glyph d="M373 1030 269 822H193L89 1030H143L231 874L319 1030ZM32 49 292 604 349 723 190 722H43V780H422V731L162 176L104 57L264 58H430V0H32Z" glyph-name="Zcaron" horiz-adv-x="463" unicode="&#381;" /><glyph d="M269 900H193V976H269ZM32 49 292 604 349 723 190 722H43V780H422V731L162 176L104 57L264 58H430V0H32Z" glyph-name="Zdotaccent" horiz-adv-x="463" unicode="&#379;" /><glyph d="M106 147Q106 89 130 67Q154 45 195 45Q232 45 266.5 63.5Q301 82 324 116V281L238 269Q206 264 181.5 256.5Q157 249 140 235.5Q123 222 114.5 200.5Q106 179 106 147ZM226 489Q171 489 149 464.5Q127 440 127 386L61 395Q61 430 69 457Q77 484 96.5 502.5Q116 521 147.5 530.5Q179 540 226 540Q316 540 351.5 503Q387 466 388 393V116L391 0H335L329 65Q301 24 262 7Q223 -10 176 -10Q139 -10 113.5 1.5Q88 13 71.5 33.5Q55 54 47.5 82.5Q40 111 40 144Q40 185 52 215Q64 245 88 265.5Q112 286 147.5 298.5Q183 311 231 317L324 329V401Q324 442 302 465.5Q280 489 226 489Z" glyph-name="a" horiz-adv-x="443" unicode="a" /><glyph d="M412 116 415 0H360L354 65Q324 24 288 7Q252 -10 212 -10Q163 -10 130.5 8.5Q98 27 79 62.5Q60 98 52.5 149Q45 200 45 265Q45 330 52.5 381Q60 432 79 467.5Q98 503 130.5 521.5Q163 540 212 540Q252 540 288 523Q324 506 354 465L360 530H415L412 414ZM348 407Q322 442 292.5 462Q263 482 225 482Q190 482 168 467.5Q146 453 133.5 425Q121 397 116.5 356.5Q112 316 112 265Q112 214 116.5 173.5Q121 133 133.5 105Q146 77 168 62.5Q190 48 225 48Q263 48 292.5 68Q322 88 348 123Z" glyph-name="a.school" horiz-adv-x="468" unicode="&#57681;" /><glyph d="M106 147Q106 89 130 67Q154 45 195 45Q232 45 266.5 63.5Q301 82 324 116V281L238 269Q206 264 181.5 256.5Q157 249 140 235.5Q123 222 114.5 200.5Q106 179 106 147ZM226 489Q171 489 149 464.5Q127 440 127 386L61 395Q61 430 69 457Q77 484 96.5 502.5Q116 521 147.5 530.5Q179 540 226 540Q316 540 351.5 503Q387 466 388 393V116L391 0H335L329 65Q301 24 262 7Q223 -10 176 -10Q139 -10 113.5 1.5Q88 13 71.5 33.5Q55 54 47.5 82.5Q40 111 40 144Q40 185 52 215Q64 245 88 265.5Q112 286 147.5 298.5Q183 311 231 317L324 329V401Q324 442 302 465.5Q280 489 226 489ZM311 800 251 592H190L240 800Z" glyph-name="aacute" horiz-adv-x="443" unicode="&#225;" /><glyph d="M412 116 415 0H360L354 65Q324 24 288 7Q252 -10 212 -10Q163 -10 130.5 8.5Q98 27 79 62.5Q60 98 52.5 149Q45 200 45 265Q45 330 52.5 381Q60 432 79 467.5Q98 503 130.5 521.5Q163 540 212 540Q252 540 288 523Q324 506 354 465L360 530H415L412 414ZM348 407Q322 442 292.5 462Q263 482 225 482Q190 482 168 467.5Q146 453 133.5 425Q121 397 116.5 356.5Q112 316 112 265Q112 214 116.5 173.5Q121 133 133.5 105Q146 77 168 62.5Q190 48 225 48Q263 48 292.5 68Q322 88 348 123ZM321 800 261 592H200L250 800Z" glyph-name="aacute.school" horiz-adv-x="468" unicode="&#57683;" /><glyph d="M106 147Q106 89 130 67Q154 45 195 45Q232 45 266.5 63.5Q301 82 324 116V281L238 269Q206 264 181.5 256.5Q157 249 140 235.5Q123 222 114.5 200.5Q106 179 106 147ZM226 489Q171 489 149 464.5Q127 440 127 386L61 395Q61 430 69 457Q77 484 96.5 502.5Q116 521 147.5 530.5Q179 540 226 540Q316 540 351.5 503Q387 466 388 393V116L391 0H335L329 65Q301 24 262 7Q223 -10 176 -10Q139 -10 113.5 1.5Q88 13 71.5 33.5Q55 54 47.5 82.5Q40 111 40 144Q40 185 52 215Q64 245 88 265.5Q112 286 147.5 298.5Q183 311 231 317L324 329V401Q324 442 302 465.5Q280 489 226 489ZM222 597Q178 597 151 611.5Q124 626 109 652.5Q94 679 89.5 716.5Q85 754 85 800H136Q135 727 151.5 689.5Q168 652 222 652Q276 652 292.5 689.5Q309 727 308 800H359Q359 754 354.5 716.5Q350 679 335 652.5Q320 626 293 611.5Q266 597 222 597Z" glyph-name="abreve" horiz-adv-x="443" unicode="&#259;" /><glyph d="M412 116 415 0H360L354 65Q324 24 288 7Q252 -10 212 -10Q163 -10 130.5 8.5Q98 27 79 62.5Q60 98 52.5 149Q45 200 45 265Q45 330 52.5 381Q60 432 79 467.5Q98 503 130.5 521.5Q163 540 212 540Q252 540 288 523Q324 506 354 465L360 530H415L412 414ZM348 407Q322 442 292.5 462Q263 482 225 482Q190 482 168 467.5Q146 453 133.5 425Q121 397 116.5 356.5Q112 316 112 265Q112 214 116.5 173.5Q121 133 133.5 105Q146 77 168 62.5Q190 48 225 48Q263 48 292.5 68Q322 88 348 123ZM232 597Q188 597 161 611.5Q134 626 119 652.5Q104 679 99.5 716.5Q95 754 95 800H146Q145 727 161.5 689.5Q178 652 232 652Q286 652 302.5 689.5Q319 727 318 800H369Q369 754 364.5 716.5Q360 679 345 652.5Q330 626 303 611.5Q276 597 232 597Z" glyph-name="abreve.school" horiz-adv-x="468" unicode="&#57690;" /><glyph d="M106 147Q106 89 130 67Q154 45 195 45Q232 45 266.5 63.5Q301 82 324 116V281L238 269Q206 264 181.5 256.5Q157 249 140 235.5Q123 222 114.5 200.5Q106 179 106 147ZM226 489Q171 489 149 464.5Q127 440 127 386L61 395Q61 430 69 457Q77 484 96.5 502.5Q116 521 147.5 530.5Q179 540 226 540Q316 540 351.5 503Q387 466 388 393V116L391 0H335L329 65Q301 24 262 7Q223 -10 176 -10Q139 -10 113.5 1.5Q88 13 71.5 33.5Q55 54 47.5 82.5Q40 111 40 144Q40 185 52 215Q64 245 88 265.5Q112 286 147.5 298.5Q183 311 231 317L324 329V401Q324 442 302 465.5Q280 489 226 489ZM84 592 185 800H259L360 592H307L222 751L137 592Z" glyph-name="acircumflex" horiz-adv-x="443" unicode="&#226;" /><glyph d="M412 116 415 0H360L354 65Q324 24 288 7Q252 -10 212 -10Q163 -10 130.5 8.5Q98 27 79 62.5Q60 98 52.5 149Q45 200 45 265Q45 330 52.5 381Q60 432 79 467.5Q98 503 130.5 521.5Q163 540 212 540Q252 540 288 523Q324 506 354 465L360 530H415L412 414ZM348 407Q322 442 292.5 462Q263 482 225 482Q190 482 168 467.5Q146 453 133.5 425Q121 397 116.5 356.5Q112 316 112 265Q112 214 116.5 173.5Q121 133 133.5 105Q146 77 168 62.5Q190 48 225 48Q263 48 292.5 68Q322 88 348 123ZM94 592 195 800H269L370 592H317L232 751L147 592Z" glyph-name="acircumflex.school" horiz-adv-x="468" unicode="&#57684;" /><glyph d="M399 800 339 592H278L328 800Z" glyph-name="acute" horiz-adv-x="620" unicode="&#180;" /><glyph d="M106 147Q106 89 130 67Q154 45 195 45Q232 45 266.5 63.5Q301 82 324 116V281L238 269Q206 264 181.5 256.5Q157 249 140 235.5Q123 222 114.5 200.5Q106 179 106 147ZM226 489Q171 489 149 464.5Q127 440 127 386L61 395Q61 430 69 457Q77 484 96.5 502.5Q116 521 147.5 530.5Q179 540 226 540Q316 540 351.5 503Q387 466 388 393V116L391 0H335L329 65Q301 24 262 7Q223 -10 176 -10Q139 -10 113.5 1.5Q88 13 71.5 33.5Q55 54 47.5 82.5Q40 111 40 144Q40 185 52 215Q64 245 88 265.5Q112 286 147.5 298.5Q183 311 231 317L324 329V401Q324 442 302 465.5Q280 489 226 489ZM342 670H266V746H342ZM178 670H102V746H178Z" glyph-name="adieresis" horiz-adv-x="443" unicode="&#228;" /><glyph d="M412 116 415 0H360L354 65Q324 24 288 7Q252 -10 212 -10Q163 -10 130.5 8.5Q98 27 79 62.5Q60 98 52.5 149Q45 200 45 265Q45 330 52.5 381Q60 432 79 467.5Q98 503 130.5 521.5Q163 540 212 540Q252 540 288 523Q324 506 354 465L360 530H415L412 414ZM348 407Q322 442 292.5 462Q263 482 225 482Q190 482 168 467.5Q146 453 133.5 425Q121 397 116.5 356.5Q112 316 112 265Q112 214 116.5 173.5Q121 133 133.5 105Q146 77 168 62.5Q190 48 225 48Q263 48 292.5 68Q322 88 348 123ZM352 670H276V746H352ZM188 670H112V746H188Z" glyph-name="adieresis.school" horiz-adv-x="468" unicode="&#57685;" /><glyph d="M504 486Q471 486 449 475Q427 464 414 440Q401 416 396 379.5Q391 343 391 292H613Q613 339 609.5 375Q606 411 594.5 436Q583 461 561.5 473.5Q540 486 504 486ZM106 139Q106 87 130.5 66Q155 45 195 45Q231 45 269 63.5Q307 82 333 133Q328 157 325.5 184Q323 211 322 243H238Q206 243 181.5 238.5Q157 234 140 222.5Q123 211 114.5 190.5Q106 170 106 139ZM391 243Q391 194 396 157Q401 120 413.5 95Q426 70 448.5 57Q471 44 507 44Q538 44 558.5 51Q579 58 590 71.5Q601 85 605.5 104Q610 123 610 146L676 137Q676 105 668.5 78Q661 51 642.5 31.5Q624 12 591.5 1Q559 -10 508 -10Q448 -10 410.5 10.5Q373 31 353 71Q333 46 311 30Q289 14 266.5 5Q244 -4 222.5 -7Q201 -10 182 -10Q143 -10 116 1.5Q89 13 72 33Q55 53 47.5 79.5Q40 106 40 136Q40 220 87.5 256Q135 292 232 292H323V401Q323 443 301.5 466Q280 489 226 489Q171 489 149.5 464.5Q128 440 128 386L61 395Q61 430 69 457Q77 484 96.5 502.5Q116 521 147.5 530.5Q179 540 226 540Q285 540 318.5 522Q352 504 367 471Q386 504 418.5 522Q451 540 505 540Q561 540 595.5 522Q630 504 649.5 468.5Q669 433 675.5 382Q682 331 682 265V243Z" glyph-name="ae" horiz-adv-x="722" unicode="&#230;" /><glyph d="M157 345Q180 370 201.5 404Q223 438 239.5 476.5Q256 515 266 556Q276 597 276 638Q276 673 263.5 695Q251 717 224 717Q209 717 197 709.5Q185 702 176 684Q167 666 162 636.5Q157 607 157 564ZM233 -11Q164 -11 129.5 18Q95 47 93 110V221L37 181V244Q49 253 64 263Q79 273 91 284V554Q91 618 101 660.5Q111 703 129 728.5Q147 754 171 764.5Q195 775 223 775Q276 775 304.5 739Q333 703 333 634Q333 578 316.5 523.5Q300 469 274.5 420Q249 371 218 331Q187 291 157 263V134Q157 86 173.5 68.5Q190 51 234 50Q253 49 269 52.5Q285 56 296 61L304 0Q292 -5 274.5 -8Q257 -11 233 -11Z" glyph-name="afii61289" horiz-adv-x="389" unicode="&#8467;" /><glyph d="M106 147Q106 89 130 67Q154 45 195 45Q232 45 266.5 63.5Q301 82 324 116V281L238 269Q206 264 181.5 256.5Q157 249 140 235.5Q123 222 114.5 200.5Q106 179 106 147ZM226 489Q171 489 149 464.5Q127 440 127 386L61 395Q61 430 69 457Q77 484 96.5 502.5Q116 521 147.5 530.5Q179 540 226 540Q316 540 351.5 503Q387 466 388 393V116L391 0H335L329 65Q301 24 262 7Q223 -10 176 -10Q139 -10 113.5 1.5Q88 13 71.5 33.5Q55 54 47.5 82.5Q40 111 40 144Q40 185 52 215Q64 245 88 265.5Q112 286 147.5 298.5Q183 311 231 317L324 329V401Q324 442 302 465.5Q280 489 226 489ZM204 800 254 592H193L133 800Z" glyph-name="agrave" horiz-adv-x="443" unicode="&#224;" /><glyph d="M412 116 415 0H360L354 65Q324 24 288 7Q252 -10 212 -10Q163 -10 130.5 8.5Q98 27 79 62.5Q60 98 52.5 149Q45 200 45 265Q45 330 52.5 381Q60 432 79 467.5Q98 503 130.5 521.5Q163 540 212 540Q252 540 288 523Q324 506 354 465L360 530H415L412 414ZM348 407Q322 442 292.5 462Q263 482 225 482Q190 482 168 467.5Q146 453 133.5 425Q121 397 116.5 356.5Q112 316 112 265Q112 214 116.5 173.5Q121 133 133.5 105Q146 77 168 62.5Q190 48 225 48Q263 48 292.5 68Q322 88 348 123ZM214 800 264 592H203L143 800Z" glyph-name="agrave.school" horiz-adv-x="468" unicode="&#57682;" /><glyph d="M266 -35Q347 -41 381.5 -66Q416 -91 414 -129Q413 -173 380 -192Q347 -211 300 -211Q271 -211 246.5 -205Q222 -199 211 -193L224 -154Q231 -158 241 -162Q249 -165 259.5 -167.5Q270 -170 282 -171Q314 -172 335.5 -163Q357 -154 357 -126Q357 -109 347.5 -99Q338 -89 323 -83Q308 -77 289.5 -74Q271 -71 254 -69Z" glyph-name="altcedilla" horiz-adv-x="620" unicode="&#58390;" /><glyph d="M106 147Q106 89 130 67Q154 45 195 45Q232 45 266.5 63.5Q301 82 324 116V281L238 269Q206 264 181.5 256.5Q157 249 140 235.5Q123 222 114.5 200.5Q106 179 106 147ZM226 489Q171 489 149 464.5Q127 440 127 386L61 395Q61 430 69 457Q77 484 96.5 502.5Q116 521 147.5 530.5Q179 540 226 540Q316 540 351.5 503Q387 466 388 393V116L391 0H335L329 65Q301 24 262 7Q223 -10 176 -10Q139 -10 113.5 1.5Q88 13 71.5 33.5Q55 54 47.5 82.5Q40 111 40 144Q40 185 52 215Q64 245 88 265.5Q112 286 147.5 298.5Q183 311 231 317L324 329V401Q324 442 302 465.5Q280 489 226 489ZM120 739H324V680H120Z" glyph-name="amacron" horiz-adv-x="443" unicode="&#257;" /><glyph d="M412 116 415 0H360L354 65Q324 24 288 7Q252 -10 212 -10Q163 -10 130.5 8.5Q98 27 79 62.5Q60 98 52.5 149Q45 200 45 265Q45 330 52.5 381Q60 432 79 467.5Q98 503 130.5 521.5Q163 540 212 540Q252 540 288 523Q324 506 354 465L360 530H415L412 414ZM348 407Q322 442 292.5 462Q263 482 225 482Q190 482 168 467.5Q146 453 133.5 425Q121 397 116.5 356.5Q112 316 112 265Q112 214 116.5 173.5Q121 133 133.5 105Q146 77 168 62.5Q190 48 225 48Q263 48 292.5 68Q322 88 348 123ZM130 739H334V680H130Z" glyph-name="amacron.school" horiz-adv-x="468" unicode="&#57689;" /><glyph d="M121 622Q121 582 134 542.5Q147 503 167 466Q192 487 213.5 507Q235 527 251 547Q267 567 276.5 589.5Q286 612 286 639Q286 678 270 704.5Q254 731 206 731Q158 731 139.5 701.5Q121 672 121 622ZM222 48Q263 48 294.5 67Q326 86 349 121Q301 174 250 238.5Q199 303 153 371Q128 340 113 303Q98 266 98 213Q98 164 107 132Q116 100 132.5 81.5Q149 63 172 55.5Q195 48 222 48ZM463 354Q463 292 452.5 236.5Q442 181 422 134Q444 111 459.5 95.5Q475 80 480 78V-10Q470 -3 445.5 19.5Q421 42 389 77Q359 36 316.5 13Q274 -10 218 -10Q132 -10 82.5 41Q33 92 33 209Q33 283 57.5 333.5Q82 384 120 423Q94 468 75.5 518.5Q57 569 57 620Q57 660 64.5 691.5Q72 723 89.5 745Q107 767 135 778.5Q163 790 205 790Q247 790 274.5 779.5Q302 769 317.5 749.5Q333 730 339 703.5Q345 677 345 645Q345 607 333.5 577Q322 547 302 520.5Q282 494 255 469Q228 444 197 416Q215 387 237.5 356.5Q260 326 283.5 296Q307 266 331 236.5Q355 207 378 182Q404 257 404 355Q404 364 403 378Q402 392 400.5 407.5Q399 423 396 438.5Q393 454 389 467L447 475Q455 450 459 415.5Q463 381 463 354Z" glyph-name="ampersand" horiz-adv-x="514" unicode="&amp;" /><glyph d="M119 350 228 -130H164L54 350L164 830H228Z" glyph-name="anglebracketleft" horiz-adv-x="274" unicode="&#12296;" /><glyph d="M119 390 228 -90H164L54 390L164 870H228Z" glyph-name="anglebracketleft.cap" horiz-adv-x="274" unicode="&#58519;" /><glyph d="M46 830H110L220 350L110 -130H46L155 350Z" glyph-name="anglebracketright" horiz-adv-x="274" unicode="&#12297;" /><glyph d="M46 870H110L220 390L110 -90H46L155 390Z" glyph-name="anglebracketright.cap" horiz-adv-x="274" unicode="&#58520;" /><glyph d="M106 147Q106 89 130 67Q154 45 195 45Q232 45 266.5 63.5Q301 82 324 116V281L238 269Q206 264 181.5 256.5Q157 249 140 235.5Q123 222 114.5 200.5Q106 179 106 147ZM226 489Q171 489 149 464.5Q127 440 127 386L61 395Q61 430 69 457Q77 484 96.5 502.5Q116 521 147.5 530.5Q179 540 226 540Q316 540 351.5 503Q387 466 388 393V116L391 0Q350 -11 324.5 -37.5Q299 -64 300 -107Q300 -138 316.5 -151Q333 -164 356 -162Q377 -161 391 -154Q405 -147 413 -141L428 -187Q412 -198 392 -204.5Q372 -211 346 -211Q329 -211 312 -206.5Q295 -202 281 -191.5Q267 -181 257.5 -164Q248 -147 247 -122Q244 -74 267 -39.5Q290 -5 333 18L329 65Q301 24 262 7Q223 -10 176 -10Q139 -10 113.5 1.5Q88 13 71.5 33.5Q55 54 47.5 82.5Q40 111 40 144Q40 185 52 215Q64 245 88 265.5Q112 286 147.5 298.5Q183 311 231 317L324 329V401Q324 442 302 465.5Q280 489 226 489Z" glyph-name="aogonek" horiz-adv-x="443" unicode="&#261;" /><glyph d="M348 407Q322 442 292.5 462Q263 482 225 482Q190 482 168 467.5Q146 453 133.5 425Q121 397 116.5 356.5Q112 316 112 265Q112 214 116.5 173.5Q121 133 133.5 105Q146 77 168 62.5Q190 48 225 48Q263 48 292.5 68Q322 88 348 123ZM412 116 415 0Q375 -11 349 -37.5Q323 -64 324 -107Q324 -138 341 -151Q358 -164 380 -162Q401 -161 415 -154Q429 -147 437 -141L452 -187Q436 -198 416 -204.5Q396 -211 370 -211Q353 -211 336 -206.5Q319 -202 305 -191.5Q291 -181 282 -164Q273 -147 272 -122Q268 -74 291 -39.5Q314 -5 358 19L354 65Q324 24 288 7Q252 -10 212 -10Q163 -10 130.5 8.5Q98 27 79 62.5Q60 98 52.5 149Q45 200 45 265Q45 330 52.5 381Q60 432 79 467.5Q98 503 130.5 521.5Q163 540 212 540Q252 540 288 523Q324 506 354 465L360 530H415L412 414Z" glyph-name="aogonek.school" horiz-adv-x="443" unicode="&#57680;" /><glyph d="M495 243Q455 243 422 254Q389 265 357.5 278.5Q326 292 294.5 303Q263 314 226 314Q198 314 177.5 306.5Q157 299 143 291Q126 281 114 269L88 315Q89 317 98.5 326.5Q108 336 125.5 346.5Q143 357 167.5 365Q192 373 225 373Q265 373 298 361.5Q331 350 362.5 336.5Q394 323 425.5 312Q457 301 494 301Q521 301 542 308Q563 315 577 323Q594 333 606 346L632 300Q630 298 621 289Q612 280 594.5 269.5Q577 259 552.5 251Q528 243 495 243ZM495 409Q455 409 422 420Q389 431 357.5 444.5Q326 458 294.5 469Q263 480 226 480Q198 480 177.5 473Q157 466 143 458Q126 448 114 436L88 482Q89 484 98.5 493Q108 502 125.5 512.5Q143 523 167.5 531Q192 539 225 539Q265 539 298 527.5Q331 516 362.5 502.5Q394 489 425.5 478Q457 467 494 467Q521 467 542 474Q563 481 577 489Q594 499 606 512L632 466Q630 464 621 455Q612 446 594.5 435.5Q577 425 552.5 417Q528 409 495 409Z" glyph-name="approxequal" horiz-adv-x="720" unicode="&#8776;" /><glyph d="M106 147Q106 89 130 67Q154 45 195 45Q232 45 266.5 63.5Q301 82 324 116V281L238 269Q206 264 181.5 256.5Q157 249 140 235.5Q123 222 114.5 200.5Q106 179 106 147ZM226 489Q171 489 149 464.5Q127 440 127 386L61 395Q61 430 69 457Q77 484 96.5 502.5Q116 521 147.5 530.5Q179 540 226 540Q316 540 351.5 503Q387 466 388 393V116L391 0H335L329 65Q301 24 262 7Q223 -10 176 -10Q139 -10 113.5 1.5Q88 13 71.5 33.5Q55 54 47.5 82.5Q40 111 40 144Q40 185 52 215Q64 245 88 265.5Q112 286 147.5 298.5Q183 311 231 317L324 329V401Q324 442 302 465.5Q280 489 226 489ZM293 696Q293 731 275 750.5Q257 770 222 770Q187 770 169 750.5Q151 731 151 696Q151 661 169 641.5Q187 622 222 622Q257 622 275 641.5Q293 661 293 696ZM107 696Q107 747 137 779Q167 811 222 811Q277 811 307 779Q337 747 337 696Q337 645 307 613Q277 581 222 581Q167 581 137 613Q107 645 107 696Z" glyph-name="aring" horiz-adv-x="443" unicode="&#229;" /><glyph d="M412 116 415 0H360L354 65Q324 24 288 7Q252 -10 212 -10Q163 -10 130.5 8.5Q98 27 79 62.5Q60 98 52.5 149Q45 200 45 265Q45 330 52.5 381Q60 432 79 467.5Q98 503 130.5 521.5Q163 540 212 540Q252 540 288 523Q324 506 354 465L360 530H415L412 414ZM348 407Q322 442 292.5 462Q263 482 225 482Q190 482 168 467.5Q146 453 133.5 425Q121 397 116.5 356.5Q112 316 112 265Q112 214 116.5 173.5Q121 133 133.5 105Q146 77 168 62.5Q190 48 225 48Q263 48 292.5 68Q322 88 348 123ZM303 696Q303 731 285 750.5Q267 770 232 770Q197 770 179 750.5Q161 731 161 696Q161 661 179 641.5Q197 622 232 622Q267 622 285 641.5Q303 661 303 696ZM117 696Q117 747 147 779Q177 811 232 811Q287 811 317 779Q347 747 347 696Q347 645 317 613Q287 581 232 581Q177 581 147 613Q117 645 117 696Z" glyph-name="aring.school" horiz-adv-x="468" unicode="&#57687;" /><glyph d="M729 400 459 -11H421L151 400H227L337 226L410 110L409 259V780H471V259L470 110L543 226L653 400Z" glyph-name="arrowdown" horiz-adv-x="880" unicode="&#8595;" /><glyph d="M450 101 39 372V408L450 679V603L277 493L161 419L310 421H830V359H310L161 361L277 287L450 177Z" glyph-name="arrowleft" horiz-adv-x="880" unicode="&#8592;" /><glyph d="M430 177 603 287 719 361 570 359H50V421H570L719 419L603 493L430 603V679L841 408V372L430 101Z" glyph-name="arrowright" horiz-adv-x="880" unicode="&#8594;" /><glyph d="M151 380 421 791H459L729 380H653L543 554L470 670L471 521V0H409V521L410 670L337 554L227 380Z" glyph-name="arrowup" horiz-adv-x="880" unicode="&#8593;" /><glyph d="M286 791 491 400H422L329 581L257 725L184 581L91 400H23L228 791Z" glyph-name="asciicircum" horiz-adv-x="514" unicode="^" /><glyph d="M475 332Q473 329 464.5 320Q456 311 441.5 301.5Q427 292 406.5 284.5Q386 277 361 277Q325 277 300 285.5Q275 294 252.5 304.5Q230 315 208 324Q186 333 156 333Q139 333 124.5 327.5Q110 322 100 315.5Q90 309 84 303Q78 297 78 297L45 338Q47 341 55.5 350Q64 359 78.5 368.5Q93 378 113.5 385.5Q134 393 159 393Q195 393 220 384Q245 375 267.5 364.5Q290 354 312 345.5Q334 337 364 337Q381 337 395.5 342.5Q410 348 420 354.5Q430 361 436 367Q442 373 442 373Z" glyph-name="asciitilde" horiz-adv-x="496" unicode="~" /><glyph d="M191 780 183 666 288 710 304 661 195 634 267 549 225 519 165 616 105 519 63 549 135 634 26 661 42 710 147 666 139 780Z" glyph-name="asterisk" horiz-adv-x="330" unicode="*" /><glyph d="M569 65 563 130Q536 92 500 73Q464 54 423 54Q372 54 339 71.5Q306 89 287.5 121Q269 153 261.5 197.5Q254 242 254 297Q254 352 261.5 397Q269 442 287.5 473.5Q306 505 339 522.5Q372 540 423 540Q464 540 500 521.5Q536 503 564 465L569 530H624L622 420V122Q676 122 709.5 140.5Q743 159 761.5 194Q780 229 786.5 278.5Q793 328 793 391Q793 462 781.5 526Q770 590 735 638Q700 686 634.5 714Q569 742 460 742Q359 742 292.5 715.5Q226 689 186 634Q146 579 130 494.5Q114 410 114 295Q114 179 130 95Q146 11 187.5 -44Q229 -99 299.5 -125.5Q370 -152 478 -152Q536 -152 581 -147Q626 -142 663 -134Q700 -126 731.5 -114.5Q763 -103 795 -90L819 -144Q787 -157 753.5 -169Q720 -181 680 -190Q640 -199 590.5 -204.5Q541 -210 478 -210Q360 -210 278 -182Q196 -154 145 -93Q94 -32 71 64Q48 160 48 295Q48 430 71 526Q94 622 144 683Q194 744 272 772Q350 800 460 800Q579 800 655.5 768.5Q732 737 776.5 681.5Q821 626 838.5 551.5Q856 477 856 391Q856 311 843.5 250Q831 189 802.5 148Q774 107 727.5 86Q681 65 613 65ZM557 406Q531 442 501.5 462Q472 482 434 482Q399 482 377 468.5Q355 455 342 431Q329 407 324.5 373Q320 339 320 297Q320 256 324.5 222Q329 188 342 164Q355 140 377 126.5Q399 113 434 113Q472 113 501.5 133Q531 153 557 189Z" glyph-name="at" horiz-adv-x="904" unicode="@" /><glyph d="M569 160 563 225Q536 187 500 168Q464 149 423 149Q372 149 339 166.5Q306 184 287.5 216Q269 248 261.5 292.5Q254 337 254 392Q254 447 261.5 492Q269 537 287.5 568.5Q306 600 339 617.5Q372 635 423 635Q464 635 500 616.5Q536 598 564 560L569 625H624L622 515V217Q676 217 709.5 235.5Q743 254 761.5 289Q780 324 786.5 373.5Q793 423 793 486Q793 557 781.5 621Q770 685 735 733Q700 781 634.5 809Q569 837 460 837Q359 837 292.5 810.5Q226 784 186 729Q146 674 130 589.5Q114 505 114 390Q114 274 130 190Q146 106 187.5 51Q229 -4 299.5 -30.5Q370 -57 478 -57Q536 -57 581 -52Q626 -47 663 -39Q700 -31 731.5 -19.5Q763 -8 795 5L819 -49Q787 -62 753.5 -74Q720 -86 680 -95Q640 -104 590.5 -109.5Q541 -115 478 -115Q360 -115 278 -87Q196 -59 145 2Q94 63 71 159Q48 255 48 390Q48 525 71 621Q94 717 144 778Q194 839 272 867Q350 895 460 895Q579 895 655.5 863.5Q732 832 776.5 776.5Q821 721 838.5 646.5Q856 572 856 486Q856 406 843.5 345Q831 284 802.5 243Q774 202 727.5 181Q681 160 613 160ZM557 501Q531 537 501.5 557Q472 577 434 577Q399 577 377 563.5Q355 550 342 526Q329 502 324.5 468Q320 434 320 392Q320 351 324.5 317Q329 283 342 259Q355 235 377 221.5Q399 208 434 208Q472 208 501.5 228Q531 248 557 284Z" glyph-name="at.cap" horiz-adv-x="904" unicode="&#58643;" /><glyph d="M106 147Q106 89 130 67Q154 45 195 45Q232 45 266.5 63.5Q301 82 324 116V281L238 269Q206 264 181.5 256.5Q157 249 140 235.5Q123 222 114.5 200.5Q106 179 106 147ZM226 489Q171 489 149 464.5Q127 440 127 386L61 395Q61 430 69 457Q77 484 96.5 502.5Q116 521 147.5 530.5Q179 540 226 540Q316 540 351.5 503Q387 466 388 393V116L391 0H335L329 65Q301 24 262 7Q223 -10 176 -10Q139 -10 113.5 1.5Q88 13 71.5 33.5Q55 54 47.5 82.5Q40 111 40 144Q40 185 52 215Q64 245 88 265.5Q112 286 147.5 298.5Q183 311 231 317L324 329V401Q324 442 302 465.5Q280 489 226 489ZM374 743Q370 692 349.5 661.5Q329 631 290 632Q267 632 249 643.5Q231 655 215.5 668.5Q200 682 185.5 693.5Q171 705 155 706Q132 707 124.5 689.5Q117 672 115 645L67 652Q70 703 90.5 733.5Q111 764 150 763Q174 762 192 750.5Q210 739 225 725.5Q240 712 254.5 701Q269 690 285 689Q308 687 316 705Q324 723 326 750Z" glyph-name="atilde" horiz-adv-x="443" unicode="&#227;" /><glyph d="M412 116 415 0H360L354 65Q324 24 288 7Q252 -10 212 -10Q163 -10 130.5 8.5Q98 27 79 62.5Q60 98 52.5 149Q45 200 45 265Q45 330 52.5 381Q60 432 79 467.5Q98 503 130.5 521.5Q163 540 212 540Q252 540 288 523Q324 506 354 465L360 530H415L412 414ZM348 407Q322 442 292.5 462Q263 482 225 482Q190 482 168 467.5Q146 453 133.5 425Q121 397 116.5 356.5Q112 316 112 265Q112 214 116.5 173.5Q121 133 133.5 105Q146 77 168 62.5Q190 48 225 48Q263 48 292.5 68Q322 88 348 123ZM384 743Q380 692 359.5 661.5Q339 631 300 632Q277 632 259 643.5Q241 655 225.5 668.5Q210 682 195.5 693.5Q181 705 165 706Q142 707 134.5 689.5Q127 672 125 645L77 652Q80 703 100.5 733.5Q121 764 160 763Q184 762 202 750.5Q220 739 235 725.5Q250 712 264.5 701Q279 690 295 689Q318 687 326 705Q334 723 336 750Z" glyph-name="atilde.school" horiz-adv-x="468" unicode="&#57686;" /><glyph d="M120 123Q146 88 175.5 68Q205 48 243 48Q278 48 300 62.5Q322 77 334.5 105Q347 133 351.5 173.5Q356 214 356 265Q356 316 351.5 356.5Q347 397 334.5 425Q322 453 300 467.5Q278 482 243 482Q205 482 175.5 462Q146 442 120 407ZM255 540Q304 540 336.5 521.5Q369 503 388 467.5Q407 432 415 381Q423 330 423 265Q423 200 415 149Q407 98 388 62.5Q369 27 336.5 8.5Q304 -10 255 -10Q215 -10 179.5 7Q144 24 115 65L109 0H53L55 116V800H120V472Q149 508 182 524Q215 540 255 540Z" glyph-name="b" horiz-adv-x="468" unicode="b" /><glyph d="M22 870H91L321 -90H251Z" glyph-name="backslash" horiz-adv-x="342" unicode="\" /><glyph d="M27 800H97L293 -20H223Z" glyph-name="backslash.cap" horiz-adv-x="320" unicode="&#58466;" /><glyph d="M320 265 190 394 236 440 365 310 494 440 540 394 410 265 540 136 494 90 365 220 236 90 190 136ZM170 464V66H560V464ZM100 530H630V0H100Z" glyph-name="ballotboxwithx" horiz-adv-x="730" unicode="&#9746;" /><glyph d="M174 -130H108V830H174Z" glyph-name="bar" horiz-adv-x="282" unicode="|" /><glyph d="M174 -20H108V800H174Z" glyph-name="bar.cap" horiz-adv-x="282" unicode="&#58467;" /><glyph d="M98 390Q98 473 129.5 546Q161 619 215 673Q269 727 342 758.5Q415 790 498 790Q581 790 654 758.5Q727 727 781 673Q835 619 866.5 546Q898 473 898 390Q898 307 866.5 234Q835 161 781 107Q727 53 654 21.5Q581 -10 498 -10Q415 -10 342 21.5Q269 53 215 107Q161 161 129.5 234Q98 307 98 390Z" glyph-name="blackcircle" horiz-adv-x="996" unicode="&#9679;" /><glyph d="M638 0H108V530H638Z" glyph-name="blacksmallsquare" horiz-adv-x="746" unicode="&#9642;" /><glyph d="M888 0H108V780H888Z" glyph-name="blacksquare" horiz-adv-x="996" unicode="&#9632;" /><glyph d="M293 -130H261Q210 -130 179 -116.5Q148 -103 132 -81Q116 -59 111 -31.5Q106 -4 106 24V232Q106 286 88.5 303Q71 320 36 320H16V380H36Q54 380 67 383.5Q80 387 88.5 397Q97 407 101.5 424.5Q106 442 106 469V676Q106 704 111 731.5Q116 759 132 781Q148 803 179 816.5Q210 830 261 830H293V771H257Q239 771 223.5 767Q208 763 196.5 753Q185 743 178.5 725.5Q172 708 172 681V466Q172 432 160 398Q148 364 117 350Q148 336 160 302Q172 268 172 234V19Q172 -8 178.5 -25.5Q185 -43 196.5 -53Q208 -63 223.5 -67Q239 -71 257 -71H293Z" glyph-name="braceleft" horiz-adv-x="312" unicode="{" /><glyph d="M294 -90H261Q210 -90 179 -76.5Q148 -63 132 -41Q116 -19 111 8.5Q106 36 106 64V272Q106 326 88.5 343Q71 360 36 360H16V420H36Q54 420 67 423.5Q80 427 88.5 437Q97 447 101.5 464.5Q106 482 106 509V716Q106 744 111 771.5Q116 799 132 821Q148 843 179 856.5Q210 870 261 870H294V811H257Q240 811 224.5 807Q209 803 197.5 793Q186 783 179 765.5Q172 748 172 721V506Q172 472 160 438Q148 404 117 390Q148 376 160 342Q172 308 172 274V59Q172 32 179 14.5Q186 -3 197.5 -13Q209 -23 224.5 -27Q240 -31 257 -31H294Z" glyph-name="braceleft.cap" horiz-adv-x="312" unicode="&#58517;" /><glyph d="M17 771V830H49Q100 830 131 816.5Q162 803 178 781Q194 759 199 731.5Q204 704 204 676V468Q204 414 221.5 397Q239 380 274 380H294V320H274Q257 320 244 316.5Q231 313 222 303Q213 293 208.5 275.5Q204 258 204 231V24Q204 -4 199 -31.5Q194 -59 178 -81Q162 -103 131 -116.5Q100 -130 49 -130H17V-71H53Q71 -71 86.5 -67Q102 -63 113.5 -53Q125 -43 131.5 -25.5Q138 -8 138 19V234Q138 268 150 302Q162 336 193 350Q162 364 150 398Q138 432 138 466V681Q138 708 131.5 725.5Q125 743 113.5 753Q102 763 86.5 767Q71 771 53 771Z" glyph-name="braceright" horiz-adv-x="312" unicode="}" /><glyph d="M17 811V870H49Q100 870 131 856.5Q162 843 178 821Q194 799 199 771.5Q204 744 204 716V508Q204 454 221.5 437Q239 420 274 420H294V360H274Q257 360 244 356.5Q231 353 222 343Q213 333 208.5 315.5Q204 298 204 271V64Q204 36 199 8.5Q194 -19 178 -41Q162 -63 131 -76.5Q100 -90 49 -90H17V-31H53Q71 -31 86.5 -27Q102 -23 113.5 -13Q125 -3 131.5 14.5Q138 32 138 59V274Q138 308 150 342Q162 376 193 390Q162 404 150 438Q138 472 138 506V721Q138 748 131.5 765.5Q125 783 113.5 793Q102 803 86.5 807Q71 811 53 811Z" glyph-name="braceright.cap" horiz-adv-x="312" unicode="&#58518;" /><glyph d="M167 771V-71H252V-130H100V830H252V771Z" glyph-name="bracketleft" horiz-adv-x="274" unicode="[" /><glyph d="M167 811V-31H252V-90H100V870H252V811Z" glyph-name="bracketleft.cap" horiz-adv-x="274" unicode="&#58515;" /><glyph d="M116 -71V771H31V830H182V-130H31V-71Z" glyph-name="bracketright" horiz-adv-x="283" unicode="]" /><glyph d="M107 -31V811H22V870H174V-90H22V-31Z" glyph-name="bracketright.cap" horiz-adv-x="274" unicode="&#58516;" /><glyph d="M310 597Q266 597 239 611.5Q212 626 197 652.5Q182 679 177.5 716.5Q173 754 173 800H224Q223 727 239.5 689.5Q256 652 310 652Q364 652 380.5 689.5Q397 727 396 800H447Q447 754 442.5 716.5Q438 679 423 652.5Q408 626 381 611.5Q354 597 310 597Z" glyph-name="breve" horiz-adv-x="620" unicode="&#728;" /><glyph d="M177 377H110V830H177ZM177 -130H110V323H177Z" glyph-name="brokenbar" horiz-adv-x="287" unicode="&#166;" /><glyph d="M177 417H110V800H177ZM177 -20H110V363H177Z" glyph-name="brokenbar.cap" horiz-adv-x="287" unicode="&#58469;" /><glyph d="M341 198H66V472H341Z" glyph-name="bullet" horiz-adv-x="407" unicode="&#8226;" /><glyph d="M341 253H66V527H341Z" glyph-name="bullet.cap" horiz-adv-x="407" unicode="&#58470;" /><glyph d="M167 339Q167 282 188.5 232.5Q210 183 246.5 146.5Q283 110 332.5 88.5Q382 67 439 67Q496 67 545.5 88.5Q595 110 632 146.5Q669 183 690.5 232.5Q712 282 712 339Q712 396 690.5 445.5Q669 495 632 532Q595 569 545.5 590.5Q496 612 439 612Q382 612 332.5 590.5Q283 569 246.5 532Q210 495 188.5 445.5Q167 396 167 339ZM340 390Q340 421 352 448.5Q364 476 384 496Q404 516 431.5 528Q459 540 490 540Q521 540 548.5 528Q576 516 596 496Q616 476 628 448.5Q640 421 640 390Q640 359 628 331.5Q616 304 596 284Q576 264 548.5 252Q521 240 490 240Q459 240 431.5 252Q404 264 384 284Q364 304 352 331.5Q340 359 340 390ZM90 390Q90 473 121.5 546Q153 619 207 673Q261 727 334 758.5Q407 790 490 790Q573 790 646 758.5Q719 727 773 673Q827 619 858.5 546Q890 473 890 390Q890 307 858.5 234Q827 161 773 107Q719 53 646 21.5Q573 -10 490 -10Q407 -10 334 21.5Q261 53 207 107Q153 161 121.5 234Q90 307 90 390Z" glyph-name="bullseye" horiz-adv-x="980" unicode="&#9678;" /><glyph d="M110 265Q110 205 117 163Q124 121 138.5 95Q153 69 175.5 57.5Q198 46 230 46Q261 46 280 53Q299 60 309.5 73Q320 86 323.5 104.5Q327 123 327 145L391 136Q391 104 384.5 77.5Q378 51 360 31.5Q342 12 310.5 1Q279 -10 230 -10Q182 -10 147 5.5Q112 21 89.5 54Q67 87 56 139Q45 191 45 265Q45 339 56 391Q67 443 89.5 476Q112 509 147 524.5Q182 540 230 540Q279 540 310.5 529Q342 518 360 498.5Q378 479 384.5 452Q391 425 391 394L327 385Q327 407 323.5 425.5Q320 444 309.5 457Q299 470 280 477Q261 484 230 484Q198 484 175.5 472.5Q153 461 138.5 435Q124 409 117 367Q110 325 110 265Z" glyph-name="c" horiz-adv-x="424" unicode="c" /><glyph d="M314 800 254 592H193L243 800ZM110 265Q110 205 117 163Q124 121 138.5 95Q153 69 175.5 57.5Q198 46 230 46Q261 46 280 53Q299 60 309.5 73Q320 86 323.5 104.5Q327 123 327 145L391 136Q391 104 384.5 77.5Q378 51 360 31.5Q342 12 310.5 1Q279 -10 230 -10Q182 -10 147 5.5Q112 21 89.5 54Q67 87 56 139Q45 191 45 265Q45 339 56 391Q67 443 89.5 476Q112 509 147 524.5Q182 540 230 540Q279 540 310.5 529Q342 518 360 498.5Q378 479 384.5 452Q391 425 391 394L327 385Q327 407 323.5 425.5Q320 444 309.5 457Q299 470 280 477Q261 484 230 484Q198 484 175.5 472.5Q153 461 138.5 435Q124 409 117 367Q110 325 110 265Z" glyph-name="cacute" horiz-adv-x="424" unicode="&#263;" /><glyph d="M452 800 348 592H272L168 800H222L310 644L398 800Z" glyph-name="caron" horiz-adv-x="620" unicode="&#711;" /><glyph d="M420 800 396 592H360V800Z" glyph-name="caronSlovak" horiz-adv-x="620" unicode="&#58387;" /><glyph d="M367 800 263 592H187L83 800H137L225 644L313 800ZM110 265Q110 205 117 163Q124 121 138.5 95Q153 69 175.5 57.5Q198 46 230 46Q261 46 280 53Q299 60 309.5 73Q320 86 323.5 104.5Q327 123 327 145L391 136Q391 104 384.5 77.5Q378 51 360 31.5Q342 12 310.5 1Q279 -10 230 -10Q182 -10 147 5.5Q112 21 89.5 54Q67 87 56 139Q45 191 45 265Q45 339 56 391Q67 443 89.5 476Q112 509 147 524.5Q182 540 230 540Q279 540 310.5 529Q342 518 360 498.5Q378 479 384.5 452Q391 425 391 394L327 385Q327 407 323.5 425.5Q320 444 309.5 457Q299 470 280 477Q261 484 230 484Q198 484 175.5 472.5Q153 461 138.5 435Q124 409 117 367Q110 325 110 265Z" glyph-name="ccaron" horiz-adv-x="424" unicode="&#269;" /><glyph d="M110 265Q110 205 117 163Q124 121 138.5 95Q153 69 175.5 57.5Q198 46 230 46Q261 46 280 53Q299 60 309.5 73Q320 86 323.5 104.5Q327 123 327 145L391 136Q391 105 384.5 79Q378 53 361.5 33.5Q345 14 316 2.5Q287 -9 242 -10L234 -40Q285 -48 314 -69.5Q343 -91 341 -129Q340 -173 307 -192Q274 -211 227 -211Q198 -211 173.5 -205Q149 -199 138 -193L151 -154Q158 -158 168 -162Q176 -165 186.5 -167.5Q197 -170 209 -171Q241 -172 262.5 -163Q284 -154 284 -126Q284 -109 274.5 -99Q265 -89 250 -83Q235 -77 216.5 -74Q198 -71 181 -69L202 -8Q161 -4 131 13.5Q101 31 82 64Q63 97 54 147Q45 197 45 265Q45 339 56 391Q67 443 89.5 476Q112 509 147 524.5Q182 540 230 540Q279 540 310.5 529Q342 518 360 498.5Q378 479 384.5 452Q391 425 391 394L327 385Q327 407 323.5 425.5Q320 444 309.5 457Q299 470 280 477Q261 484 230 484Q198 484 175.5 472.5Q153 461 138.5 435Q124 409 117 367Q110 325 110 265Z" glyph-name="ccedilla" horiz-adv-x="424" unicode="&#231;" /><glyph d="M87 592 188 800H262L363 592H310L225 751L140 592ZM110 265Q110 205 117 163Q124 121 138.5 95Q153 69 175.5 57.5Q198 46 230 46Q261 46 280 53Q299 60 309.5 73Q320 86 323.5 104.5Q327 123 327 145L391 136Q391 104 384.5 77.5Q378 51 360 31.5Q342 12 310.5 1Q279 -10 230 -10Q182 -10 147 5.5Q112 21 89.5 54Q67 87 56 139Q45 191 45 265Q45 339 56 391Q67 443 89.5 476Q112 509 147 524.5Q182 540 230 540Q279 540 310.5 529Q342 518 360 498.5Q378 479 384.5 452Q391 425 391 394L327 385Q327 407 323.5 425.5Q320 444 309.5 457Q299 470 280 477Q261 484 230 484Q198 484 175.5 472.5Q153 461 138.5 435Q124 409 117 367Q110 325 110 265Z" glyph-name="ccircumflex" horiz-adv-x="424" unicode="&#265;" /><glyph d="M263 670H187V746H263ZM110 265Q110 205 117 163Q124 121 138.5 95Q153 69 175.5 57.5Q198 46 230 46Q261 46 280 53Q299 60 309.5 73Q320 86 323.5 104.5Q327 123 327 145L391 136Q391 104 384.5 77.5Q378 51 360 31.5Q342 12 310.5 1Q279 -10 230 -10Q182 -10 147 5.5Q112 21 89.5 54Q67 87 56 139Q45 191 45 265Q45 339 56 391Q67 443 89.5 476Q112 509 147 524.5Q182 540 230 540Q279 540 310.5 529Q342 518 360 498.5Q378 479 384.5 452Q391 425 391 394L327 385Q327 407 323.5 425.5Q320 444 309.5 457Q299 470 280 477Q261 484 230 484Q198 484 175.5 472.5Q153 461 138.5 435Q124 409 117 367Q110 325 110 265Z" glyph-name="cdotaccent" horiz-adv-x="424" unicode="&#267;" /><glyph d="M321 12 307 -40Q358 -48 387 -69.5Q416 -91 414 -129Q413 -173 380 -192Q347 -211 300 -211Q271 -211 246.5 -205Q222 -199 211 -193L224 -154Q231 -158 241 -162Q249 -165 259.5 -167.5Q270 -170 282 -171Q314 -172 335.5 -163Q357 -154 357 -126Q357 -109 347.5 -99Q338 -89 323 -83Q308 -77 289.5 -74Q271 -71 254 -69L282 12Z" glyph-name="cedilla" horiz-adv-x="620" unicode="&#184;" /><glyph d="M110 382Q110 322 117 280Q124 238 138.5 212Q153 186 175.5 174.5Q198 163 230 163Q261 163 280 170Q299 177 309.5 190Q320 203 323.5 221Q327 239 327 261L391 252Q391 220 384.5 193.5Q378 167 360 147.5Q342 128 310.5 117Q279 106 230 106H215L183 0H122L159 116Q99 136 72 200Q45 264 45 382Q45 456 56 508.5Q67 561 89.5 594Q112 627 147 642.5Q182 658 230 658Q235 658 240 658Q245 658 250 657L282 764H343L305 648Q356 633 373.5 596.5Q391 560 391 512L327 503Q327 525 323.5 543Q320 561 309.5 574Q299 587 280 594Q261 601 230 601Q198 601 175.5 589.5Q153 578 138.5 552Q124 526 117 484Q110 442 110 382Z" glyph-name="cent" horiz-adv-x="424" unicode="&#162;" /><glyph d="M98 265Q98 322 119.5 372Q141 422 178.5 459.5Q216 497 266 518.5Q316 540 373 540Q430 540 480 518.5Q530 497 567.5 459.5Q605 422 626.5 372Q648 322 648 265Q648 208 626.5 158Q605 108 567.5 70.5Q530 33 480 11.5Q430 -10 373 -10Q316 -10 266 11.5Q216 33 178.5 70.5Q141 108 119.5 158Q98 208 98 265Z" glyph-name="circle" horiz-adv-x="746" /><glyph d="M172 592 273 800H347L448 592H395L310 751L225 592Z" glyph-name="circumflex" horiz-adv-x="620" unicode="&#710;" /><glyph d="M359 0Q378 37 391.5 73Q405 109 414.5 147Q424 185 430.5 227Q437 269 441 320L438 321Q425 290 406 261Q387 232 362 209.5Q337 187 306 173.5Q275 160 238 160Q201 160 169 173.5Q137 187 113 210.5Q89 234 75.5 265.5Q62 297 62 334Q62 373 74.5 406Q87 439 110 463Q133 487 165 500.5Q197 514 236 514Q262 514 282.5 507Q303 500 320 491L322 493Q305 518 294.5 547.5Q284 577 284 610Q284 647 297.5 680Q311 713 334.5 737.5Q358 762 390 776Q422 790 460 790Q498 790 530 776Q562 762 585.5 737.5Q609 713 622.5 680Q636 647 636 610Q636 577 625.5 547.5Q615 518 598 493L600 491Q617 500 637.5 507Q658 514 684 514Q723 514 755 500.5Q787 487 810 463Q833 439 845.5 406Q858 373 858 334Q858 297 844.5 265.5Q831 234 807 210.5Q783 187 751 173.5Q719 160 682 160Q645 160 614 173.5Q583 187 558 209.5Q533 232 514 261Q495 290 482 321L479 320Q483 269 489.5 227Q496 185 505.5 147Q515 109 528.5 73Q542 37 561 0Z" glyph-name="club" horiz-adv-x="920" unicode="&#9827;" /><glyph d="M128 367H52V443H128ZM128 0H52V76H128Z" glyph-name="colon" horiz-adv-x="180" unicode=":" /><glyph d="M168 367H92V443H168ZM168 0H92V76H168Z" glyph-name="colon.T" horiz-adv-x="260" /><glyph d="M130 76 84 -153H37L51 76Z" glyph-name="comma" horiz-adv-x="180" unicode="," /><glyph d="M170 76 124 -153H77L91 76Z" glyph-name="comma.T" horiz-adv-x="260" /><glyph d="M348 -40 316 -200H263L273 -40Z" glyph-name="commaaccent" horiz-adv-x="620" unicode="&#58388;" /><glyph d="M282 390Q282 299 326 253.5Q370 208 449 206Q516 204 550 231Q584 258 595 308L666 299Q659 265 643.5 236.5Q628 208 602 188Q576 168 538.5 156.5Q501 145 450 145Q338 145 275.5 209.5Q213 274 213 390Q213 506 275.5 570.5Q338 635 450 635Q501 635 538.5 623.5Q576 612 602 592Q628 572 643.5 543.5Q659 515 666 481L595 472Q584 521 550 548Q516 575 449 574Q370 572 326 526.5Q282 481 282 390ZM115 390Q115 321 141.5 260Q168 199 213.5 153.5Q259 108 320 81.5Q381 55 450 55Q519 55 580 81.5Q641 108 686.5 153.5Q732 199 758.5 260Q785 321 785 390Q785 459 758.5 520Q732 581 686.5 626.5Q641 672 580 698.5Q519 725 450 725Q381 725 320 698.5Q259 672 213.5 626.5Q168 581 141.5 520Q115 459 115 390ZM50 390Q50 473 81.5 546Q113 619 167 673Q221 727 294 758.5Q367 790 450 790Q533 790 606 758.5Q679 727 733 673Q787 619 818.5 546Q850 473 850 390Q850 307 818.5 234Q787 161 733 107Q679 53 606 21.5Q533 -10 450 -10Q367 -10 294 21.5Q221 53 167 107Q113 161 81.5 234Q50 307 50 390Z" glyph-name="copyright" horiz-adv-x="900" unicode="&#169;" /><glyph d="M41 585Q41 695 79.5 743Q118 791 197 791Q236 791 261 780.5Q286 770 300.5 753Q315 736 320.5 713.5Q326 691 326 666L270 658Q270 696 255 720.5Q240 745 197 745Q174 745 156 737Q138 729 125 710.5Q112 692 105 661.5Q98 631 98 585Q98 539 105 508.5Q112 478 125 459.5Q138 441 156 433Q174 425 197 425Q240 425 255 449.5Q270 474 270 512L326 504Q326 479 320.5 456.5Q315 434 300.5 416.5Q286 399 261 389Q236 379 197 379Q118 379 79.5 427Q41 475 41 585Z" glyph-name="cordinal" horiz-adv-x="381" unicode="&#57729;" /><glyph d="M143 192Q114 227 98 274.5Q82 322 82 382Q82 441 98 489Q114 537 143 572L46 670L89 713L187 614Q265 675 378 675Q434 675 483 659.5Q532 644 570 615L668 713L711 670L614 572Q643 537 659 489Q675 441 675 382Q675 322 659 274.5Q643 227 614 192L711 94L668 51L569 149Q531 120 482.5 104.5Q434 89 378 89Q265 89 187 149L89 51L46 94ZM378 151Q429 151 471.5 166Q514 181 544.5 210.5Q575 240 591.5 283Q608 326 608 382Q608 438 591.5 481Q575 524 544.5 553.5Q514 583 471.5 598Q429 613 378 613Q327 613 285 598Q243 583 212.5 553.5Q182 524 165.5 481Q149 438 149 382Q149 326 165.5 283Q182 240 212.5 210.5Q243 181 285 166Q327 151 378 151Z" glyph-name="currency" horiz-adv-x="757" unicode="&#164;" /><glyph d="M348 407Q322 442 292.5 462Q263 482 225 482Q190 482 168 467.5Q146 453 133.5 425Q121 397 116.5 356.5Q112 316 112 265Q112 214 116.5 173.5Q121 133 133.5 105Q146 77 168 62.5Q190 48 225 48Q263 48 292.5 68Q322 88 348 123ZM212 540Q252 540 285.5 524Q319 508 348 472V800H412V116L415 0H359L353 65Q323 24 287.5 7Q252 -10 212 -10Q163 -10 130.5 8.5Q98 27 79 62.5Q60 98 52.5 149Q45 200 45 265Q45 330 52.5 381Q60 432 79 467.5Q98 503 130.5 521.5Q163 540 212 540Z" glyph-name="d" horiz-adv-x="468" unicode="d" /><glyph d="M189 780 179 647 312 658V606L179 616L197 390H130L147 616L14 606V658L147 647L137 780Z" glyph-name="dagger" horiz-adv-x="327" unicode="&#8224;" /><glyph d="M189 780 179 647 312 658V606L178 616L184 551L178 486L312 497V445L179 455L197 229H130L147 455L14 445V497L147 486L142 551L147 616L14 606V658L147 647L137 780Z" glyph-name="daggerdbl" horiz-adv-x="327" unicode="&#8225;" /><glyph d="M532 800 508 592H472V800ZM348 407Q322 442 292.5 462Q263 482 225 482Q190 482 168 467.5Q146 453 133.5 425Q121 397 116.5 356.5Q112 316 112 265Q112 214 116.5 173.5Q121 133 133.5 105Q146 77 168 62.5Q190 48 225 48Q263 48 292.5 68Q322 88 348 123ZM212 540Q252 540 285.5 524Q319 508 348 472V800H412V116L415 0H359L353 65Q323 24 287.5 7Q252 -10 212 -10Q163 -10 130.5 8.5Q98 27 79 62.5Q60 98 52.5 149Q45 200 45 265Q45 330 52.5 381Q60 432 79 467.5Q98 503 130.5 521.5Q163 540 212 540Z" glyph-name="dcaron" horiz-adv-x="498" unicode="&#271;" /><glyph d="M348 407Q322 442 292.5 462Q263 482 225 482Q190 482 168 467.5Q146 453 133.5 425Q121 397 116.5 356.5Q112 316 112 265Q112 214 116.5 173.5Q121 133 133.5 105Q146 77 168 62.5Q190 48 225 48Q263 48 292.5 68Q322 88 348 123ZM212 540Q252 540 285.5 524Q319 508 348 472V650H234V697H348V800H412V697H495V650H412V116L415 0H359L353 65Q323 24 287.5 7Q252 -10 212 -10Q163 -10 130.5 8.5Q98 27 79 62.5Q60 98 52.5 149Q45 200 45 265Q45 330 52.5 381Q60 432 79 467.5Q98 503 130.5 521.5Q163 540 212 540Z" glyph-name="dcroat" horiz-adv-x="490" unicode="&#273;" /><glyph d="M253 413Q212 413 177.5 424Q143 435 117.5 457.5Q92 480 77.5 514Q63 548 63 594Q63 640 77.5 674Q92 708 117.5 730.5Q143 753 177.5 764Q212 775 253 775Q294 775 329 764Q364 753 389.5 730.5Q415 708 429.5 674Q444 640 444 594Q444 548 429.5 514Q415 480 389.5 457.5Q364 435 329 424Q294 413 253 413ZM253 466Q314 466 349.5 497Q385 528 385 594Q385 660 349.5 691Q314 722 253 722Q192 722 156.5 691Q121 660 121 594Q121 528 156.5 497Q192 466 253 466Z" glyph-name="degree" horiz-adv-x="506" unicode="&#176;" /><glyph d="M827 390Q774 348 722.5 300.5Q671 253 624 201.5Q577 150 535.5 96.5Q494 43 461 -10H459Q426 43 384.5 96.5Q343 150 296 201.5Q249 253 197.5 300.5Q146 348 93 390Q146 432 197.5 479.5Q249 527 296 578.5Q343 630 384.5 683.5Q426 737 459 790H461Q494 737 535.5 683.5Q577 630 624 578.5Q671 527 722.5 479.5Q774 432 827 390Z" glyph-name="diamond" horiz-adv-x="920" unicode="&#9830;" /><glyph d="M430 670H354V746H430ZM266 670H190V746H266Z" glyph-name="dieresis" horiz-adv-x="620" unicode="&#168;" /><glyph d="M403 570H317V655H403ZM403 125H317V210H403ZM90 360V420H630V360Z" glyph-name="divide" horiz-adv-x="720" unicode="&#247;" /><glyph d="M50 360V420H830V360ZM483 695H397V780H483ZM483 0H397V85H483Z" glyph-name="divide.cap" horiz-adv-x="880" unicode="&#58772;" /><glyph d="M201 164Q263 164 287 191Q311 218 311 261Q311 286 304.5 302.5Q298 319 284.5 330.5Q271 342 249 350Q227 358 197 366Q170 372 144.5 381Q119 390 99.5 406Q80 422 68 446.5Q56 471 56 509Q56 580 96.5 619Q137 658 228 658L261 764H322L287 654Q333 648 373 627L356 569Q327 588 296.5 594.5Q266 601 229 601Q200 601 180 594Q160 587 147.5 574.5Q135 562 129.5 545.5Q124 529 124 511Q124 491 128.5 476.5Q133 462 145 451.5Q157 441 176.5 432.5Q196 424 226 416Q256 408 283 399Q310 390 331 373.5Q352 357 364.5 330.5Q377 304 377 262Q377 188 335.5 147Q294 106 198 106L165 0H104L140 110Q111 115 86 122.5Q61 130 40 143L57 203Q92 182 125.5 173Q159 164 201 164Z" glyph-name="dollar" horiz-adv-x="415" unicode="$" /><glyph d="M348 670H272V746H348Z" glyph-name="dotaccent" horiz-adv-x="620" unicode="&#729;" /><glyph d="M348 -200H272V-124H348Z" glyph-name="dotbelow" horiz-adv-x="620" unicode="&#58389;" /><glyph d="M58 530H122V0H58Z" glyph-name="dotlessi" horiz-adv-x="180" unicode="&#305;" /><glyph d="M122 -105Q122 -155 97 -183Q72 -211 11 -211Q-11 -211 -26.5 -208Q-42 -205 -52 -201L-46 -144Q-40 -146 -27 -149.5Q-14 -153 3 -153Q28 -153 43 -142Q58 -131 58 -95V530H122Z" glyph-name="dotlessj" horiz-adv-x="180" unicode="&#567;" /><glyph d="M288 -130H220V830H288ZM177 -130H110V830H177Z" glyph-name="doublebar" horiz-adv-x="397" unicode="&#8214;" /><glyph d="M288 -20H220V800H288ZM177 -20H110V800H177Z" glyph-name="doublebar.cap" horiz-adv-x="397" unicode="&#58468;" /><glyph d="M227 800 278 592H218L155 800ZM351 800 402 592H342L280 800Z" glyph-name="doublegrave" horiz-adv-x="620" unicode="&#58386;" /><glyph d="M226 486Q193 486 171 475Q149 464 136 440.5Q123 417 118 380.5Q113 344 113 294H335Q335 340 331 376Q327 412 315.5 436.5Q304 461 282.5 473.5Q261 486 226 486ZM113 241Q113 193 117.5 156Q122 119 135 94Q148 69 170.5 56.5Q193 44 229 44Q261 44 281 51Q301 58 312.5 71.5Q324 85 328 104Q332 123 332 146L398 137Q398 105 390.5 78Q383 51 364.5 31.5Q346 12 313.5 1Q281 -10 230 -10Q174 -10 138 8.5Q102 27 81.5 62Q61 97 53 148Q45 199 45 265Q45 331 52.5 382.5Q60 434 80.5 469Q101 504 136 522Q171 540 227 540Q283 540 317.5 522Q352 504 371.5 468.5Q391 433 397.5 382Q404 331 404 265V241Z" glyph-name="e" horiz-adv-x="444" unicode="e" /><glyph d="M315 800 255 592H194L244 800ZM226 486Q193 486 171 475Q149 464 136 440.5Q123 417 118 380.5Q113 344 113 294H335Q335 340 331 376Q327 412 315.5 436.5Q304 461 282.5 473.5Q261 486 226 486ZM113 241Q113 193 117.5 156Q122 119 135 94Q148 69 170.5 56.5Q193 44 229 44Q261 44 281 51Q301 58 312.5 71.5Q324 85 328 104Q332 123 332 146L398 137Q398 105 390.5 78Q383 51 364.5 31.5Q346 12 313.5 1Q281 -10 230 -10Q174 -10 138 8.5Q102 27 81.5 62Q61 97 53 148Q45 199 45 265Q45 331 52.5 382.5Q60 434 80.5 469Q101 504 136 522Q171 540 227 540Q283 540 317.5 522Q352 504 371.5 468.5Q391 433 397.5 382Q404 331 404 265V241Z" glyph-name="eacute" horiz-adv-x="444" unicode="&#233;" /><glyph d="M226 597Q182 597 155 611.5Q128 626 113 652.5Q98 679 93.5 716.5Q89 754 89 800H140Q139 727 155.5 689.5Q172 652 226 652Q280 652 296.5 689.5Q313 727 312 800H363Q363 754 358.5 716.5Q354 679 339 652.5Q324 626 297 611.5Q270 597 226 597ZM226 486Q193 486 171 475Q149 464 136 440.5Q123 417 118 380.5Q113 344 113 294H335Q335 340 331 376Q327 412 315.5 436.5Q304 461 282.5 473.5Q261 486 226 486ZM113 241Q113 193 117.5 156Q122 119 135 94Q148 69 170.5 56.5Q193 44 229 44Q261 44 281 51Q301 58 312.5 71.5Q324 85 328 104Q332 123 332 146L398 137Q398 105 390.5 78Q383 51 364.5 31.5Q346 12 313.5 1Q281 -10 230 -10Q174 -10 138 8.5Q102 27 81.5 62Q61 97 53 148Q45 199 45 265Q45 331 52.5 382.5Q60 434 80.5 469Q101 504 136 522Q171 540 227 540Q283 540 317.5 522Q352 504 371.5 468.5Q391 433 397.5 382Q404 331 404 265V241Z" glyph-name="ebreve" horiz-adv-x="444" unicode="&#277;" /><glyph d="M368 800 264 592H188L84 800H138L226 644L314 800ZM226 486Q193 486 171 475Q149 464 136 440.5Q123 417 118 380.5Q113 344 113 294H335Q335 340 331 376Q327 412 315.5 436.5Q304 461 282.5 473.5Q261 486 226 486ZM113 241Q113 193 117.5 156Q122 119 135 94Q148 69 170.5 56.5Q193 44 229 44Q261 44 281 51Q301 58 312.5 71.5Q324 85 328 104Q332 123 332 146L398 137Q398 105 390.5 78Q383 51 364.5 31.5Q346 12 313.5 1Q281 -10 230 -10Q174 -10 138 8.5Q102 27 81.5 62Q61 97 53 148Q45 199 45 265Q45 331 52.5 382.5Q60 434 80.5 469Q101 504 136 522Q171 540 227 540Q283 540 317.5 522Q352 504 371.5 468.5Q391 433 397.5 382Q404 331 404 265V241Z" glyph-name="ecaron" horiz-adv-x="444" unicode="&#283;" /><glyph d="M88 592 189 800H263L364 592H311L226 751L141 592ZM226 486Q193 486 171 475Q149 464 136 440.5Q123 417 118 380.5Q113 344 113 294H335Q335 340 331 376Q327 412 315.5 436.5Q304 461 282.5 473.5Q261 486 226 486ZM113 241Q113 193 117.5 156Q122 119 135 94Q148 69 170.5 56.5Q193 44 229 44Q261 44 281 51Q301 58 312.5 71.5Q324 85 328 104Q332 123 332 146L398 137Q398 105 390.5 78Q383 51 364.5 31.5Q346 12 313.5 1Q281 -10 230 -10Q174 -10 138 8.5Q102 27 81.5 62Q61 97 53 148Q45 199 45 265Q45 331 52.5 382.5Q60 434 80.5 469Q101 504 136 522Q171 540 227 540Q283 540 317.5 522Q352 504 371.5 468.5Q391 433 397.5 382Q404 331 404 265V241Z" glyph-name="ecircumflex" horiz-adv-x="444" unicode="&#234;" /><glyph d="M346 670H270V746H346ZM182 670H106V746H182ZM226 486Q193 486 171 475Q149 464 136 440.5Q123 417 118 380.5Q113 344 113 294H335Q335 340 331 376Q327 412 315.5 436.5Q304 461 282.5 473.5Q261 486 226 486ZM113 241Q113 193 117.5 156Q122 119 135 94Q148 69 170.5 56.5Q193 44 229 44Q261 44 281 51Q301 58 312.5 71.5Q324 85 328 104Q332 123 332 146L398 137Q398 105 390.5 78Q383 51 364.5 31.5Q346 12 313.5 1Q281 -10 230 -10Q174 -10 138 8.5Q102 27 81.5 62Q61 97 53 148Q45 199 45 265Q45 331 52.5 382.5Q60 434 80.5 469Q101 504 136 522Q171 540 227 540Q283 540 317.5 522Q352 504 371.5 468.5Q391 433 397.5 382Q404 331 404 265V241Z" glyph-name="edieresis" horiz-adv-x="444" unicode="&#235;" /><glyph d="M264 670H188V746H264ZM226 486Q193 486 171 475Q149 464 136 440.5Q123 417 118 380.5Q113 344 113 294H335Q335 340 331 376Q327 412 315.5 436.5Q304 461 282.5 473.5Q261 486 226 486ZM113 241Q113 193 117.5 156Q122 119 135 94Q148 69 170.5 56.5Q193 44 229 44Q261 44 281 51Q301 58 312.5 71.5Q324 85 328 104Q332 123 332 146L398 137Q398 105 390.5 78Q383 51 364.5 31.5Q346 12 313.5 1Q281 -10 230 -10Q174 -10 138 8.5Q102 27 81.5 62Q61 97 53 148Q45 199 45 265Q45 331 52.5 382.5Q60 434 80.5 469Q101 504 136 522Q171 540 227 540Q283 540 317.5 522Q352 504 371.5 468.5Q391 433 397.5 382Q404 331 404 265V241Z" glyph-name="edotaccent" horiz-adv-x="444" unicode="&#279;" /><glyph d="M208 800 258 592H197L137 800ZM226 486Q193 486 171 475Q149 464 136 440.5Q123 417 118 380.5Q113 344 113 294H335Q335 340 331 376Q327 412 315.5 436.5Q304 461 282.5 473.5Q261 486 226 486ZM113 241Q113 193 117.5 156Q122 119 135 94Q148 69 170.5 56.5Q193 44 229 44Q261 44 281 51Q301 58 312.5 71.5Q324 85 328 104Q332 123 332 146L398 137Q398 105 390.5 78Q383 51 364.5 31.5Q346 12 313.5 1Q281 -10 230 -10Q174 -10 138 8.5Q102 27 81.5 62Q61 97 53 148Q45 199 45 265Q45 331 52.5 382.5Q60 434 80.5 469Q101 504 136 522Q171 540 227 540Q283 540 317.5 522Q352 504 371.5 468.5Q391 433 397.5 382Q404 331 404 265V241Z" glyph-name="egrave" horiz-adv-x="444" unicode="&#232;" /><glyph d="M260 -10Q205 -10 167 4Q129 18 105 44.5Q81 71 70 109Q59 147 59 195Q59 251 70 286.5Q81 322 97.5 344Q114 366 133 377Q152 388 169 394Q150 399 132.5 412.5Q115 426 101.5 447.5Q88 469 79.5 500Q71 531 71 571Q71 626 81.5 664.5Q92 703 114.5 727.5Q137 752 173 763Q209 774 260 774Q311 774 347 763Q383 752 405.5 727.5Q428 703 438.5 664.5Q449 626 449 571Q449 531 440.5 500Q432 469 418.5 447.5Q405 426 387.5 412.5Q370 399 351 394Q367 388 386.5 377Q406 366 422.5 344Q439 322 450 286.5Q461 251 461 195Q461 147 450 109Q439 71 415 44.5Q391 18 353 4Q315 -10 260 -10ZM260 364Q230 364 205 357Q180 350 162 332Q144 314 134 282.5Q124 251 124 203Q124 121 157.5 84.5Q191 48 260 48Q329 48 362.5 84.5Q396 121 396 203Q396 251 386 282.5Q376 314 358 332Q340 350 315 357Q290 364 260 364ZM260 716Q226 716 202.5 708.5Q179 701 164 683.5Q149 666 142 637Q135 608 135 565Q135 523 144 495Q153 467 169.5 450.5Q186 434 209 427Q232 420 260 420Q288 420 311 427Q334 434 350.5 450.5Q367 467 376 495Q385 523 385 565Q385 650 356 683Q327 716 260 716Z" glyph-name="eight" horiz-adv-x="520" unicode="8" /><glyph d="M238 -10Q183 -10 145 4Q107 18 83 44.5Q59 71 48 109Q37 147 37 195Q37 251 48 286.5Q59 322 75.5 344Q92 366 111 377Q130 388 147 394Q128 399 110.5 412.5Q93 426 79.5 447.5Q66 469 57.5 500Q49 531 49 571Q49 626 59.5 664.5Q70 703 92.5 727.5Q115 752 151 763Q187 774 238 774Q289 774 325 763Q361 752 383.5 727.5Q406 703 416.5 664.5Q427 626 427 571Q427 531 418.5 500Q410 469 396.5 447.5Q383 426 365.5 412.5Q348 399 329 394Q345 388 364 377Q383 366 399.5 344Q416 322 427 286.5Q438 251 438 195Q438 147 427.5 109Q417 71 393 44.5Q369 18 331 4Q293 -10 238 -10ZM238 364Q208 364 183 357Q158 350 139.5 332Q121 314 111 282.5Q101 251 101 203Q101 121 134.5 84.5Q168 48 238 48Q307 48 340.5 84.5Q374 121 374 203Q374 251 364 282.5Q354 314 336 332Q318 350 293 357Q268 364 238 364ZM238 715Q204 715 180 707.5Q156 700 141 682.5Q126 665 119.5 636.5Q113 608 113 565Q113 523 122 495Q131 467 147.5 450.5Q164 434 187 427Q210 420 238 420Q266 420 289 427Q312 434 328.5 450.5Q345 467 354 495Q363 523 363 565Q363 608 356 636.5Q349 665 334 682.5Q319 700 295.5 707.5Q272 715 238 715Z" glyph-name="eight.LP" horiz-adv-x="476" unicode="&#58685;" /><glyph d="M148 -206Q85 -206 61 -176.5Q37 -147 37 -96Q37 -69 42 -51Q47 -33 54.5 -21.5Q62 -10 71 -3.5Q80 3 89 6Q70 13 57 36Q44 59 44 97Q44 156 67.5 180.5Q91 205 148 205Q205 205 228.5 180.5Q252 156 252 97Q252 59 239 36Q226 13 207 6Q216 3 225 -3.5Q234 -10 241.5 -21.5Q249 -33 254 -51Q259 -69 259 -96Q259 -147 235 -176.5Q211 -206 148 -206ZM148 -18Q122 -18 106 -32Q90 -46 90 -89Q90 -157 148 -157Q179 -157 192.5 -140.5Q206 -124 206 -89Q206 -46 189.5 -32Q173 -18 148 -18ZM148 156Q120 156 108.5 142Q97 128 97 91Q97 55 111 41.5Q125 28 148 28Q171 28 185 41.5Q199 55 199 91Q199 128 187.5 142Q176 156 148 156Z" glyph-name="eight.inf" horiz-adv-x="297" unicode="&#58745;" /><glyph d="M890 0H806V84H890ZM560 0H476V84H560ZM230 0H146V84H230Z" glyph-name="ellipsis" horiz-adv-x="1036" unicode="&#8230;" /><glyph d="M124 739H328V680H124ZM226 486Q193 486 171 475Q149 464 136 440.5Q123 417 118 380.5Q113 344 113 294H335Q335 340 331 376Q327 412 315.5 436.5Q304 461 282.5 473.5Q261 486 226 486ZM113 241Q113 193 117.5 156Q122 119 135 94Q148 69 170.5 56.5Q193 44 229 44Q261 44 281 51Q301 58 312.5 71.5Q324 85 328 104Q332 123 332 146L398 137Q398 105 390.5 78Q383 51 364.5 31.5Q346 12 313.5 1Q281 -10 230 -10Q174 -10 138 8.5Q102 27 81.5 62Q61 97 53 148Q45 199 45 265Q45 331 52.5 382.5Q60 434 80.5 469Q101 504 136 522Q171 540 227 540Q283 540 317.5 522Q352 504 371.5 468.5Q391 433 397.5 382Q404 331 404 265V241Z" glyph-name="emacron" horiz-adv-x="444" unicode="&#275;" /><glyph d="M59 305V365H961V305Z" glyph-name="emdash" horiz-adv-x="1020" unicode="&#8212;" /><glyph d="M59 359V420H961V359Z" glyph-name="emdash.cap" horiz-adv-x="1020" unicode="&#58502;" /><glyph glyph-name="emspace" horiz-adv-x="1000" unicode="&#8195;" /><glyph d="M59 305V365H461V305Z" glyph-name="endash" horiz-adv-x="520" unicode="&#8211;" /><glyph d="M59 359V420H461V359Z" glyph-name="endash.cap" horiz-adv-x="520" unicode="&#58500;" /><glyph d="M114 465Q137 495 176.5 517.5Q216 540 276 540Q340 540 372 507Q404 474 404 423V-105Q404 -155 379 -183Q354 -211 292 -211Q270 -211 255 -208Q240 -205 229 -201L235 -144Q241 -146 254.5 -149.5Q268 -153 285 -153Q309 -153 324.5 -142Q340 -131 340 -95V403Q340 437 320.5 459.5Q301 482 255 482Q210 482 175 461.5Q140 441 120 409V0H54V414L52 530H108Z" glyph-name="eng" horiz-adv-x="455" unicode="&#331;" /><glyph glyph-name="enspace" horiz-adv-x="500" unicode="&#8194;" /><glyph d="M226 486Q193 486 171 475Q149 464 136 440.5Q123 417 118 380.5Q113 344 113 294H335Q335 340 331 376Q327 412 315.5 436.5Q304 461 282.5 473.5Q261 486 226 486ZM113 241Q113 193 117.5 156Q122 119 135 94Q148 69 170.5 56.5Q193 44 229 44Q261 44 281 51Q301 58 312.5 71.5Q324 85 328 104Q332 123 332 146L398 137Q398 88 380 52Q362 16 310 0Q265 -14 241.5 -39.5Q218 -65 219 -107Q219 -138 236 -151Q253 -164 275 -162Q296 -161 310 -154Q324 -147 332 -141L347 -187Q331 -198 311 -204.5Q291 -211 265 -211Q248 -211 231 -206.5Q214 -202 200 -191.5Q186 -181 177 -164Q168 -147 167 -122Q164 -87 176 -59Q188 -31 213 -9Q162 -6 129.5 13.5Q97 33 78 68Q59 103 52 152.5Q45 202 45 265Q45 331 52.5 382.5Q60 434 80.5 469Q101 504 136 522Q171 540 227 540Q283 540 317.5 522Q352 504 371.5 468.5Q391 433 397.5 382Q404 331 404 265V241Z" glyph-name="eogonek" horiz-adv-x="444" unicode="&#281;" /><glyph d="M90 448V509H630V448ZM90 271V332H630V271Z" glyph-name="equal" horiz-adv-x="720" unicode="=" /><glyph d="M50 216V276H830V216ZM50 504V564H830V504Z" glyph-name="equal.cap" horiz-adv-x="880" unicode="&#58773;" /><glyph d="M50 43V98H350V43ZM50 -77V-22H350V-77Z" glyph-name="equal.inf" horiz-adv-x="400" unicode="&#58749;" /><glyph d="M90 360V421H630V360ZM90 599V660H630V599ZM90 120V181H630V120Z" glyph-name="equivalence" horiz-adv-x="720" unicode="&#8801;" /><glyph d="M415 738Q343 738 292.5 710.5Q242 683 210 638Q178 593 162 534.5Q146 476 144 414H687Q684 476 668 534.5Q652 593 619.5 638Q587 683 536.5 710.5Q486 738 415 738ZM143 363Q146 301 162 243Q178 185 211 140Q244 95 295 67.5Q346 40 418 39Q484 38 538 52.5Q592 67 631.5 95.5Q671 124 695 166Q719 208 725 263H790Q779 191 748 139.5Q717 88 668.5 54.5Q620 21 556 5Q492 -11 415 -11Q329 -11 257 17Q185 45 133.5 97Q82 149 53.5 222.5Q25 296 25 388Q25 479 53.5 553Q82 627 133.5 679.5Q185 732 257 760Q329 788 415 788Q501 788 573 760Q645 732 696.5 679.5Q748 627 776.5 553Q805 479 805 388V363Z" glyph-name="estimated" horiz-adv-x="830" unicode="&#8494;" /><glyph d="M230 46Q261 46 283.5 57.5Q306 69 320.5 95Q335 121 342 162.5Q349 204 349 265Q349 326 342 367.5Q335 409 320.5 435Q306 461 283.5 472.5Q261 484 230 484Q199 484 176.5 472.5Q154 461 139.5 435Q125 409 118 367.5Q111 326 111 265Q111 204 118 162.5Q125 121 139.5 95Q154 69 176.5 57.5Q199 46 230 46ZM72 665 199 713Q139 765 59 800H158Q185 785 209 769Q233 753 254 734L387 784V733L291 697Q356 624 386 520.5Q416 417 416 271V265Q416 188 405 135.5Q394 83 371.5 50.5Q349 18 313.5 4Q278 -10 230 -10Q182 -10 147 4Q112 18 89.5 50.5Q67 83 56 135.5Q45 188 45 265Q45 341 56.5 394Q68 447 90 479Q112 511 143.5 525.5Q175 540 216 540Q261 540 290.5 523Q320 506 339 472Q309 595 237 676L72 614Z" glyph-name="eth" horiz-adv-x="460" unicode="&#240;" /><glyph d="M135 780 113 202H69L47 780ZM129 0H53V76H129Z" glyph-name="exclam" horiz-adv-x="182" unicode="!" /><glyph d="M76 -200 96 328H140L160 -200ZM157 452H79V530H157Z" glyph-name="exclamdown" horiz-adv-x="236" unicode="&#161;" /><glyph d="M47 0 69 578H113L135 0ZM53 780H129V704H53Z" glyph-name="exclamdown.cap" horiz-adv-x="182" unicode="&#58433;" /><glyph d="M30 530H91V706Q91 756 119.5 783Q148 810 211 810Q233 810 249 807Q265 804 275 800L270 743Q264 745 250 749Q236 753 219 753Q190 753 172.5 742.5Q155 732 155 695V530H260V475H155V0H91V475H30Z" glyph-name="f" horiz-adv-x="297" unicode="f" /><glyph d="M355 530H419V0H355ZM30 530H91V706Q91 756 119.5 783Q148 810 211 810Q233 810 249 807Q265 804 275 800L270 743Q264 745 250 749Q236 753 219 753Q190 753 172.5 742.5Q155 732 155 695V530H260V475H155V0H91V475H30Z" glyph-name="f_dotlessi" horiz-adv-x="477" /><glyph d="M425 670H349V746H425ZM355 530H419V0H355ZM30 530H91V706Q91 756 119.5 783Q148 810 211 810Q233 810 249 807Q265 804 275 800L270 743Q264 745 250 749Q236 753 219 753Q190 753 172.5 742.5Q155 732 155 695V530H260V475H155V0H91V475H30Z" glyph-name="fi" horiz-adv-x="477" unicode="&#64257;" /><glyph d="M59 305V365H661V305Z" glyph-name="figuredash" horiz-adv-x="720" unicode="&#8210;" /><glyph d="M59 359V420H661V359Z" glyph-name="figuredash.cap" horiz-adv-x="720" unicode="&#58503;" /><glyph glyph-name="figurespace" horiz-adv-x="700" unicode="&#8199;" /><glyph d="M254 48Q326 48 357.5 96.5Q389 145 389 247Q389 304 381 342.5Q373 381 358 403.5Q343 426 321.5 435.5Q300 445 272 445Q248 445 229 438Q210 431 195 420.5Q180 410 169.5 397Q159 384 152 372L93 382L108 764H436V705H165L153 436Q177 467 209 484.5Q241 502 285 502Q324 502 355.5 489.5Q387 477 409 448Q431 419 443 369.5Q455 320 455 247Q455 115 406 52.5Q357 -10 253 -10Q199 -10 163 4.5Q127 19 105 45.5Q83 72 74 108.5Q65 145 65 190L131 199Q131 166 136 138Q141 110 154.5 90Q168 70 192 59Q216 48 254 48Z" glyph-name="five" horiz-adv-x="520" unicode="5" /><glyph d="M228 48Q300 48 332.5 96.5Q365 145 365 247Q365 304 357 342.5Q349 381 333.5 403.5Q318 426 296 435.5Q274 445 246 445Q222 445 202.5 438Q183 431 168 420.5Q153 410 141.5 397Q130 384 123 372L64 382L79 764H411V705H136L124 436Q148 467 181 484.5Q214 502 259 502Q298 502 330 489.5Q362 477 384 448Q406 419 418 369.5Q430 320 430 247Q430 115 381 52.5Q332 -10 227 -10Q177 -10 142 1Q107 12 85 36.5Q63 61 53 100Q43 139 43 195L108 205Q108 161 114 131Q120 101 133.5 82.5Q147 64 170 56Q193 48 228 48Z" glyph-name="five.LP" horiz-adv-x="471" unicode="&#58682;" /><glyph d="M149 -158Q207 -158 207 -69Q207 -16 193.5 2.5Q180 21 156 21Q135 21 120 10Q105 -1 99 -14L52 -7L61 199H250V150H108L103 35Q129 67 172 67Q193 67 209.5 60.5Q226 54 238 38.5Q250 23 256 -3.5Q262 -30 262 -69Q262 -143 235 -174.5Q208 -206 148 -206Q89 -206 66 -180.5Q43 -155 43 -92L98 -85Q99 -127 109.5 -142.5Q120 -158 149 -158Z" glyph-name="five.inf" horiz-adv-x="303" unicode="&#58742;" /><glyph d="M355 800H419V0H355ZM30 530H91V706Q91 756 119.5 783Q148 810 211 810Q233 810 249 807Q265 804 275 800L270 743Q264 745 250 749Q236 753 219 753Q190 753 172.5 742.5Q155 732 155 695V530H260V475H155V0H91V475H30Z" glyph-name="fl" horiz-adv-x="477" unicode="&#64258;" /><glyph d="M28 428H111V670Q111 720 139.5 747Q168 774 231 774Q254 774 270 771Q286 768 296 764L290 707Q284 710 270 713.5Q256 717 239 717Q210 717 194 707Q178 697 178 660V428H280V371H178V-106Q178 -156 149 -183Q120 -210 57 -210Q35 -210 18 -207Q1 -204 -9 -200L-3 -143Q3 -146 17 -149.5Q31 -153 48 -153Q77 -153 94 -143Q111 -133 111 -96V371H28Z" glyph-name="florin" horiz-adv-x="322" unicode="&#402;" /><glyph d="M321 682 110 237 318 240ZM379 182V0H317V182H47V236L302 774H379V240H472V182Z" glyph-name="four" horiz-adv-x="520" unicode="4" /><glyph d="M303 683 92 237 299 240ZM360 182V0H299V182H32V241L284 774H360V240H450V182Z" glyph-name="four.LP" horiz-adv-x="483" unicode="&#58681;" /><glyph d="M175 135 82 -62 172 -60ZM224 -109V-200H172V-109H32V-69L164 205H224V-60H269V-109Z" glyph-name="four.inf" horiz-adv-x="302" unicode="&#58741;" /><glyph glyph-name="fourperemspace" horiz-adv-x="250" unicode="&#8197;" /><glyph d="M250 764H315L-75 0H-140Z" glyph-name="fraction" horiz-adv-x="175" unicode="&#8260;" /><glyph d="M167 307V0H101V307H43V364H101V436H43V493H101V764H406V704H167V493H342V436H167V364H342V307Z" glyph-name="franc" horiz-adv-x="434" unicode="&#8355;" /><glyph d="M348 407Q322 442 292.5 462Q263 482 224 482Q189 482 167 468Q145 454 133 427.5Q121 401 116.5 363Q112 325 112 276Q112 227 116.5 188.5Q121 150 133 123.5Q145 97 167 83Q189 69 224 69Q263 69 292.5 89.5Q322 110 348 145ZM212 11Q163 11 130.5 29Q98 47 79 81Q60 115 52.5 164.5Q45 214 45 276Q45 338 52.5 387Q60 436 79 470Q98 504 130.5 522Q163 540 212 540Q252 540 287.5 523Q323 506 353 465L359 530H415L412 414V-50Q412 -87 402.5 -116.5Q393 -146 372 -167Q351 -188 316.5 -199Q282 -210 233 -210Q181 -210 146.5 -199.5Q112 -189 92 -169.5Q72 -150 63.5 -121.5Q55 -93 55 -57L120 -48Q119 -101 141 -128.5Q163 -156 231 -156Q265 -156 288 -148.5Q311 -141 324 -127Q337 -113 342.5 -94.5Q348 -76 348 -53V79Q319 43 285.5 27Q252 11 212 11Z" glyph-name="g" horiz-adv-x="468" unicode="g" /><glyph d="M230 597Q186 597 159 611.5Q132 626 117 652.5Q102 679 97.5 716.5Q93 754 93 800H144Q143 727 159.5 689.5Q176 652 230 652Q284 652 300.5 689.5Q317 727 316 800H367Q367 754 362.5 716.5Q358 679 343 652.5Q328 626 301 611.5Q274 597 230 597ZM348 407Q322 442 292.5 462Q263 482 224 482Q189 482 167 468Q145 454 133 427.5Q121 401 116.5 363Q112 325 112 276Q112 227 116.5 188.5Q121 150 133 123.5Q145 97 167 83Q189 69 224 69Q263 69 292.5 89.5Q322 110 348 145ZM212 11Q163 11 130.5 29Q98 47 79 81Q60 115 52.5 164.5Q45 214 45 276Q45 338 52.5 387Q60 436 79 470Q98 504 130.5 522Q163 540 212 540Q252 540 287.5 523Q323 506 353 465L359 530H415L412 414V-50Q412 -87 402.5 -116.5Q393 -146 372 -167Q351 -188 316.5 -199Q282 -210 233 -210Q181 -210 146.5 -199.5Q112 -189 92 -169.5Q72 -150 63.5 -121.5Q55 -93 55 -57L120 -48Q119 -101 141 -128.5Q163 -156 231 -156Q265 -156 288 -148.5Q311 -141 324 -127Q337 -113 342.5 -94.5Q348 -76 348 -53V79Q319 43 285.5 27Q252 11 212 11Z" glyph-name="gbreve" horiz-adv-x="468" unicode="&#287;" /><glyph d="M92 592 193 800H267L368 592H315L230 751L145 592ZM348 407Q322 442 292.5 462Q263 482 224 482Q189 482 167 468Q145 454 133 427.5Q121 401 116.5 363Q112 325 112 276Q112 227 116.5 188.5Q121 150 133 123.5Q145 97 167 83Q189 69 224 69Q263 69 292.5 89.5Q322 110 348 145ZM212 11Q163 11 130.5 29Q98 47 79 81Q60 115 52.5 164.5Q45 214 45 276Q45 338 52.5 387Q60 436 79 470Q98 504 130.5 522Q163 540 212 540Q252 540 287.5 523Q323 506 353 465L359 530H415L412 414V-50Q412 -87 402.5 -116.5Q393 -146 372 -167Q351 -188 316.5 -199Q282 -210 233 -210Q181 -210 146.5 -199.5Q112 -189 92 -169.5Q72 -150 63.5 -121.5Q55 -93 55 -57L120 -48Q119 -101 141 -128.5Q163 -156 231 -156Q265 -156 288 -148.5Q311 -141 324 -127Q337 -113 342.5 -94.5Q348 -76 348 -53V79Q319 43 285.5 27Q252 11 212 11Z" glyph-name="gcircumflex" horiz-adv-x="468" unicode="&#285;" /><glyph d="M182 592 226 800H274L259 592ZM348 407Q322 442 292.5 462Q263 482 224 482Q189 482 167 468Q145 454 133 427.5Q121 401 116.5 363Q112 325 112 276Q112 227 116.5 188.5Q121 150 133 123.5Q145 97 167 83Q189 69 224 69Q263 69 292.5 89.5Q322 110 348 145ZM212 11Q163 11 130.5 29Q98 47 79 81Q60 115 52.5 164.5Q45 214 45 276Q45 338 52.5 387Q60 436 79 470Q98 504 130.5 522Q163 540 212 540Q252 540 287.5 523Q323 506 353 465L359 530H415L412 414V-50Q412 -87 402.5 -116.5Q393 -146 372 -167Q351 -188 316.5 -199Q282 -210 233 -210Q181 -210 146.5 -199.5Q112 -189 92 -169.5Q72 -150 63.5 -121.5Q55 -93 55 -57L120 -48Q119 -101 141 -128.5Q163 -156 231 -156Q265 -156 288 -148.5Q311 -141 324 -127Q337 -113 342.5 -94.5Q348 -76 348 -53V79Q319 43 285.5 27Q252 11 212 11Z" glyph-name="gcommaaccent" horiz-adv-x="468" unicode="&#291;" /><glyph d="M268 670H192V746H268ZM348 407Q322 442 292.5 462Q263 482 224 482Q189 482 167 468Q145 454 133 427.5Q121 401 116.5 363Q112 325 112 276Q112 227 116.5 188.5Q121 150 133 123.5Q145 97 167 83Q189 69 224 69Q263 69 292.5 89.5Q322 110 348 145ZM212 11Q163 11 130.5 29Q98 47 79 81Q60 115 52.5 164.5Q45 214 45 276Q45 338 52.5 387Q60 436 79 470Q98 504 130.5 522Q163 540 212 540Q252 540 287.5 523Q323 506 353 465L359 530H415L412 414V-50Q412 -87 402.5 -116.5Q393 -146 372 -167Q351 -188 316.5 -199Q282 -210 233 -210Q181 -210 146.5 -199.5Q112 -189 92 -169.5Q72 -150 63.5 -121.5Q55 -93 55 -57L120 -48Q119 -101 141 -128.5Q163 -156 231 -156Q265 -156 288 -148.5Q311 -141 324 -127Q337 -113 342.5 -94.5Q348 -76 348 -53V79Q319 43 285.5 27Q252 11 212 11Z" glyph-name="gdotaccent" horiz-adv-x="468" unicode="&#289;" /><glyph d="M260 402Q260 378 264.5 362Q269 346 280 335.5Q291 325 311 317.5Q331 310 361 303Q394 295 421 284.5Q448 274 467.5 257Q487 240 498 213Q509 186 509 144Q509 69 469 29.5Q429 -10 334 -10Q287 -10 256.5 0Q226 10 209 29Q192 48 185.5 75.5Q179 103 180 138L241 146Q241 123 243 104Q245 85 254.5 71Q264 57 282.5 49Q301 41 333 41Q364 41 384.5 48Q405 55 417 67.5Q429 80 433.5 98.5Q438 117 438 141Q438 170 430.5 188.5Q423 207 408.5 219Q394 231 372.5 238.5Q351 246 323 253Q294 260 270.5 269Q247 278 230 294Q213 310 203.5 334.5Q194 359 194 397Q194 433 204 456Q214 479 229.5 494Q245 509 264 518.5Q283 528 301 536Q323 545 340 555Q357 565 368.5 577.5Q380 590 386 608Q392 626 392 652Q392 700 360.5 725.5Q329 751 263 751Q223 751 196 742.5Q169 734 152.5 718Q136 702 128.5 678.5Q121 655 121 625V0H56V622Q56 726 106 768Q156 810 261 810Q362 810 407 769Q452 728 452 656Q452 620 443 594.5Q434 569 419.5 552Q405 535 386 523Q367 511 347 502Q329 494 313 485.5Q297 477 285.5 466Q274 455 267 439.5Q260 424 260 402Z" glyph-name="germandbls" horiz-adv-x="538" unicode="&#223;" /><glyph d="M292 800 342 592H281L221 800Z" glyph-name="grave" horiz-adv-x="620" unicode="`" /><glyph d="M572 390 417 456 90 597V662L630 422V358L90 118V183L417 324Z" glyph-name="greater" horiz-adv-x="720" unicode="&gt;" /><glyph d="M830 418V362L50 -11V56L607 321L755 390L607 459L50 724V791Z" glyph-name="greater.cap" horiz-adv-x="880" unicode="&#58775;" /><glyph d="M90 119V160L630 334V293ZM562 455 395 503 90 597V661L630 489V421L90 249V313L395 407Z" glyph-name="greaterequal" horiz-adv-x="720" unicode="&#8805;" /><glyph d="M471 136 263 293V337L471 494V433L326 315L471 197ZM260 136 52 293V337L260 494V433L116 315L260 197Z" glyph-name="guillemotleft" horiz-adv-x="531" unicode="&#171;" /><glyph d="M471 211 263 368V412L471 569V508L326 390L471 272ZM260 211 52 368V412L260 569V508L116 390L260 272Z" glyph-name="guillemotleft.cap" horiz-adv-x="531" unicode="&#58451;" /><glyph d="M60 197 204 315 60 433V494L268 337V293L60 136ZM271 197 415 315 271 433V494L479 337V293L271 136Z" glyph-name="guillemotright" horiz-adv-x="531" unicode="&#187;" /><glyph d="M60 272 204 390 60 508V569L268 412V368L60 211ZM271 272 415 390 271 508V569L479 412V368L271 211Z" glyph-name="guillemotright.cap" horiz-adv-x="531" unicode="&#58452;" /><glyph d="M260 136 52 293V337L260 494V433L116 315L260 197Z" glyph-name="guilsinglleft" horiz-adv-x="320" unicode="&#8249;" /><glyph d="M260 211 52 368V412L260 569V508L116 390L260 272Z" glyph-name="guilsinglleft.cap" horiz-adv-x="320" unicode="&#58449;" /><glyph d="M60 197 204 315 60 433V494L268 337V293L60 136Z" glyph-name="guilsinglright" horiz-adv-x="320" unicode="&#8250;" /><glyph d="M60 272 204 390 60 508V569L268 412V368L60 211Z" glyph-name="guilsinglright.cap" horiz-adv-x="320" unicode="&#58450;" /><glyph d="M119 472Q142 499 180.5 519.5Q219 540 275 540Q340 540 372 507Q404 474 404 423V0H340V403Q340 437 320.5 459.5Q301 482 255 482Q210 482 175 461.5Q140 441 119 409V0H55V800H119Z" glyph-name="h" horiz-adv-x="455" unicode="h" /><glyph glyph-name="hairspace" horiz-adv-x="100" unicode="&#8202;" /><glyph d="M143 697H257V650H143V472Q166 499 204.5 519.5Q243 540 299 540Q364 540 396 507Q428 474 428 423V0H364V403Q364 437 344.5 459.5Q325 482 279 482Q234 482 199 461.5Q164 441 143 409V0H79V650H-5V697H79V800H143Z" glyph-name="hbar" horiz-adv-x="479" unicode="&#295;" /><glyph d="M-51 842 50 1050H124L225 842H172L87 1001L2 842ZM119 472Q142 499 180.5 519.5Q219 540 275 540Q340 540 372 507Q404 474 404 423V0H340V403Q340 437 320.5 459.5Q301 482 255 482Q210 482 175 461.5Q140 441 119 409V0H55V800H119Z" glyph-name="hcircumflex" horiz-adv-x="455" unicode="&#293;" /><glyph d="M459 -10Q447 9 424 40Q401 71 370 110Q339 149 302.5 193.5Q266 238 226 283Q200 312 171 348Q142 384 118 423.5Q94 463 78 504Q62 545 62 584Q62 628 75 666Q88 704 113 731.5Q138 759 173.5 774.5Q209 790 253 790Q299 790 333 777Q367 764 391 742.5Q415 721 431 692.5Q447 664 458 633H462Q473 664 489 692.5Q505 721 529 742.5Q553 764 586.5 777Q620 790 667 790Q711 790 746.5 774.5Q782 759 806.5 731.5Q831 704 844.5 666Q858 628 858 584Q858 545 842 504Q826 463 802 423.5Q778 384 749 348Q720 312 694 283Q654 238 617.5 193.5Q581 149 550 110Q519 71 496 40Q473 9 461 -10Z" glyph-name="heart" horiz-adv-x="920" unicode="&#9829;" /><glyph d="M80 0V450L435 790L790 450V0Z" glyph-name="house" horiz-adv-x="870" unicode="&#8962;" /><glyph d="M465 800 402 592H342L393 800ZM340 800 278 592H218L269 800Z" glyph-name="hungarumlaut" horiz-adv-x="620" unicode="&#733;" /><glyph d="M59 305V365H328V305Z" glyph-name="hyphen" horiz-adv-x="387" unicode="-" /><glyph d="M59 359V420H328V359Z" glyph-name="hyphen.cap" horiz-adv-x="387" unicode="&#58498;" /><glyph d="M128 670H52V746H128ZM58 530H122V0H58Z" glyph-name="i" horiz-adv-x="180" unicode="i" /><glyph d="M182 800 122 592H61L111 800ZM58 530H122V0H58Z" glyph-name="iacute" horiz-adv-x="180" unicode="&#237;" /><glyph d="M90 597Q46 597 19 611.5Q-8 626 -23 652.5Q-38 679 -42.5 716.5Q-47 754 -47 800H4Q3 727 19.5 689.5Q36 652 90 652Q144 652 160.5 689.5Q177 727 176 800H227Q227 754 222.5 716.5Q218 679 203 652.5Q188 626 161 611.5Q134 597 90 597ZM58 530H122V0H58Z" glyph-name="ibreve" horiz-adv-x="180" unicode="&#301;" /><glyph d="M-48 592 53 800H127L228 592H175L90 751L5 592ZM58 530H122V0H58Z" glyph-name="icircumflex" horiz-adv-x="180" unicode="&#238;" /><glyph d="M210 670H134V746H210ZM46 670H-30V746H46ZM58 530H122V0H58Z" glyph-name="idieresis" horiz-adv-x="180" unicode="&#239;" /><glyph d="M128 670H52V746H128ZM58 530H122V0H58Z" glyph-name="idotaccent" horiz-adv-x="180" /><glyph d="M70 800 120 592H59L-1 800ZM58 530H122V0H58Z" glyph-name="igrave" horiz-adv-x="180" unicode="&#236;" /><glyph d="M292 670H216V746H292ZM286 -105Q286 -155 261 -183Q236 -211 175 -211Q153 -211 137.5 -208Q122 -205 112 -201L118 -144Q124 -146 137 -149.5Q150 -153 167 -153Q192 -153 207 -142Q222 -131 222 -95V530H286ZM128 670H52V746H128ZM58 530H122V0H58Z" glyph-name="ij" horiz-adv-x="344" unicode="&#307;" /><glyph d="M-12 739H192V680H-12ZM58 530H122V0H58Z" glyph-name="imacron" horiz-adv-x="180" unicode="&#299;" /><glyph d="M443 390Q455 373 469.5 356.5Q484 340 502 327Q520 314 542 305.5Q564 297 590 296Q610 295 629 299.5Q648 304 662.5 315Q677 326 686 344.5Q695 363 695 390Q695 417 686 435.5Q677 454 662.5 465Q648 476 629 480.5Q610 485 590 484Q564 483 542 474.5Q520 466 502 453Q484 440 469.5 423.5Q455 407 443 390ZM410 346Q375 303 330 273Q285 243 230 243Q159 243 114.5 279.5Q70 316 70 390Q70 464 114.5 500.5Q159 537 230 537Q285 537 330 507Q375 477 410 434Q445 477 489.5 507Q534 537 590 537Q661 537 705.5 500.5Q750 464 750 390Q750 316 705.5 279.5Q661 243 590 243Q534 243 489.5 273Q445 303 410 346ZM377 390Q365 407 350.5 423.5Q336 440 318 453Q300 466 278 474.5Q256 483 231 484Q210 485 191 480.5Q172 476 157.5 465Q143 454 134 435.5Q125 417 125 390Q125 363 134 344.5Q143 326 157.5 315Q172 304 191 299.5Q210 295 231 296Q256 297 278 305.5Q300 314 318 327Q336 340 350.5 356.5Q365 373 377 390Z" glyph-name="infinity" horiz-adv-x="820" unicode="&#8734;" /><glyph d="M167 -6Q167 -46 161.5 -83Q156 -120 137.5 -148.5Q119 -177 83 -194Q47 -211 -13 -211Q-34 -211 -52.5 -208Q-71 -205 -81 -200L-72 -138Q-65 -142 -49.5 -146.5Q-34 -151 -14 -150Q12 -150 33 -144.5Q54 -139 68.5 -125.5Q83 -112 91 -87Q99 -62 99 -23V578Q99 618 104.5 655Q110 692 128.5 720.5Q147 749 182.5 766Q218 783 278 783Q300 783 318 779.5Q336 776 347 771L338 710Q331 713 315 717.5Q299 722 279 722Q253 722 232 716.5Q211 711 196.5 697Q182 683 174.5 658.5Q167 634 167 594Z" glyph-name="integral" horiz-adv-x="265" unicode="&#8747;" /><glyph d="M256 0H180V76H256ZM336 593Q336 659 317 689.5Q298 720 260 728L249 441Q269 454 285 467Q301 480 312.5 497Q324 514 330 537Q336 560 336 593ZM246 368 240 202H196L176 727Q134 716 118 679Q102 642 102 575L37 584Q37 638 46.5 677Q56 716 77.5 741.5Q99 767 134 779Q169 791 221 791Q269 791 303.5 781Q338 771 360.5 748Q383 725 394 688Q405 651 405 596Q405 547 395 514.5Q385 482 367.5 459.5Q350 437 328 421Q306 405 282 389Z" glyph-name="interrobang" horiz-adv-x="443" unicode="&#8253;" /><glyph d="M263 452H185V530H263ZM106 -25Q106 -80 125.5 -109.5Q145 -139 184 -147L193 107Q173 94 156.5 81.5Q140 69 129 54Q118 39 112 20Q106 1 106 -25ZM196 180 202 328H246L264 -146Q307 -135 323.5 -98.5Q340 -62 340 6L405 -3Q405 -57 395.5 -96Q386 -135 364.5 -160.5Q343 -186 308 -198Q273 -210 221 -210Q124 -210 80.5 -166.5Q37 -123 37 -28Q37 14 47 42.5Q57 71 74.5 91.5Q92 112 114 127.5Q136 143 160 159Z" glyph-name="interrobangdown" horiz-adv-x="443" /><glyph d="M186 780H262V704H186ZM106 187Q106 120 125 89.5Q144 59 182 51L193 339Q173 326 156.5 313Q140 300 129 282.5Q118 265 112 242.5Q106 220 106 187ZM196 412 202 578H246L266 53Q308 64 324 100.5Q340 137 340 205L405 196Q405 142 395.5 103Q386 64 364.5 38.5Q343 13 308 1Q273 -11 221 -11Q173 -11 138 -1Q103 9 80.5 32Q58 55 47.5 92Q37 129 37 184Q37 233 47 265.5Q57 298 74.5 320.5Q92 343 114 359Q136 375 160 391Z" glyph-name="interrobangdown.cap" horiz-adv-x="443" /><glyph d="M310 795Q354 795 381 780.5Q408 766 423 739.5Q438 713 442.5 675.5Q447 638 447 592H396Q397 665 380.5 702.5Q364 740 310 740Q256 740 239.5 702.5Q223 665 224 592H173Q173 638 177.5 675.5Q182 713 197 739.5Q212 766 239 780.5Q266 795 310 795Z" glyph-name="invertedbreve" horiz-adv-x="620" unicode="&#58385;" /><glyph d="M128 670H52V746H128ZM-12 -118Q-12 -80 6 -47.5Q24 -15 58 9V530H122V0Q87 -11 64 -39.5Q41 -68 41 -106Q41 -137 57.5 -150Q74 -163 95 -163Q117 -163 131.5 -155.5Q146 -148 154 -141L169 -187Q153 -198 133 -204.5Q113 -211 87 -211Q70 -211 52 -206Q34 -201 20 -190Q6 -179 -3 -161.5Q-12 -144 -12 -118Z" glyph-name="iogonek" horiz-adv-x="180" unicode="&#303;" /><glyph d="M242 743Q238 692 217.5 661.5Q197 631 158 632Q135 632 117 643.5Q99 655 83.5 668.5Q68 682 53.5 693.5Q39 705 23 706Q0 707 -7.5 689.5Q-15 672 -17 645L-65 652Q-62 703 -41.5 733.5Q-21 764 18 763Q42 762 60 750.5Q78 739 93 725.5Q108 712 122.5 701Q137 690 153 689Q176 687 184 705Q192 723 194 750ZM58 530H122V0H58Z" glyph-name="itilde" horiz-adv-x="180" unicode="&#297;" /><glyph d="M128 670H52V746H128ZM122 -105Q122 -155 97 -183Q72 -211 11 -211Q-11 -211 -26.5 -208Q-42 -205 -52 -201L-46 -144Q-40 -146 -27 -149.5Q-14 -153 3 -153Q28 -153 43 -142Q58 -131 58 -95V530H122Z" glyph-name="j" horiz-adv-x="180" unicode="j" /><glyph d="M-49 592 52 800H126L227 592H174L89 751L4 592ZM122 -105Q122 -155 97 -183Q72 -211 11 -211Q-11 -211 -26.5 -208Q-42 -205 -52 -201L-46 -144Q-40 -146 -27 -149.5Q-14 -153 3 -153Q28 -153 43 -142Q58 -131 58 -95V530H122Z" glyph-name="jcircumflex" horiz-adv-x="177" unicode="&#309;" /><glyph d="M324 530H402L225 306L422 0H347L184 256L117 170L120 0H55V800H120L117 259Z" glyph-name="k" horiz-adv-x="440" unicode="k" /><glyph d="M259 -41 227 -201H174L184 -41ZM324 530H402L225 306L422 0H347L184 256L117 170L120 0H55V800H120L117 259Z" glyph-name="kcommaaccent" horiz-adv-x="440" unicode="&#311;" /><glyph d="M324 530H402L225 306L422 0H347L184 256L117 170L120 0H55V530H120L117 259Z" glyph-name="kgreenlandic" horiz-adv-x="440" unicode="&#312;" /><glyph d="M58 800H122V0H58Z" glyph-name="l" horiz-adv-x="180" unicode="l" /><glyph d="M181 1050 121 842H60L110 1050ZM58 800H122V0H58Z" glyph-name="lacute" horiz-adv-x="178" unicode="&#314;" /><glyph d="M242 800 218 592H182V800ZM58 800H122V0H58Z" glyph-name="lcaron" horiz-adv-x="208" unicode="&#318;" /><glyph d="M126 -40 94 -200H41L51 -40ZM58 800H122V0H58Z" glyph-name="lcommaaccent" horiz-adv-x="178" unicode="&#316;" /><glyph d="M58 800H122V0H58ZM263 347H177V433H263Z" glyph-name="ldot" horiz-adv-x="284" unicode="&#320;" /><glyph d="M303 324 630 183V118L90 358V422L630 662V597L303 456L148 390Z" glyph-name="less" horiz-adv-x="720" unicode="&lt;" /><glyph d="M50 362V418L830 791V724L273 459L125 390L273 321L830 56V-11Z" glyph-name="less.cap" horiz-adv-x="880" unicode="&#58774;" /><glyph d="M90 293V334L630 160V119ZM325 407 630 313V249L90 421V489L630 661V597L325 503L158 455Z" glyph-name="lessequal" horiz-adv-x="720" unicode="&#8804;" /><glyph d="M276 774Q334 774 368.5 760.5Q403 747 421 722Q439 697 444 661Q449 625 449 580L384 571Q384 609 381 636.5Q378 664 367 682Q356 700 334.5 709Q313 718 276 718Q239 718 217.5 709Q196 700 185 682Q174 664 171 636.5Q168 609 168 571V457H343V400H168V328H343V271H168V60H449V0H43V60H102V271H43V328H102V400H43V457H102V580Q102 625 107 661Q112 697 130 722Q148 747 182.5 760.5Q217 774 276 774Z" glyph-name="lira" horiz-adv-x="485" unicode="&#8356;" /><glyph d="M569 511H90V572H630V208H569Z" glyph-name="logicalnot" horiz-adv-x="720" unicode="&#172;" /><glyph d="M30 0V53H300V0Z" glyph-name="lowline" horiz-adv-x="330" unicode="&#58641;" /><glyph d="M460 82 740 390 460 698 180 390ZM92 390 460 790 828 390 460 -10Z" glyph-name="lozenge" horiz-adv-x="920" unicode="&#9674;" /><glyph d="M93 393 21 349V405L93 449V800H157V489L240 541V485L157 433V0H93Z" glyph-name="lslash" horiz-adv-x="266" unicode="&#322;" /><glyph d="M115 465Q137 498 172.5 519Q208 540 260 540Q311 540 338 517.5Q365 495 373 466Q394 498 430 519Q466 540 518 540Q581 540 609.5 507Q638 474 638 425V0H573V406Q573 438 557 460Q541 482 495 482Q458 482 429 462Q400 442 379 408V0H314V406Q314 438 298 460Q282 482 236 482Q199 482 170 462Q141 442 120 408V0H56V414L53 530H109Z" glyph-name="m" horiz-adv-x="688" unicode="m" /><glyph d="M208 739H412V680H208Z" glyph-name="macron" horiz-adv-x="620" unicode="&#175;" /><glyph d="M90 360V420H630V360Z" glyph-name="minus" horiz-adv-x="720" unicode="&#8722;" /><glyph d="M50 360V420H830V360Z" glyph-name="minus.cap" horiz-adv-x="880" unicode="&#58770;" /><glyph d="M50 -17V38H350V-17Z" glyph-name="minus.inf" horiz-adv-x="400" unicode="&#58748;" /><glyph d="M166 780 120 530H80V780Z" glyph-name="minute" horiz-adv-x="200" unicode="&#8242;" /><glyph d="M341 65Q321 34 281 12Q241 -10 187 -10Q145 -10 114 4L115 -40V-200H50V530H115V127Q115 93 134.5 70.5Q154 48 199 48Q244 48 279.5 68.5Q315 89 335 121V530H400V116L403 0H347Z" glyph-name="mu" horiz-adv-x="455" unicode="&#181;" /><glyph d="M317 390 104 603 147 646 360 433 573 646 616 603 403 390 616 177 573 134 360 347 147 134 104 177Z" glyph-name="multiply" horiz-adv-x="720" unicode="&#215;" /><glyph d="M397 390 39 748 82 791 440 433 798 791 841 748 483 390 841 32 798 -11 440 347 82 -11 39 32Z" glyph-name="multiply.cap" horiz-adv-x="880" unicode="&#58771;" /><glyph d="M130 34Q166 47 212 72Q258 97 298.5 136Q339 175 367 228Q395 281 395 350Q395 377 390 401Q385 425 371.5 444Q358 463 335 474Q312 485 277 485Q247 485 221 471.5Q195 458 175.5 437.5Q156 417 144 392Q132 367 130 343ZM78 820H130V451Q140 470 156.5 487Q173 504 194 516.5Q215 529 238 536Q261 543 284 543Q372 543 413.5 495Q455 447 455 359Q455 285 423 220.5Q391 156 338.5 104Q286 52 218 15Q150 -22 78 -42Z" glyph-name="musicflatsign" horiz-adv-x="500" unicode="&#9837;" /><glyph d="M129 230 271 344V550L129 435ZM322 670V-50H271V265L78 110V830H129V515Z" glyph-name="musicnaturalsign" horiz-adv-x="400" /><glyph d="M172 230 314 344V550L172 435ZM365 670 456 743V664L365 590V385L456 458V379L365 305V0H314V265L172 151V-100H121V110L30 37V116L121 190V395L30 322V401L121 475V780H172V515L314 629V880H365Z" glyph-name="musicsharpsign" horiz-adv-x="486" unicode="&#9839;" /><glyph d="M115 465Q137 495 177 517.5Q217 540 276 540Q341 540 373 507Q405 474 405 423V0H341V403Q341 437 321.5 459.5Q302 482 256 482Q211 482 176 461.5Q141 441 120 409V0H56V414L53 530H109Z" glyph-name="n" horiz-adv-x="455" unicode="n" /><glyph d="M318 800 258 592H197L247 800ZM115 465Q137 495 177 517.5Q217 540 276 540Q341 540 373 507Q405 474 405 423V0H341V403Q341 437 321.5 459.5Q302 482 256 482Q211 482 176 461.5Q141 441 120 409V0H56V414L53 530H109Z" glyph-name="nacute" horiz-adv-x="455" unicode="&#324;" /><glyph d="M371 800 267 592H191L87 800H141L229 644L317 800ZM115 465Q137 495 177 517.5Q217 540 276 540Q341 540 373 507Q405 474 405 423V0H341V403Q341 437 321.5 459.5Q302 482 256 482Q211 482 176 461.5Q141 441 120 409V0H56V414L53 530H109Z" glyph-name="ncaron" horiz-adv-x="455" unicode="&#328;" /><glyph d="M267 -40 235 -200H182L192 -40ZM115 465Q137 495 177 517.5Q217 540 276 540Q341 540 373 507Q405 474 405 423V0H341V403Q341 437 321.5 459.5Q302 482 256 482Q211 482 176 461.5Q141 441 120 409V0H56V414L53 530H109Z" glyph-name="ncommaaccent" horiz-adv-x="455" unicode="&#326;" /><glyph d="M241 336Q294 336 327.5 367Q361 398 389 454Q389 530 381.5 580.5Q374 631 358 661.5Q342 692 317 704.5Q292 717 257 717Q222 717 197.5 707Q173 697 158 674Q143 651 136 614.5Q129 578 129 526Q129 472 136.5 435.5Q144 399 158 377Q172 355 193 345.5Q214 336 241 336ZM253 47Q300 47 327.5 66Q355 85 369 125.5Q383 166 386.5 230Q390 294 390 384Q362 331 321 304Q280 277 218 277Q137 277 100 335.5Q63 394 63 525Q63 586 72.5 633Q82 680 104.5 711Q127 742 164 758Q201 774 257 774Q318 774 357 754.5Q396 735 418 689Q440 643 448 568Q456 493 456 382Q456 277 448.5 202.5Q441 128 419 81Q397 34 356.5 12Q316 -10 250 -10Q195 -10 159.5 4Q124 18 103.5 43.5Q83 69 75 104.5Q67 140 67 182L132 192Q132 157 137.5 130Q143 103 156.5 84.5Q170 66 193.5 56.5Q217 47 253 47Z" glyph-name="nine" horiz-adv-x="520" unicode="9" /><glyph d="M219 336Q275 336 309.5 369Q344 402 373 459Q373 535 365 585Q357 635 340.5 664Q324 693 297.5 705Q271 717 235 717Q163 717 132 674Q101 631 101 526Q101 472 108.5 436Q116 400 131 377.5Q146 355 168 345.5Q190 336 219 336ZM223 47Q272 47 302 66Q332 85 348 126Q364 167 369 231.5Q374 296 374 388Q345 332 301.5 304.5Q258 277 195 277Q113 277 74 336Q35 395 35 525Q35 586 45 632.5Q55 679 78 710.5Q101 742 139.5 758Q178 774 235 774Q297 774 337 754.5Q377 735 400 689Q423 643 431.5 568Q440 493 440 382Q440 277 431 202.5Q422 128 398 81Q374 34 331 12Q288 -10 221 -10Q132 -10 84.5 28Q37 66 36 158L101 168Q101 132 110.5 109Q120 86 136.5 72Q153 58 175 52.5Q197 47 223 47Z" glyph-name="nine.LP" horiz-adv-x="490" unicode="&#58686;" /><glyph d="M142 -14Q167 -14 182 0Q197 14 209 40Q209 75 205.5 97.5Q202 120 194.5 133.5Q187 147 176 152Q165 157 149 157Q117 157 103.5 138Q90 119 90 72Q90 24 102.5 5Q115 -14 142 -14ZM143 -158Q164 -158 177 -150Q190 -142 197.5 -124.5Q205 -107 207.5 -78.5Q210 -50 210 -9Q193 -38 171 -50Q149 -62 120 -62Q76 -62 55.5 -30.5Q35 1 35 70Q35 136 59.5 170.5Q84 205 149 205Q184 205 206.5 194.5Q229 184 241.5 160Q254 136 259 96.5Q264 57 264 0Q264 -54 259 -92.5Q254 -131 240 -156.5Q226 -182 202 -194Q178 -206 139 -206Q85 -206 61 -184Q37 -162 36 -111L90 -104Q91 -136 105 -147Q119 -158 143 -158Z" glyph-name="nine.inf" horiz-adv-x="314" unicode="&#58746;" /><glyph glyph-name="nonbreakingspace" horiz-adv-x="176" unicode="&#160;" /><glyph d="M431 448 354 332H630V271H313L244 167H179L248 271H90V332H289L366 448H90V509H406L476 613H541L472 509H630V448Z" glyph-name="notequal" horiz-adv-x="720" unicode="&#8800;" /><glyph d="M381 743Q377 692 356.5 661.5Q336 631 297 632Q274 632 256 643.5Q238 655 222.5 668.5Q207 682 192.5 693.5Q178 705 162 706Q139 707 131.5 689.5Q124 672 122 645L74 652Q77 703 97.5 733.5Q118 764 157 763Q181 762 199 750.5Q217 739 232 725.5Q247 712 261.5 701Q276 690 292 689Q315 687 323 705Q331 723 333 750ZM115 465Q137 495 177 517.5Q217 540 276 540Q341 540 373 507Q405 474 405 423V0H341V403Q341 437 321.5 459.5Q302 482 256 482Q211 482 176 461.5Q141 441 120 409V0H56V414L53 530H109Z" glyph-name="ntilde" horiz-adv-x="455" unicode="&#241;" /><glyph d="M177 264H303L342 500H216ZM87 560H168L203 764H261L227 560H352L387 764H446L411 560H478V500H401L361 264H433V204H351L317 0H258L292 204H167L132 0H74L108 204H42V264H118L158 500H87Z" glyph-name="numbersign" horiz-adv-x="520" unicode="#" /><glyph d="M177 264H303L342 500H216ZM87 560H168L203 764H261L227 560H352L387 764H446L411 560H478V500H401L361 264H433V204H351L317 0H258L292 204H167L132 0H74L108 204H42V264H118L158 500H87Z" glyph-name="numbersign.LP" horiz-adv-x="520" unicode="&#58675;" /><glyph d="M230 -10Q182 -10 147 4Q112 18 89.5 50.5Q67 83 56 135.5Q45 188 45 265Q45 341 56 394Q67 447 89.5 479Q112 511 147 525.5Q182 540 230 540Q278 540 313 525.5Q348 511 370.5 479Q393 447 404 394Q415 341 415 265Q415 188 404 135.5Q393 83 370.5 50.5Q348 18 313 4Q278 -10 230 -10ZM230 47Q261 47 283.5 58.5Q306 70 320.5 95.5Q335 121 342 162.5Q349 204 349 265Q349 326 342 367.5Q335 409 320.5 434.5Q306 460 283.5 471.5Q261 483 230 483Q199 483 176.5 471.5Q154 460 139.5 434.5Q125 409 118 367.5Q111 326 111 265Q111 204 118 162.5Q125 121 139.5 95.5Q154 70 176.5 58.5Q199 47 230 47Z" glyph-name="o" horiz-adv-x="460" unicode="o" /><glyph d="M319 800 259 592H198L248 800ZM230 -10Q182 -10 147 4Q112 18 89.5 50.5Q67 83 56 135.5Q45 188 45 265Q45 341 56 394Q67 447 89.5 479Q112 511 147 525.5Q182 540 230 540Q278 540 313 525.5Q348 511 370.5 479Q393 447 404 394Q415 341 415 265Q415 188 404 135.5Q393 83 370.5 50.5Q348 18 313 4Q278 -10 230 -10ZM230 47Q261 47 283.5 58.5Q306 70 320.5 95.5Q335 121 342 162.5Q349 204 349 265Q349 326 342 367.5Q335 409 320.5 434.5Q306 460 283.5 471.5Q261 483 230 483Q199 483 176.5 471.5Q154 460 139.5 434.5Q125 409 118 367.5Q111 326 111 265Q111 204 118 162.5Q125 121 139.5 95.5Q154 70 176.5 58.5Q199 47 230 47Z" glyph-name="oacute" horiz-adv-x="460" unicode="&#243;" /><glyph d="M230 597Q186 597 159 611.5Q132 626 117 652.5Q102 679 97.5 716.5Q93 754 93 800H144Q143 727 159.5 689.5Q176 652 230 652Q284 652 300.5 689.5Q317 727 316 800H367Q367 754 362.5 716.5Q358 679 343 652.5Q328 626 301 611.5Q274 597 230 597ZM230 -10Q182 -10 147 4Q112 18 89.5 50.5Q67 83 56 135.5Q45 188 45 265Q45 341 56 394Q67 447 89.5 479Q112 511 147 525.5Q182 540 230 540Q278 540 313 525.5Q348 511 370.5 479Q393 447 404 394Q415 341 415 265Q415 188 404 135.5Q393 83 370.5 50.5Q348 18 313 4Q278 -10 230 -10ZM230 47Q261 47 283.5 58.5Q306 70 320.5 95.5Q335 121 342 162.5Q349 204 349 265Q349 326 342 367.5Q335 409 320.5 434.5Q306 460 283.5 471.5Q261 483 230 483Q199 483 176.5 471.5Q154 460 139.5 434.5Q125 409 118 367.5Q111 326 111 265Q111 204 118 162.5Q125 121 139.5 95.5Q154 70 176.5 58.5Q199 47 230 47Z" glyph-name="obreve" horiz-adv-x="460" unicode="&#335;" /><glyph d="M92 592 193 800H267L368 592H315L230 751L145 592ZM230 -10Q182 -10 147 4Q112 18 89.5 50.5Q67 83 56 135.5Q45 188 45 265Q45 341 56 394Q67 447 89.5 479Q112 511 147 525.5Q182 540 230 540Q278 540 313 525.5Q348 511 370.5 479Q393 447 404 394Q415 341 415 265Q415 188 404 135.5Q393 83 370.5 50.5Q348 18 313 4Q278 -10 230 -10ZM230 47Q261 47 283.5 58.5Q306 70 320.5 95.5Q335 121 342 162.5Q349 204 349 265Q349 326 342 367.5Q335 409 320.5 434.5Q306 460 283.5 471.5Q261 483 230 483Q199 483 176.5 471.5Q154 460 139.5 434.5Q125 409 118 367.5Q111 326 111 265Q111 204 118 162.5Q125 121 139.5 95.5Q154 70 176.5 58.5Q199 47 230 47Z" glyph-name="ocircumflex" horiz-adv-x="460" unicode="&#244;" /><glyph d="M350 670H274V746H350ZM186 670H110V746H186ZM230 -10Q182 -10 147 4Q112 18 89.5 50.5Q67 83 56 135.5Q45 188 45 265Q45 341 56 394Q67 447 89.5 479Q112 511 147 525.5Q182 540 230 540Q278 540 313 525.5Q348 511 370.5 479Q393 447 404 394Q415 341 415 265Q415 188 404 135.5Q393 83 370.5 50.5Q348 18 313 4Q278 -10 230 -10ZM230 47Q261 47 283.5 58.5Q306 70 320.5 95.5Q335 121 342 162.5Q349 204 349 265Q349 326 342 367.5Q335 409 320.5 434.5Q306 460 283.5 471.5Q261 483 230 483Q199 483 176.5 471.5Q154 460 139.5 434.5Q125 409 118 367.5Q111 326 111 265Q111 204 118 162.5Q125 121 139.5 95.5Q154 70 176.5 58.5Q199 47 230 47Z" glyph-name="odieresis" horiz-adv-x="460" unicode="&#246;" /><glyph d="M531 486Q498 486 476 475Q454 464 441 440Q428 416 423 379.5Q418 343 418 292H639Q639 339 635.5 375Q632 411 620.5 436Q609 461 588 473.5Q567 486 531 486ZM230 46Q261 46 283.5 57.5Q306 69 320.5 95Q335 121 342 162.5Q349 204 349 265Q349 326 342 367.5Q335 409 320.5 435Q306 461 283.5 472.5Q261 484 230 484Q199 484 176.5 472.5Q154 461 139.5 435Q125 409 118 367.5Q111 326 111 265Q111 204 118 162.5Q125 121 139.5 95Q154 69 176.5 57.5Q199 46 230 46ZM418 243Q418 194 422.5 157Q427 120 440 95Q453 70 475 57Q497 44 533 44Q565 44 585 51Q605 58 616.5 71.5Q628 85 632.5 104Q637 123 637 146L703 137Q703 105 695.5 78Q688 51 669.5 31.5Q651 12 618.5 1Q586 -10 535 -10Q469 -10 433.5 15.5Q398 41 381 88Q362 37 326 13.5Q290 -10 230 -10Q182 -10 147 4Q112 18 89.5 50.5Q67 83 56 135.5Q45 188 45 265Q45 341 56 394Q67 447 89.5 479Q112 511 147 525.5Q182 540 230 540Q289 540 325.5 516.5Q362 493 381 442Q398 488 433 514Q468 540 532 540Q587 540 621.5 522Q656 504 675.5 468.5Q695 433 701.5 382Q708 331 708 265V243Z" glyph-name="oe" horiz-adv-x="749" unicode="&#339;" /><glyph d="M516 0Q476 -11 450 -37.5Q424 -64 425 -107Q425 -138 442 -151Q459 -164 481 -162Q502 -161 516 -154Q530 -147 538 -141L553 -187Q537 -198 517 -204.5Q497 -211 471 -211Q454 -211 437 -206.5Q420 -202 406 -191.5Q392 -181 383 -164Q374 -147 373 -122Q368 -65 402 -26.5Q436 12 496 36Z" glyph-name="ogonek" horiz-adv-x="620" unicode="&#731;" /><glyph d="M212 800 262 592H201L141 800ZM230 -10Q182 -10 147 4Q112 18 89.5 50.5Q67 83 56 135.5Q45 188 45 265Q45 341 56 394Q67 447 89.5 479Q112 511 147 525.5Q182 540 230 540Q278 540 313 525.5Q348 511 370.5 479Q393 447 404 394Q415 341 415 265Q415 188 404 135.5Q393 83 370.5 50.5Q348 18 313 4Q278 -10 230 -10ZM230 47Q261 47 283.5 58.5Q306 70 320.5 95.5Q335 121 342 162.5Q349 204 349 265Q349 326 342 367.5Q335 409 320.5 434.5Q306 460 283.5 471.5Q261 483 230 483Q199 483 176.5 471.5Q154 460 139.5 434.5Q125 409 118 367.5Q111 326 111 265Q111 204 118 162.5Q125 121 139.5 95.5Q154 70 176.5 58.5Q199 47 230 47Z" glyph-name="ograve" horiz-adv-x="460" unicode="&#242;" /><glyph d="M360 713Q302 713 255.5 695Q209 677 176 643.5Q143 610 125.5 561Q108 512 108 450Q108 385 125.5 326Q143 267 171 215.5Q199 164 233.5 122.5Q268 81 303 52V0H30V60H122L226 59Q190 94 156.5 138Q123 182 97.5 233Q72 284 57 340Q42 396 42 455Q42 528 63.5 587Q85 646 126 688Q167 730 226 752.5Q285 775 360 775Q435 775 494 752.5Q553 730 594 688Q635 646 656.5 587Q678 528 678 455Q678 396 662.5 340Q647 284 621.5 233Q596 182 563 138Q530 94 494 59L598 60H690V0H417V52Q451 81 486 122.5Q521 164 549 215.5Q577 267 594.5 326Q612 385 612 450Q612 512 594.5 561Q577 610 544 643.5Q511 677 464.5 695Q418 713 360 713Z" glyph-name="ohm" horiz-adv-x="720" unicode="&#8486;" /><glyph d="M385 800 322 592H262L313 800ZM260 800 198 592H138L189 800ZM230 -10Q182 -10 147 4Q112 18 89.5 50.5Q67 83 56 135.5Q45 188 45 265Q45 341 56 394Q67 447 89.5 479Q112 511 147 525.5Q182 540 230 540Q278 540 313 525.5Q348 511 370.5 479Q393 447 404 394Q415 341 415 265Q415 188 404 135.5Q393 83 370.5 50.5Q348 18 313 4Q278 -10 230 -10ZM230 47Q261 47 283.5 58.5Q306 70 320.5 95.5Q335 121 342 162.5Q349 204 349 265Q349 326 342 367.5Q335 409 320.5 434.5Q306 460 283.5 471.5Q261 483 230 483Q199 483 176.5 471.5Q154 460 139.5 434.5Q125 409 118 367.5Q111 326 111 265Q111 204 118 162.5Q125 121 139.5 95.5Q154 70 176.5 58.5Q199 47 230 47Z" glyph-name="ohungarumlaut" horiz-adv-x="460" unicode="&#337;" /><glyph d="M128 739H332V680H128ZM230 -10Q182 -10 147 4Q112 18 89.5 50.5Q67 83 56 135.5Q45 188 45 265Q45 341 56 394Q67 447 89.5 479Q112 511 147 525.5Q182 540 230 540Q278 540 313 525.5Q348 511 370.5 479Q393 447 404 394Q415 341 415 265Q415 188 404 135.5Q393 83 370.5 50.5Q348 18 313 4Q278 -10 230 -10ZM230 47Q261 47 283.5 58.5Q306 70 320.5 95.5Q335 121 342 162.5Q349 204 349 265Q349 326 342 367.5Q335 409 320.5 434.5Q306 460 283.5 471.5Q261 483 230 483Q199 483 176.5 471.5Q154 460 139.5 434.5Q125 409 118 367.5Q111 326 111 265Q111 204 118 162.5Q125 121 139.5 95.5Q154 70 176.5 58.5Q199 47 230 47Z" glyph-name="omacron" horiz-adv-x="460" unicode="&#333;" /><glyph d="M71 0V59H241V671Q215 630 170 595.5Q125 561 61 538V603Q97 616 125 634Q153 652 176 674Q199 696 217 721.5Q235 747 252 774H307V59H477V0Z" glyph-name="one" horiz-adv-x="520" unicode="1" /><glyph d="M249 0H183L182 677Q156 643 124.5 619Q93 595 56 578V641Q94 661 126.5 692.5Q159 724 193 774H248Z" glyph-name="one.LP" horiz-adv-x="369" unicode="&#58678;" /><glyph d="M63 -200V-151H120V128Q107 114 91 103.5Q75 93 57 85V139Q79 150 96 165.5Q113 181 130 205H174V-151H230V-200Z" glyph-name="one.inf" horiz-adv-x="281" unicode="&#58738;" /><glyph d="M515 764H580L190 0H125ZM63 370V419H120V698Q107 684 91 673.5Q75 663 57 655V709Q79 720 96 735.5Q113 751 130 775H174V419H230V370ZM545 357Q517 357 507 339.5Q497 322 497 283L442 290Q442 317 445.5 338.5Q449 360 460 374.5Q471 389 491.5 397Q512 405 546 405Q606 405 626.5 378.5Q647 352 647 295Q647 269 642 251.5Q637 234 626 220Q615 206 598.5 193.5Q582 181 558 166Q535 151 522.5 139Q510 127 503.5 114.5Q497 102 495.5 86.5Q494 71 494 49H653V0H437Q437 49 439.5 79Q442 109 451 130Q460 151 478.5 167Q497 183 529 204Q548 216 560.5 226Q573 236 580 245.5Q587 255 589.5 266Q592 277 592 292Q592 327 583 342Q574 357 545 357Z" glyph-name="onehalf" horiz-adv-x="755" unicode="&#189;" /><glyph d="M591 335 498 138 588 140ZM640 91V0H588V91H448V131L580 405H640V140H685V91ZM511 764H576L186 0H121ZM63 370V419H120V698Q107 684 91 673.5Q75 663 57 655V709Q79 720 96 735.5Q113 751 130 775H174V419H230V370Z" glyph-name="onequarter" horiz-adv-x="718" unicode="&#188;" /><glyph d="M63 370V419H120V698Q107 684 91 673.5Q75 663 57 655V709Q79 720 96 735.5Q113 751 130 775H174V419H230V370Z" glyph-name="onesuperior" horiz-adv-x="281" unicode="&#185;" /><glyph d="M59 305V365H294V305Z" glyph-name="onethirdemdash" horiz-adv-x="353" unicode="&#58481;" /><glyph d="M59 359V420H294V359Z" glyph-name="onethirdemdash.cap" horiz-adv-x="353" unicode="&#58499;" /><glyph d="M91 496Q91 426 153 426Q175 426 191 432.5Q207 439 218.5 448Q230 457 237 467.5Q244 478 249 486V599L192 589Q144 581 117.5 562Q91 543 91 496ZM178 745Q153 745 138 740Q123 735 115.5 725Q108 715 105.5 699.5Q103 684 103 663L47 671Q47 699 51.5 721.5Q56 744 70 759.5Q84 775 110 783Q136 791 178 791Q219 791 244 782.5Q269 774 282.5 757.5Q296 741 301 715.5Q306 690 306 656L307 460L308 390H260L254 437Q241 417 214 398Q187 379 138 379Q32 379 32 492Q32 556 72 586Q112 616 190 627L249 636V660Q249 682 247.5 698Q246 714 239 724.5Q232 735 217.5 740Q203 745 178 745Z" glyph-name="ordfeminine" horiz-adv-x="355" unicode="&#170;" /><glyph d="M258 684Q225 736 179 736Q137 736 115 699.5Q93 663 93 585Q93 507 115 470.5Q137 434 179 434Q225 434 258 486ZM315 710V460L317 390H269L263 437Q229 379 166 379Q105 379 70.5 430.5Q36 482 36 585Q36 688 70.5 739.5Q105 791 166 791Q229 791 263 733L269 780H317Z" glyph-name="ordfeminine.school" horiz-adv-x="365" unicode="&#57730;" /><glyph d="M283 585Q283 631 277 661.5Q271 692 259.5 710.5Q248 729 230.5 736.5Q213 744 190 744Q167 744 150 736.5Q133 729 121.5 710.5Q110 692 104 661.5Q98 631 98 585Q98 539 104 508.5Q110 478 121.5 459.5Q133 441 150 433.5Q167 426 190 426Q213 426 230.5 433.5Q248 441 259.5 459.5Q271 478 277 508.5Q283 539 283 585ZM340 585Q340 475 304.5 427Q269 379 190 379Q111 379 76 427Q41 475 41 585Q41 695 76 743Q111 791 190 791Q269 791 304.5 743Q340 695 340 585Z" glyph-name="ordmasculine" horiz-adv-x="381" unicode="&#186;" /><glyph d="M111 265Q111 173 127 124L313 446Q285 484 230 484Q199 484 176.5 472.5Q154 461 139.5 435Q125 409 118 367.5Q111 326 111 265ZM230 46Q261 46 283.5 57.5Q306 69 320.5 95Q335 121 342 162.5Q349 204 349 265Q349 356 333 405L146 84Q161 64 181.5 55Q202 46 230 46ZM373 476Q416 411 416 265Q416 188 405 135.5Q394 83 371.5 50.5Q349 18 313.5 4Q278 -10 230 -10Q192 -10 163 -2Q134 6 112 25L98 0H55L86 54Q65 87 55 138.5Q45 190 45 265Q45 341 56 394Q67 447 89.5 479Q112 511 147 525.5Q182 540 230 540Q305 540 347 505L362 530H405Z" glyph-name="oslash" horiz-adv-x="460" unicode="&#248;" /><glyph d="M382 743Q378 692 357.5 661.5Q337 631 298 632Q275 632 257 643.5Q239 655 223.5 668.5Q208 682 193.5 693.5Q179 705 163 706Q140 707 132.5 689.5Q125 672 123 645L75 652Q78 703 98.5 733.5Q119 764 158 763Q182 762 200 750.5Q218 739 233 725.5Q248 712 262.5 701Q277 690 293 689Q316 687 324 705Q332 723 334 750ZM230 -10Q182 -10 147 4Q112 18 89.5 50.5Q67 83 56 135.5Q45 188 45 265Q45 341 56 394Q67 447 89.5 479Q112 511 147 525.5Q182 540 230 540Q278 540 313 525.5Q348 511 370.5 479Q393 447 404 394Q415 341 415 265Q415 188 404 135.5Q393 83 370.5 50.5Q348 18 313 4Q278 -10 230 -10ZM230 47Q261 47 283.5 58.5Q306 70 320.5 95.5Q335 121 342 162.5Q349 204 349 265Q349 326 342 367.5Q335 409 320.5 434.5Q306 460 283.5 471.5Q261 483 230 483Q199 483 176.5 471.5Q154 460 139.5 434.5Q125 409 118 367.5Q111 326 111 265Q111 204 118 162.5Q125 121 139.5 95.5Q154 70 176.5 58.5Q199 47 230 47Z" glyph-name="otilde" horiz-adv-x="460" unicode="&#245;" /><glyph d="M120 123Q146 88 175.5 68Q205 48 243 48Q278 48 300 62.5Q322 77 334.5 105Q347 133 351.5 173.5Q356 214 356 265Q356 316 351.5 356.5Q347 397 334.5 425Q322 453 300 467.5Q278 482 243 482Q205 482 175.5 462Q146 442 120 407ZM255 -10Q215 -10 182 6Q149 22 120 58V-200H55V414L53 530H109L115 465Q144 506 179.5 523Q215 540 255 540Q304 540 336.5 521.5Q369 503 388 467.5Q407 432 415 381Q423 330 423 265Q423 200 415 149Q407 98 388 62.5Q369 27 336.5 8.5Q304 -10 255 -10Z" glyph-name="p" horiz-adv-x="468" unicode="p" /><glyph d="M104 550Q104 500 111.5 467Q119 434 134 414.5Q149 395 171 387.5Q193 380 222 380H249V721H222Q193 721 171 713Q149 705 134 685.5Q119 666 111.5 633Q104 600 104 550ZM36 550Q36 620 49.5 664.5Q63 709 87.5 734.5Q112 760 145.5 770Q179 780 218 780H387V0H321V721H285V0H249V320H218Q178 320 144.5 330Q111 340 87 365.5Q63 391 49.5 435.5Q36 480 36 550Z" glyph-name="paragraph" horiz-adv-x="446" unicode="&#182;" /><glyph d="M121 350Q121 277 128 214.5Q135 152 148.5 94.5Q162 37 182 -18Q202 -73 228 -130H164Q141 -91 121 -39Q101 13 86 75Q71 137 62.5 206.5Q54 276 54 350Q54 423 62.5 493Q71 563 86 625Q101 687 121 739Q141 791 164 830H228Q202 773 182 718Q162 663 148.5 605.5Q135 548 128 485.5Q121 423 121 350Z" glyph-name="parenleft" horiz-adv-x="274" unicode="(" /><glyph d="M122 390Q122 317 128.5 254.5Q135 192 148.5 134.5Q162 77 182 22Q202 -33 228 -90H164Q141 -51 121 1Q101 53 86 115Q71 177 62.5 246.5Q54 316 54 390Q54 463 62.5 533Q71 603 86 665Q101 727 121 779Q141 831 164 870H228Q202 813 182 758Q162 703 148.5 645.5Q135 588 128.5 525.5Q122 463 122 390Z" glyph-name="parenleft.cap" horiz-adv-x="274" unicode="&#58513;" /><glyph d="M127 -3Q127 -69 141 -137Q155 -205 177 -256H122Q99 -207 82 -144.5Q65 -82 65 -3Q65 76 82 138.5Q99 201 122 250H177Q155 199 141 131Q127 63 127 -3Z" glyph-name="parenleft.inf" horiz-adv-x="230" unicode="&#58750;" /><glyph d="M152 350Q152 423 145.5 485.5Q139 548 125.5 605.5Q112 663 92 718Q72 773 46 830H110Q132 791 152 739Q172 687 187 625Q202 563 211 493Q220 423 220 350Q220 276 211 206.5Q202 137 187 75Q172 13 152 -39Q132 -91 110 -130H46Q72 -73 92 -18Q112 37 125.5 94.5Q139 152 145.5 214.5Q152 277 152 350Z" glyph-name="parenright" horiz-adv-x="274" unicode=")" /><glyph d="M152 390Q152 463 145.5 525.5Q139 588 125.5 645.5Q112 703 92 758Q72 813 46 870H110Q132 831 152 779Q172 727 187 665Q202 603 211 533Q220 463 220 390Q220 316 211 246.5Q202 177 187 115Q172 53 152 1Q132 -51 110 -90H46Q72 -33 92 22Q112 77 125.5 134.5Q139 192 145.5 254.5Q152 317 152 390Z" glyph-name="parenright.cap" horiz-adv-x="274" unicode="&#58514;" /><glyph d="M104 -3Q104 63 89.5 131Q75 199 53 250H109Q132 201 149 138.5Q166 76 166 -3Q166 -82 149 -144.5Q132 -207 109 -256H53Q75 -205 89.5 -137Q104 -69 104 -3Z" glyph-name="parenright.inf" horiz-adv-x="230" unicode="&#58751;" /><glyph d="M328 427Q289 427 255 416Q221 405 196 382.5Q171 360 156.5 324.5Q142 289 142 239Q142 188 159 152.5Q176 117 204.5 94.5Q233 72 269.5 61Q306 50 345 50Q507 47 548 204Q549 210 549 216.5Q549 223 549 229Q549 278 531 315Q513 352 482 377Q451 402 411 414.5Q371 427 328 427ZM98 720Q140 745 195 762Q250 779 316 779Q469 779 552.5 677Q636 575 636 382Q636 184 566.5 86.5Q497 -11 345 -11Q287 -11 237 5.5Q187 22 150 53.5Q113 85 92 131.5Q71 178 71 239Q71 301 89 348Q107 395 140 426.5Q173 458 219.5 473.5Q266 489 324 489Q357 489 393 482Q429 475 462.5 458Q496 441 523.5 413Q551 385 565 343Q565 347 565.5 360.5Q566 374 566 397Q567 481 548 542Q529 603 495.5 642Q462 681 416.5 699.5Q371 718 317 718Q269 719 220.5 706Q172 693 127 667Z" glyph-name="partialdiff" horiz-adv-x="716" unicode="&#8706;" /><glyph d="M587 409Q625 409 651 398.5Q677 388 693.5 363.5Q710 339 717.5 299Q725 259 725 199Q725 139 717.5 99Q710 59 693.5 35Q677 11 651 0.5Q625 -10 587 -10Q549 -10 523 0.5Q497 11 480.5 35Q464 59 457 99Q450 139 450 199Q450 259 457 299Q464 339 480.5 363.5Q497 388 523 398.5Q549 409 587 409ZM587 43Q610 43 625.5 50Q641 57 650 74.5Q659 92 663 122Q667 152 667 199Q667 246 663 276.5Q659 307 650 324.5Q641 342 625.5 349Q610 356 587 356Q564 356 549 349Q534 342 525 324.5Q516 307 512 276.5Q508 246 508 199Q508 152 512 122Q516 92 525 74.5Q534 57 549 50Q564 43 587 43ZM178 355Q140 355 114 365.5Q88 376 71.5 400.5Q55 425 48 465Q41 505 41 565Q41 625 48 665Q55 705 71.5 729Q88 753 114 763.5Q140 774 178 774Q216 774 242 763.5Q268 753 284.5 729Q301 705 308.5 665Q316 625 316 565Q316 505 308.5 465Q301 425 284.5 400.5Q268 376 242 365.5Q216 355 178 355ZM545 764H610L220 0H155ZM178 721Q155 721 140 714Q125 707 116 689.5Q107 672 103 641.5Q99 611 99 565Q99 518 103 487.5Q107 457 116 439.5Q125 422 140 415Q155 408 178 408Q201 408 216.5 415Q232 422 241 439.5Q250 457 254 487.5Q258 518 258 565Q258 611 254 641.5Q250 672 241 689.5Q232 707 216.5 714Q201 721 178 721Z" glyph-name="percent" horiz-adv-x="766" unicode="%" /><glyph d="M128 0H52V76H128Z" glyph-name="period" horiz-adv-x="180" unicode="." /><glyph d="M168 0H92V76H168Z" glyph-name="period.T" horiz-adv-x="260" /><glyph d="M163 293H77V378H163Z" glyph-name="periodcentered" horiz-adv-x="241" unicode="&#183;" /><glyph d="M163 347H77V433H163Z" glyph-name="periodcentered.cap" horiz-adv-x="241" unicode="&#58497;" /><glyph d="M904 409Q942 409 968 398.5Q994 388 1010.5 363.5Q1027 339 1034.5 299Q1042 259 1042 199Q1042 139 1034.5 99Q1027 59 1010.5 35Q994 11 968 0.5Q942 -10 904 -10Q866 -10 840 0.5Q814 11 797.5 35Q781 59 774 99Q767 139 767 199Q767 259 774 299Q781 339 797.5 363.5Q814 388 840 398.5Q866 409 904 409ZM904 43Q927 43 942.5 50Q958 57 967 74.5Q976 92 980 122Q984 152 984 199Q984 246 980 276.5Q976 307 967 324.5Q958 342 942.5 349Q927 356 904 356Q881 356 866 349Q851 342 842 324.5Q833 307 829 276.5Q825 246 825 199Q825 152 829 122Q833 92 842 74.5Q851 57 866 50Q881 43 904 43ZM587 409Q625 409 651 398.5Q677 388 693.5 363.5Q710 339 717.5 299Q725 259 725 199Q725 139 717.5 99Q710 59 693.5 35Q677 11 651 0.5Q625 -10 587 -10Q549 -10 523 0.5Q497 11 480.5 35Q464 59 457 99Q450 139 450 199Q450 259 457 299Q464 339 480.5 363.5Q497 388 523 398.5Q549 409 587 409ZM587 43Q610 43 625.5 50Q641 57 650 74.5Q659 92 663 122Q667 152 667 199Q667 246 663 276.5Q659 307 650 324.5Q641 342 625.5 349Q610 356 587 356Q564 356 549 349Q534 342 525 324.5Q516 307 512 276.5Q508 246 508 199Q508 152 512 122Q516 92 525 74.5Q534 57 549 50Q564 43 587 43ZM178 355Q140 355 114 365.5Q88 376 71.5 400.5Q55 425 48 465Q41 505 41 565Q41 625 48 665Q55 705 71.5 729Q88 753 114 763.5Q140 774 178 774Q216 774 242 763.5Q268 753 284.5 729Q301 705 308.5 665Q316 625 316 565Q316 505 308.5 465Q301 425 284.5 400.5Q268 376 242 365.5Q216 355 178 355ZM545 764H610L220 0H155ZM178 721Q155 721 140 714Q125 707 116 689.5Q107 672 103 641.5Q99 611 99 565Q99 518 103 487.5Q107 457 116 439.5Q125 422 140 415Q155 408 178 408Q201 408 216.5 415Q232 422 241 439.5Q250 457 254 487.5Q258 518 258 565Q258 611 254 641.5Q250 672 241 689.5Q232 707 216.5 714Q201 721 178 721Z" glyph-name="perthousand" horiz-adv-x="1088" unicode="&#8240;" /><glyph d="M220 380Q249 380 271.5 386.5Q294 393 309 411Q324 429 331.5 460.5Q339 492 339 542Q339 592 331.5 623.5Q324 655 309 673Q294 691 271.5 698Q249 705 220 705H125V380ZM844 42Q877 42 898 49Q919 56 931 68.5Q943 81 947.5 99.5Q952 118 952 142Q952 171 944.5 188.5Q937 206 922 217Q907 228 885.5 234.5Q864 241 836 248Q806 254 780.5 262.5Q755 271 737 286.5Q719 302 709 327.5Q699 353 699 394Q699 468 739.5 504Q780 540 858 540Q907 540 936.5 530.5Q966 521 982.5 502.5Q999 484 1004.5 456.5Q1010 429 1010 394L945 385Q945 409 942 428Q939 447 930 460.5Q921 474 904 481Q887 488 858 488Q808 488 788 463.5Q768 439 768 394Q768 370 772 355Q776 340 787 330.5Q798 321 817 314.5Q836 308 866 301Q899 294 927.5 285Q956 276 977 259Q998 242 1010 214.5Q1022 187 1022 144Q1022 66 981 28Q940 -10 844 -10Q802 -10 773.5 -3Q745 4 727 17Q710 4 683.5 -3Q657 -10 622 -10Q553 -10 521 18Q489 46 489 96V475H402Q396 427 380 397Q364 367 341 349.5Q318 332 288.5 326Q259 320 225 320H125V0H59V764H224Q264 764 297.5 755.5Q331 747 355 723Q379 699 392.5 655.5Q406 612 406 542V530H489V670L553 675V530H669V475H553V105Q553 69 571.5 55.5Q590 42 622 42Q672 42 695 62Q689 78 687 96.5Q685 115 685 137L749 146Q749 123 751.5 104Q754 85 764 71Q774 57 792.5 49.5Q811 42 844 42Z" glyph-name="peseta" horiz-adv-x="1055" unicode="&#8359;" /><glyph d="M323 475H180V88L171 0H113L115 116V475H34V530H494V475H388V105Q388 69 403.5 58Q419 47 444 47Q461 47 474 50.5Q487 54 494 56L499 0Q489 -4 473.5 -7Q458 -10 436 -10Q375 -10 349 18Q323 46 323 95Z" glyph-name="pi" horiz-adv-x="541" unicode="&#960;" /><glyph d="M329 360H90V420H329V660H391V420H630V360H391V120H329Z" glyph-name="plus" horiz-adv-x="720" unicode="+" /><glyph d="M409 360H50V420H409V780H471V420H830V360H471V0H409Z" glyph-name="plus.cap" horiz-adv-x="880" unicode="&#58769;" /><glyph d="M173 -17H50V38H173V160H228V38H350V-17H228V-140H173Z" glyph-name="plus.inf" horiz-adv-x="400" unicode="&#58747;" /><glyph d="M90 148V209H630V148ZM329 443H90V504H329V670H391V504H630V443H391V276H329Z" glyph-name="plusminus" horiz-adv-x="720" unicode="&#177;" /><glyph d="M230 703V0H161V703H36V764H744V703H619V0H550V703Z" glyph-name="product" horiz-adv-x="780" unicode="&#8719;" /><glyph d="M370 155H307V625H485Q514 625 542.5 618.5Q571 612 593.5 596Q616 580 630 552Q644 524 644 481Q644 437 630 409Q616 381 593.5 364.5Q571 348 542.5 341.5Q514 335 485 335H370ZM490 396Q504 396 520 398.5Q536 401 549 410Q562 419 570.5 435.5Q579 452 579 481Q579 509 570.5 525.5Q562 542 549 550.5Q536 559 520 561.5Q504 564 490 564H370V396ZM115 390Q115 321 141.5 260Q168 199 213.5 153.5Q259 108 320 81.5Q381 55 450 55Q519 55 580 81.5Q641 108 686.5 153.5Q732 199 758.5 260Q785 321 785 390Q785 459 758.5 520Q732 581 686.5 626.5Q641 672 580 698.5Q519 725 450 725Q381 725 320 698.5Q259 672 213.5 626.5Q168 581 141.5 520Q115 459 115 390ZM50 390Q50 473 81.5 546Q113 619 167 673Q221 727 294 758.5Q367 790 450 790Q533 790 606 758.5Q679 727 733 673Q787 619 818.5 546Q850 473 850 390Q850 307 818.5 234Q787 161 733 107Q679 53 606 21.5Q533 -10 450 -10Q367 -10 294 21.5Q221 53 167 107Q113 161 81.5 234Q50 307 50 390Z" glyph-name="published" horiz-adv-x="900" unicode="&#8471;" /><glyph glyph-name="punctuationspace" horiz-adv-x="276" unicode="&#8200;" /><glyph d="M348 407Q322 442 292.5 462Q263 482 225 482Q190 482 168 467.5Q146 453 133.5 425Q121 397 116.5 356.5Q112 316 112 265Q112 214 116.5 173.5Q121 133 133.5 105Q146 77 168 62.5Q190 48 225 48Q263 48 292.5 68Q322 88 348 123ZM212 -10Q163 -10 130.5 8.5Q98 27 79 62.5Q60 98 52.5 149Q45 200 45 265Q45 330 52.5 381Q60 432 79 467.5Q98 503 130.5 521.5Q163 540 212 540Q252 540 288 523Q324 506 353 465L359 530H415L412 414V-200H348V58Q319 22 285.5 6Q252 -10 212 -10Z" glyph-name="q" horiz-adv-x="468" unicode="q" /><glyph d="M251 0H175V76H251ZM191 202Q179 231 172 260.5Q165 290 165 315Q165 363 184.5 389.5Q204 416 241 438Q263 452 281 465.5Q299 479 311.5 496Q324 513 330.5 536Q337 559 337 593Q337 633 329.5 660Q322 687 307.5 703Q293 719 271 725.5Q249 732 221 732Q152 732 127 694.5Q102 657 102 575L37 584Q37 638 46.5 677Q56 716 77.5 741.5Q99 767 134.5 779Q170 791 221 791Q269 791 303.5 781Q338 771 360.5 748Q383 725 394 688Q405 651 405 596Q405 548 394.5 516Q384 484 366 462.5Q348 441 325.5 425.5Q303 410 279 395Q246 372 234.5 353Q223 334 221 305Q220 268 237 202Z" glyph-name="question" horiz-adv-x="442" unicode="?" /><glyph d="M190 530H270V451H190ZM252 328Q264 298 270.5 273Q277 248 277 225Q277 202 272 184.5Q267 167 257.5 153.5Q248 140 233.5 129.5Q219 119 201 109Q179 97 161 85.5Q143 74 130.5 59Q118 44 111.5 24Q105 4 105 -25Q105 -91 134.5 -121.5Q164 -152 221 -152Q290 -152 315 -114.5Q340 -77 340 4L405 -5Q405 -58 395.5 -97Q386 -136 364.5 -161Q343 -186 307.5 -198Q272 -210 221 -210Q124 -210 80.5 -166Q37 -122 37 -28Q37 15 47.5 43.5Q58 72 75 91.5Q92 111 114.5 125Q137 139 161 153Q179 163 190 171.5Q201 180 208 189.5Q215 199 217.5 209.5Q220 220 221 235Q221 253 217.5 274Q214 295 206 328Z" glyph-name="questiondown" horiz-adv-x="443" unicode="&#191;" /><glyph d="M191 780H267V704H191ZM251 578Q263 549 270 519.5Q277 490 277 465Q277 417 257.5 390.5Q238 364 201 342Q179 328 161 314.5Q143 301 130.5 284Q118 267 111.5 244Q105 221 105 187Q105 146 112.5 119.5Q120 93 134.5 77Q149 61 170.5 54.5Q192 48 221 48Q255 48 278 57Q301 66 315 85Q329 104 334.5 134Q340 164 340 205L405 196Q405 142 395.5 103Q386 64 364.5 38.5Q343 13 307.5 1Q272 -11 221 -11Q173 -11 138.5 -1Q104 9 81.5 32Q59 55 48 92Q37 129 37 184Q37 232 47.5 264Q58 296 76 317.5Q94 339 116.5 354.5Q139 370 163 385Q196 408 207.5 427Q219 446 221 475Q222 512 205 578Z" glyph-name="questiondown.cap" horiz-adv-x="442" unicode="&#58436;" /><glyph d="M255 780 240 530H189L173 780ZM136 780 121 530H70L54 780Z" glyph-name="quotedbl" horiz-adv-x="309" unicode="&quot;" /><glyph d="M141 86 88 -164H41L59 86ZM265 86 212 -164H165L183 86Z" glyph-name="quotedblbase" horiz-adv-x="289" unicode="&#8222;" /><glyph d="M144 530 197 780H244L226 530ZM19 530 72 780H120L102 530Z" glyph-name="quotedblleft" horiz-adv-x="287" unicode="&#8220;" /><glyph d="M145 780 93 530H45L63 780ZM270 780 217 530H169L187 780Z" glyph-name="quotedblright" horiz-adv-x="290" unicode="&#8221;" /><glyph d="M19 530 72 780H120L102 530Z" glyph-name="quoteleft" horiz-adv-x="165" unicode="&#8216;" /><glyph d="M145 780 93 530H45L63 780Z" glyph-name="quoteright" horiz-adv-x="165" unicode="&#8217;" /><glyph d="M141 86 88 -164H41L59 86Z" glyph-name="quotesinglbase" horiz-adv-x="165" unicode="&#8218;" /><glyph d="M136 780 121 530H70L54 780Z" glyph-name="quotesingle" horiz-adv-x="190" unicode="&apos;" /><glyph d="M240 478Q202 478 172.5 457.5Q143 437 120 403V0H56V414L53 530H109L115 464Q135 498 167.5 519Q200 540 238 540Q263 540 278 533L274 474Q267 476 257.5 477Q248 478 240 478Z" glyph-name="r" horiz-adv-x="302" unicode="r" /><glyph d="M254 800 194 592H133L183 800ZM240 478Q202 478 172.5 457.5Q143 437 120 403V0H56V414L53 530H109L115 464Q135 498 167.5 519Q200 540 238 540Q263 540 278 533L274 474Q267 476 257.5 477Q248 478 240 478Z" glyph-name="racute" horiz-adv-x="302" unicode="&#341;" /><glyph d="M700 764H776L331 -8H261L149 468L46 445V506L196 541L271 219L305 68L380 204Z" glyph-name="radical" horiz-adv-x="795" unicode="&#8730;" /><glyph d="M307 800 203 592H127L23 800H77L165 644L253 800ZM240 478Q202 478 172.5 457.5Q143 437 120 403V0H56V414L53 530H109L115 464Q135 498 167.5 519Q200 540 238 540Q263 540 278 533L274 474Q267 476 257.5 477Q248 478 240 478Z" glyph-name="rcaron" horiz-adv-x="302" unicode="&#345;" /><glyph d="M126 -40 94 -200H41L51 -40ZM240 478Q202 478 172.5 457.5Q143 437 120 403V0H56V414L53 530H109L115 464Q135 498 167.5 519Q200 540 238 540Q263 540 278 533L274 474Q267 476 257.5 477Q248 478 240 478Z" glyph-name="rcommaaccent" horiz-adv-x="302" unicode="&#343;" /><glyph d="M477 402Q490 402 505 404Q520 406 533 414.5Q546 423 554 439Q562 455 562 484Q562 512 554 528Q546 544 533 552Q520 560 505 562Q490 564 477 564H342V402ZM342 155H279V625H471Q501 625 529 619.5Q557 614 579 598Q601 582 614.5 554.5Q628 527 628 484Q628 451 620 427Q612 403 597.5 386.5Q583 370 564 360.5Q545 351 524 347L641 155H562L456 342H342ZM115 390Q115 321 141.5 260Q168 199 213.5 153.5Q259 108 320 81.5Q381 55 450 55Q519 55 580 81.5Q641 108 686.5 153.5Q732 199 758.5 260Q785 321 785 390Q785 459 758.5 520Q732 581 686.5 626.5Q641 672 580 698.5Q519 725 450 725Q381 725 320 698.5Q259 672 213.5 626.5Q168 581 141.5 520Q115 459 115 390ZM50 390Q50 473 81.5 546Q113 619 167 673Q221 727 294 758.5Q367 790 450 790Q533 790 606 758.5Q679 727 733 673Q787 619 818.5 546Q850 473 850 390Q850 307 818.5 234Q787 161 733 107Q679 53 606 21.5Q533 -10 450 -10Q367 -10 294 21.5Q221 53 167 107Q113 161 81.5 234Q50 307 50 390Z" glyph-name="registered" horiz-adv-x="900" unicode="&#174;" /><glyph d="M186 645Q196 645 206.5 649.5Q217 654 217 675Q217 697 206.5 701Q196 705 186 705H135V645ZM135 552H111V729H183Q206 729 224 718.5Q242 708 242 675Q242 650 231 639Q220 628 203 624L247 552H217L177 622H135ZM50 640Q50 614 60 591.5Q70 569 87 552Q104 535 126.5 525Q149 515 175 515Q201 515 224 525Q247 535 264 552Q281 569 291 591.5Q301 614 301 640Q301 666 291 689Q281 712 264 729Q247 746 224 756Q201 766 175 766Q149 766 126.5 756Q104 746 87 729Q70 712 60 689Q50 666 50 640ZM25 640Q25 671 37 698.5Q49 726 69.5 746Q90 766 117 778Q144 790 175 790Q206 790 233.5 778Q261 766 281 746Q301 726 313 698.5Q325 671 325 640Q325 609 313 582Q301 555 281 534.5Q261 514 233.5 502Q206 490 175 490Q144 490 117 502Q90 514 69.5 534.5Q49 555 37 582Q25 609 25 640Z" glyph-name="registered.superior" horiz-adv-x="350" unicode="&#58644;" /><glyph d="M227 780 245 530H197L145 780ZM103 780 121 530H73L20 780Z" glyph-name="reversequotedblleft" horiz-adv-x="290" unicode="&#8223;" /><glyph d="M102 780 120 530H72L20 780Z" glyph-name="reversequoteleft" horiz-adv-x="165" unicode="&#8219;" /><glyph d="M381 696Q381 731 363 750.5Q345 770 310 770Q275 770 257 750.5Q239 731 239 696Q239 661 257 641.5Q275 622 310 622Q345 622 363 641.5Q381 661 381 696ZM195 696Q195 747 225 779Q255 811 310 811Q365 811 395 779Q425 747 425 696Q425 645 395 613Q365 581 310 581Q255 581 225 613Q195 645 195 696Z" glyph-name="ring" horiz-adv-x="620" unicode="&#730;" /><glyph d="M192 42Q225 42 246 49Q267 56 279 68.5Q291 81 295.5 99.5Q300 118 300 142Q300 171 292.5 188.5Q285 206 270 217Q255 228 233.5 234.5Q212 241 184 248Q154 254 128.5 262.5Q103 271 85 286.5Q67 302 57 327.5Q47 353 47 394Q47 468 87.5 504Q128 540 206 540Q255 540 284.5 530.5Q314 521 330.5 502.5Q347 484 352.5 456.5Q358 429 358 394L293 385Q293 409 290 428Q287 447 278 460.5Q269 474 252 481Q235 488 206 488Q156 488 136 463.5Q116 439 116 394Q116 370 120 355Q124 340 135 330.5Q146 321 165 314.5Q184 308 214 301Q247 294 275.5 285Q304 276 325 259Q346 242 358 214.5Q370 187 370 144Q370 66 329 28Q288 -10 192 -10Q141 -10 110 0.5Q79 11 61.5 30Q44 49 38.5 76Q33 103 33 137L97 146Q97 123 99.5 104Q102 85 112 71Q122 57 140.5 49.5Q159 42 192 42Z" glyph-name="s" horiz-adv-x="403" unicode="s" /><glyph d="M294 800 234 592H173L223 800ZM192 42Q225 42 246 49Q267 56 279 68.5Q291 81 295.5 99.5Q300 118 300 142Q300 171 292.5 188.5Q285 206 270 217Q255 228 233.5 234.5Q212 241 184 248Q154 254 128.5 262.5Q103 271 85 286.5Q67 302 57 327.5Q47 353 47 394Q47 468 87.5 504Q128 540 206 540Q255 540 284.5 530.5Q314 521 330.5 502.5Q347 484 352.5 456.5Q358 429 358 394L293 385Q293 409 290 428Q287 447 278 460.5Q269 474 252 481Q235 488 206 488Q156 488 136 463.5Q116 439 116 394Q116 370 120 355Q124 340 135 330.5Q146 321 165 314.5Q184 308 214 301Q247 294 275.5 285Q304 276 325 259Q346 242 358 214.5Q370 187 370 144Q370 66 329 28Q288 -10 192 -10Q141 -10 110 0.5Q79 11 61.5 30Q44 49 38.5 76Q33 103 33 137L97 146Q97 123 99.5 104Q102 85 112 71Q122 57 140.5 49.5Q159 42 192 42Z" glyph-name="sacute" horiz-adv-x="403" unicode="&#347;" /><glyph d="M347 800 243 592H167L63 800H117L205 644L293 800ZM192 42Q225 42 246 49Q267 56 279 68.5Q291 81 295.5 99.5Q300 118 300 142Q300 171 292.5 188.5Q285 206 270 217Q255 228 233.5 234.5Q212 241 184 248Q154 254 128.5 262.5Q103 271 85 286.5Q67 302 57 327.5Q47 353 47 394Q47 468 87.5 504Q128 540 206 540Q255 540 284.5 530.5Q314 521 330.5 502.5Q347 484 352.5 456.5Q358 429 358 394L293 385Q293 409 290 428Q287 447 278 460.5Q269 474 252 481Q235 488 206 488Q156 488 136 463.5Q116 439 116 394Q116 370 120 355Q124 340 135 330.5Q146 321 165 314.5Q184 308 214 301Q247 294 275.5 285Q304 276 325 259Q346 242 358 214.5Q370 187 370 144Q370 66 329 28Q288 -10 192 -10Q141 -10 110 0.5Q79 11 61.5 30Q44 49 38.5 76Q33 103 33 137L97 146Q97 123 99.5 104Q102 85 112 71Q122 57 140.5 49.5Q159 42 192 42Z" glyph-name="scaron" horiz-adv-x="403" unicode="&#353;" /><glyph d="M192 42Q225 42 246 49Q267 56 279 68.5Q291 81 295.5 99.5Q300 118 300 142Q300 171 292.5 188.5Q285 206 270 217Q255 228 233.5 234.5Q212 241 184 248Q154 254 128.5 262.5Q103 271 85 286.5Q67 302 57 327.5Q47 353 47 394Q47 468 87.5 504Q128 540 206 540Q255 540 284.5 530.5Q314 521 330.5 502.5Q347 484 352.5 456.5Q358 429 358 394L293 385Q293 409 290 428Q287 447 278 460.5Q269 474 252 481Q235 488 206 488Q156 488 136 463.5Q116 439 116 394Q116 370 120 355Q124 340 135 330.5Q146 321 165 314.5Q184 308 214 301Q247 294 275.5 285Q304 276 325 259Q346 242 358 214.5Q370 187 370 144Q370 70 332 32Q294 -6 207 -9L199 -40Q250 -48 279 -69.5Q308 -91 306 -129Q305 -173 272 -192Q239 -211 192 -211Q163 -211 138.5 -205Q114 -199 103 -193L116 -154Q123 -158 133 -162Q141 -165 151.5 -167.5Q162 -170 174 -171Q206 -172 227.5 -163Q249 -154 249 -126Q249 -109 239.5 -99Q230 -89 215 -83Q200 -77 181.5 -74Q163 -71 146 -69L166 -9Q124 -6 97.5 5Q71 16 57 35Q43 54 38 79.5Q33 105 33 137L97 146Q97 123 99.5 104Q102 85 112 71Q122 57 140.5 49.5Q159 42 192 42Z" glyph-name="scedilla" horiz-adv-x="403" unicode="&#351;" /><glyph d="M67 592 168 800H242L343 592H290L205 751L120 592ZM192 42Q225 42 246 49Q267 56 279 68.5Q291 81 295.5 99.5Q300 118 300 142Q300 171 292.5 188.5Q285 206 270 217Q255 228 233.5 234.5Q212 241 184 248Q154 254 128.5 262.5Q103 271 85 286.5Q67 302 57 327.5Q47 353 47 394Q47 468 87.5 504Q128 540 206 540Q255 540 284.5 530.5Q314 521 330.5 502.5Q347 484 352.5 456.5Q358 429 358 394L293 385Q293 409 290 428Q287 447 278 460.5Q269 474 252 481Q235 488 206 488Q156 488 136 463.5Q116 439 116 394Q116 370 120 355Q124 340 135 330.5Q146 321 165 314.5Q184 308 214 301Q247 294 275.5 285Q304 276 325 259Q346 242 358 214.5Q370 187 370 144Q370 66 329 28Q288 -10 192 -10Q141 -10 110 0.5Q79 11 61.5 30Q44 49 38.5 76Q33 103 33 137L97 146Q97 123 99.5 104Q102 85 112 71Q122 57 140.5 49.5Q159 42 192 42Z" glyph-name="scircumflex" horiz-adv-x="403" unicode="&#349;" /><glyph d="M236 -40 204 -200H151L161 -40ZM192 42Q225 42 246 49Q267 56 279 68.5Q291 81 295.5 99.5Q300 118 300 142Q300 171 292.5 188.5Q285 206 270 217Q255 228 233.5 234.5Q212 241 184 248Q154 254 128.5 262.5Q103 271 85 286.5Q67 302 57 327.5Q47 353 47 394Q47 468 87.5 504Q128 540 206 540Q255 540 284.5 530.5Q314 521 330.5 502.5Q347 484 352.5 456.5Q358 429 358 394L293 385Q293 409 290 428Q287 447 278 460.5Q269 474 252 481Q235 488 206 488Q156 488 136 463.5Q116 439 116 394Q116 370 120 355Q124 340 135 330.5Q146 321 165 314.5Q184 308 214 301Q247 294 275.5 285Q304 276 325 259Q346 242 358 214.5Q370 187 370 144Q370 66 329 28Q288 -10 192 -10Q141 -10 110 0.5Q79 11 61.5 30Q44 49 38.5 76Q33 103 33 137L97 146Q97 123 99.5 104Q102 85 112 71Q122 57 140.5 49.5Q159 42 192 42Z" glyph-name="scommaaccent" horiz-adv-x="403" unicode="&#537;" /><glyph d="M316 780 270 530H230V780ZM166 780 120 530H80V780Z" glyph-name="second" horiz-adv-x="350" unicode="&#8243;" /><glyph d="M334 297Q334 337 327 362Q320 387 307 400Q294 413 276 417.5Q258 422 237 422Q183 422 156 391.5Q129 361 129 283Q129 242 136 217.5Q143 193 156 180Q169 167 187 162.5Q205 158 226 158Q281 158 307.5 188.5Q334 219 334 297ZM250 790Q305 790 337 775.5Q369 761 385 735.5Q401 710 405 674.5Q409 639 409 596L344 587Q344 621 342 648Q340 675 330.5 694Q321 713 302 723.5Q283 734 250 734Q202 734 176.5 706.5Q151 679 151 604Q151 554 170.5 523.5Q190 493 249 484Q279 479 306.5 471.5Q334 464 355.5 445.5Q377 427 389.5 393Q402 359 402 302Q402 254 393.5 222Q385 190 370.5 170.5Q356 151 338 141Q320 131 302 125V124Q323 119 337.5 104Q352 89 362 69.5Q372 50 376.5 27Q381 4 381 -17Q381 -115 343 -162.5Q305 -210 213 -210Q158 -210 126 -195.5Q94 -181 78 -155.5Q62 -130 58 -94.5Q54 -59 54 -16L119 -7Q119 -41 121 -68Q123 -95 132.5 -114Q142 -133 161 -143.5Q180 -154 213 -154Q262 -154 287 -126.5Q312 -99 312 -24Q312 1 308 21Q304 41 293 56Q282 71 263 81Q244 91 214 96Q184 100 156.5 108Q129 116 107.5 134.5Q86 153 73.5 187Q61 221 61 278Q61 326 69.5 358Q78 390 92.5 409.5Q107 429 125 439Q143 449 161 455V456Q140 461 125.5 476Q111 491 101 510.5Q91 530 86.5 553Q82 576 82 597Q82 694 120 742Q158 790 250 790Z" glyph-name="section" horiz-adv-x="463" unicode="&#167;" /><glyph d="M130 76 84 -153H37L51 76ZM128 367H52V443H128Z" glyph-name="semicolon" horiz-adv-x="180" unicode=";" /><glyph d="M170 76 124 -153H77L91 76ZM168 367H92V443H168Z" glyph-name="semicolon.T" horiz-adv-x="260" /><glyph d="M118 506Q68 506 44.5 526Q21 546 15 581L50 585Q55 560 71 549.5Q87 539 118 539Q129 539 141 541.5Q153 544 162.5 550Q172 556 178 565Q184 574 184 588Q184 610 170 620.5Q156 631 117 635Q100 637 83.5 641Q67 645 54 653Q41 661 33 674Q25 687 25 707Q25 747 52.5 765.5Q80 784 117 784Q168 784 190.5 763.5Q213 743 218 710L184 707Q179 731 164 741.5Q149 752 117 752Q109 752 99.5 750Q90 748 81.5 743Q73 738 67 729.5Q61 721 61 707Q61 690 72.5 681Q84 672 119 668Q143 665 161 660.5Q179 656 192 647.5Q205 639 211.5 624.5Q218 610 218 588Q218 567 209.5 551.5Q201 536 187 526Q173 516 155 511Q137 506 118 506ZM378 510 315 661 298 703 299 653V510H266V780H300L371 612L392 558L413 612L484 780H518V510H485V653L486 703L469 661L406 510Z" glyph-name="servicemark" horiz-adv-x="570" unicode="&#8480;" /><glyph d="M150 0 327 558 377 706 262 705H77V764H443V719L219 0Z" glyph-name="seven" horiz-adv-x="520" unicode="7" /><glyph d="M109 0 283 558 333 706 218 705H36V764H399V719L178 0Z" glyph-name="seven.LP" horiz-adv-x="431" unicode="&#58684;" /><glyph d="M74 -200 160 75 186 151 127 150H36V199H242V165L133 -200Z" glyph-name="seven.inf" horiz-adv-x="274" unicode="&#58744;" /><glyph d="M278 428Q225 428 191.5 396.5Q158 365 130 308Q130 232 137.5 181.5Q145 131 161 101Q177 71 202 59Q227 47 262 47Q297 47 321.5 57Q346 67 361 90Q376 113 383 149Q390 185 390 238Q390 292 383 328.5Q376 365 361.5 387Q347 409 326 418.5Q305 428 278 428ZM267 717Q219 717 191.5 698Q164 679 150 638Q136 597 132.5 532.5Q129 468 129 378Q157 432 198 459.5Q239 487 301 487Q384 487 420 428.5Q456 370 456 239Q456 177 446.5 130.5Q437 84 414.5 53Q392 22 354.5 6Q317 -10 262 -10Q201 -10 162 9.5Q123 29 101 75Q79 121 71 196Q63 271 63 382Q63 487 70.5 561.5Q78 636 100 683Q122 730 162.5 752Q203 774 269 774Q324 774 359.5 760Q395 746 415.5 720.5Q436 695 444 659.5Q452 624 452 582L387 572Q387 607 381.5 634Q376 661 362.5 679.5Q349 698 326 707.5Q303 717 267 717Z" glyph-name="six" horiz-adv-x="520" unicode="6" /><glyph d="M272 428Q216 428 181 395Q146 362 118 305Q118 229 126 179Q134 129 150.5 100Q167 71 193 59Q219 47 255 47Q291 47 317 57Q343 67 359 90Q375 113 382.5 149Q390 185 390 238Q390 292 382.5 328Q375 364 360 386.5Q345 409 323 418.5Q301 428 272 428ZM263 717Q214 717 185 697.5Q156 678 141 637Q126 596 121.5 531Q117 466 117 376Q175 487 297 487Q379 487 417.5 428Q456 369 456 239Q456 178 446 131.5Q436 85 412.5 53.5Q389 22 351 6Q313 -10 256 -10Q193 -10 153.5 9.5Q114 29 91 75Q68 121 59.5 196Q51 271 51 382Q51 487 59 561.5Q67 636 90.5 683Q114 730 155.5 752Q197 774 265 774Q353 774 398.5 736Q444 698 445 606L380 596Q380 632 371 655Q362 678 346.5 692Q331 706 309.5 711.5Q288 717 263 717Z" glyph-name="six.LP" horiz-adv-x="490" unicode="&#58683;" /><glyph d="M174 13Q149 13 134 -1Q119 -15 107 -41Q107 -76 110.5 -98.5Q114 -121 121 -134.5Q128 -148 139.5 -153Q151 -158 166 -158Q198 -158 212 -139Q226 -120 226 -72Q226 -24 213.5 -5.5Q201 13 174 13ZM170 157Q131 157 118.5 123Q106 89 106 9Q123 38 146 49.5Q169 61 198 61Q242 61 261.5 29.5Q281 -2 281 -71Q281 -137 256 -171.5Q231 -206 167 -206Q131 -206 108.5 -195.5Q86 -185 73.5 -160.5Q61 -136 56 -96.5Q51 -57 51 0Q51 53 56 92Q61 131 74.5 156Q88 181 112 193Q136 205 174 205Q228 205 251 183Q274 161 276 110L221 103Q221 135 207.5 146Q194 157 170 157Z" glyph-name="six.inf" horiz-adv-x="315" unicode="&#58743;" /><glyph glyph-name="sixperemspace" horiz-adv-x="167" unicode="&#8198;" /><glyph d="M91 -90H22L251 870H321Z" glyph-name="slash" horiz-adv-x="342" unicode="/" /><glyph d="M97 -20H27L223 800H293Z" glyph-name="slash.cap" horiz-adv-x="320" unicode="&#58465;" /><glyph glyph-name="space" horiz-adv-x="176" unicode=" " /><glyph d="M461 790Q473 771 496 742.5Q519 714 550 682Q581 650 617.5 618Q654 586 694 560Q727 539 756.5 515.5Q786 492 808.5 464.5Q831 437 844.5 405Q858 373 858 334Q858 297 844.5 265.5Q831 234 807 210.5Q783 187 751 173.5Q719 160 682 160Q645 160 614 173.5Q583 187 558 209.5Q533 232 514 261Q495 290 482 321L479 320Q483 269 489.5 227Q496 185 505.5 147Q515 109 528.5 73Q542 37 561 0H359Q378 37 391.5 73Q405 109 414.5 147Q424 185 430.5 227Q437 269 441 320L438 321Q425 290 406 261Q387 232 362 209.5Q337 187 306 173.5Q275 160 238 160Q201 160 169 173.5Q137 187 113 210.5Q89 234 75.5 265.5Q62 297 62 334Q62 373 75.5 405Q89 437 111.5 464.5Q134 492 163.5 515.5Q193 539 226 560Q266 586 302.5 618Q339 650 370 682Q401 714 424 742.5Q447 771 459 790Z" glyph-name="spade" horiz-adv-x="920" unicode="&#9824;" /><glyph d="M451 390 226 615 273 662 498 437 722 662 770 615 545 390 770 165 722 118 498 343 273 118 226 165ZM175 717V63H821V717ZM108 780H888V0H108Z" glyph-name="squaremultiply" horiz-adv-x="996" unicode="&#8864;" /><glyph d="M276 774Q334 774 368.5 760.5Q403 747 421 722Q439 697 444 661Q449 625 449 580L384 571Q384 609 381 636.5Q378 664 367 682Q356 700 334.5 709Q313 718 276 718Q239 718 217.5 709Q196 700 185 682Q174 664 171 636.5Q168 609 168 571V428H343V371H168V60H449V0H43V60H102V371H43V428H102V580Q102 625 107 661Q112 697 130 722Q148 747 182.5 760.5Q217 774 276 774Z" glyph-name="sterling" horiz-adv-x="485" unicode="&#163;" /><glyph d="M112 764H618V703H383L206 704L522 413V372L184 60L361 61H642V0H85V61L452 392L112 701Z" glyph-name="summation" horiz-adv-x="706" unicode="&#8721;" /><glyph d="M33 530H95V670L159 675V530H275V475H159V105Q159 69 174.5 58Q190 47 215 47Q232 47 245 50.5Q258 54 265 56L270 0Q260 -4 244.5 -7Q229 -10 207 -10Q146 -10 120.5 18Q95 46 95 96V475H33Z" glyph-name="t" horiz-adv-x="317" unicode="t" /><glyph d="M245 244H160V105Q160 69 175.5 58Q191 47 215 47Q232 47 245.5 50.5Q259 54 265 56L270 0Q260 -4 245 -7Q230 -10 207 -10Q146 -10 120.5 18Q95 46 95 95V244H33V291H95V475H33V530H95V670L160 675V530H275V475H160V291H245Z" glyph-name="tbar" horiz-adv-x="317" unicode="&#359;" /><glyph d="M211 592 231 800H297L255 592ZM33 530H95V670L159 675V530H275V475H159V105Q159 69 174.5 58Q190 47 215 47Q232 47 245 50.5Q258 54 265 56L270 0Q260 -4 244.5 -7Q229 -10 207 -10Q146 -10 120.5 18Q95 46 95 96V475H33Z" glyph-name="tcaron" horiz-adv-x="317" unicode="&#357;" /><glyph d="M213 -40 181 -200H128L138 -40ZM33 530H95V670L159 675V530H275V475H159V105Q159 69 174.5 58Q190 47 215 47Q232 47 245 50.5Q258 54 265 56L270 0Q260 -4 244.5 -7Q229 -10 207 -10Q146 -10 120.5 18Q95 46 95 96V475H33Z" glyph-name="tcommaaccent" horiz-adv-x="317" unicode="&#355;" /><glyph glyph-name="thinspace" horiz-adv-x="200" unicode="&#8201;" /><glyph d="M356 265Q356 316 351.5 356.5Q347 397 334.5 425Q322 453 300 467.5Q278 482 243 482Q205 482 175.5 462Q146 442 120 407V123Q146 88 175.5 68Q205 48 243 48Q278 48 300 62.5Q322 77 334.5 105Q347 133 351.5 173.5Q356 214 356 265ZM55 800H120V472Q149 508 182 524Q215 540 255 540Q304 540 336.5 521.5Q369 503 388 467.5Q407 432 415 381Q423 330 423 265Q423 200 415 149Q407 98 388 62.5Q369 27 336.5 8.5Q304 -10 255 -10Q215 -10 182 6Q149 22 120 58V-200H55Z" glyph-name="thorn" horiz-adv-x="468" unicode="&#254;" /><glyph d="M253 48Q326 48 358 85Q390 122 390 203Q390 255 378.5 286.5Q367 318 349.5 334.5Q332 351 311 356Q290 361 270 361H192V422H270Q289 422 308 427Q327 432 342.5 447Q358 462 367.5 490.5Q377 519 377 566Q377 607 371.5 635.5Q366 664 352 682Q338 700 314.5 708Q291 716 255 716Q219 716 195.5 706.5Q172 697 158.5 677.5Q145 658 139.5 629.5Q134 601 134 564L70 573Q70 618 78 655Q86 692 106.5 718.5Q127 745 163 759.5Q199 774 255 774Q306 774 342 763.5Q378 753 400 729.5Q422 706 432 667.5Q442 629 442 573Q442 495 417 452Q392 409 347 394Q370 388 390 374.5Q410 361 424.5 337.5Q439 314 447.5 279.5Q456 245 456 197Q456 148 445 109.5Q434 71 409.5 44.5Q385 18 346 4Q307 -10 251 -10Q195 -10 159 5.5Q123 21 102 48Q81 75 72.5 112Q64 149 64 193L128 202Q128 168 133 140Q138 112 151.5 91.5Q165 71 189.5 59.5Q214 48 253 48Z" glyph-name="three" horiz-adv-x="520" unicode="3" /><glyph d="M224 48Q299 48 332.5 85Q366 122 366 203Q366 255 354.5 286.5Q343 318 324.5 334.5Q306 351 284 356Q262 361 241 361H164V422H241Q260 422 280 427Q300 432 316 447Q332 462 342 490.5Q352 519 352 566Q352 607 346 635.5Q340 664 325.5 682Q311 700 286.5 708Q262 716 226 716Q189 716 165 706.5Q141 697 127 677.5Q113 658 107.5 629.5Q102 601 102 564L38 573Q38 618 46 655Q54 692 75 718.5Q96 745 132.5 759.5Q169 774 227 774Q279 774 315.5 763.5Q352 753 374.5 729.5Q397 706 407 667.5Q417 629 417 573Q417 495 391 452Q365 409 320 394Q343 388 363.5 374.5Q384 361 399 337.5Q414 314 423 279.5Q432 245 432 197Q432 148 421 109.5Q410 71 385 44.5Q360 18 320 4Q280 -10 223 -10Q165 -10 128 5.5Q91 21 69.5 48Q48 75 39.5 112Q31 149 31 193L95 202Q95 168 100 140Q105 112 119.5 91.5Q134 71 159 59.5Q184 48 224 48Z" glyph-name="three.LP" horiz-adv-x="464" unicode="&#58680;" /><glyph d="M142 -158Q175 -158 189 -141Q203 -124 203 -89Q203 -67 198 -53Q193 -39 185 -32Q177 -25 167 -22.5Q157 -20 146 -20H110V29H146Q155 29 163.5 31Q172 33 178 40Q184 47 188 59.5Q192 72 192 92Q192 128 181.5 142.5Q171 157 141 157Q109 157 99 140Q89 123 89 85L36 92Q36 119 40 140Q44 161 55.5 175.5Q67 190 87.5 197.5Q108 205 141 205Q199 205 223 181Q247 157 247 97Q247 56 234.5 35Q222 14 201 6Q225 0 241.5 -22Q258 -44 258 -94Q258 -146 232.5 -176Q207 -206 140 -206Q106 -206 84.5 -197.5Q63 -189 51 -174Q39 -159 35 -137.5Q31 -116 31 -90L84 -83Q84 -119 95.5 -138.5Q107 -158 142 -158Z" glyph-name="three.inf" horiz-adv-x="290" unicode="&#58740;" /><glyph glyph-name="threeperemspace" horiz-adv-x="333" unicode="&#8196;" /><glyph d="M59 305V365H711V305Z" glyph-name="threequarteremdash" horiz-adv-x="770" unicode="&#58482;" /><glyph d="M59 359V420H711V359Z" glyph-name="threequarteremdash.cap" horiz-adv-x="770" unicode="&#58501;" /><glyph d="M600 335 507 138 597 140ZM649 91V0H597V91H457V131L589 405H649V140H694V91ZM520 764H585L195 0H130ZM142 412Q175 412 189 429Q203 446 203 481Q203 503 198 517Q193 531 185 538Q177 545 167 547.5Q157 550 146 550H110V599H146Q155 599 163.5 601Q172 603 178 610Q184 617 188 629.5Q192 642 192 662Q192 698 181.5 712.5Q171 727 141 727Q109 727 99 710Q89 693 89 655L36 662Q36 689 40 710Q44 731 55.5 745.5Q67 760 87.5 767.5Q108 775 141 775Q199 775 223 751Q247 727 247 667Q247 626 234.5 605Q222 584 201 576Q225 570 241.5 548Q258 526 258 476Q258 424 232.5 394Q207 364 140 364Q106 364 84.5 372.5Q63 381 51 396Q39 411 35 432.5Q31 454 31 480L84 487Q84 451 95.5 431.5Q107 412 142 412Z" glyph-name="threequarters" horiz-adv-x="727" unicode="&#190;" /><glyph d="M142 412Q175 412 189 429Q203 446 203 481Q203 503 198 517Q193 531 185 538Q177 545 167 547.5Q157 550 146 550H110V599H146Q155 599 163.5 601Q172 603 178 610Q184 617 188 629.5Q192 642 192 662Q192 698 181.5 712.5Q171 727 141 727Q109 727 99 710Q89 693 89 655L36 662Q36 689 40 710Q44 731 55.5 745.5Q67 760 87.5 767.5Q108 775 141 775Q199 775 223 751Q247 727 247 667Q247 626 234.5 605Q222 584 201 576Q225 570 241.5 548Q258 526 258 476Q258 424 232.5 394Q207 364 140 364Q106 364 84.5 372.5Q63 381 51 396Q39 411 35 432.5Q31 454 31 480L84 487Q84 451 95.5 431.5Q107 412 142 412Z" glyph-name="threesuperior" horiz-adv-x="290" unicode="&#179;" /><glyph d="M462 743Q458 692 437.5 661.5Q417 631 378 632Q355 632 337 643.5Q319 655 303.5 668.5Q288 682 273.5 693.5Q259 705 243 706Q220 707 212.5 689.5Q205 672 203 645L155 652Q158 703 178.5 733.5Q199 764 238 763Q262 762 280 750.5Q298 739 313 725.5Q328 712 342.5 701Q357 690 373 689Q396 687 404 705Q412 723 414 750Z" glyph-name="tilde" horiz-adv-x="620" unicode="&#732;" /><glyph d="M128 510H93V747H10V780H211V747H128ZM369 510 306 661 289 703 290 653V510H257V780H291L362 612L383 558L404 612L475 780H509V510H476V653L477 703L460 661L397 510Z" glyph-name="trademark" horiz-adv-x="560" unicode="&#8482;" /><glyph d="M800 780 410 104 20 780Z" glyph-name="triagdn" horiz-adv-x="820" unicode="&#9660;" /><glyph d="M720 0 44 390 720 780Z" glyph-name="triaglf" horiz-adv-x="820" unicode="&#9668;" /><glyph d="M44 780 720 390 44 0Z" glyph-name="triagrt" horiz-adv-x="820" unicode="&#9658;" /><glyph d="M20 0 410 676 800 0Z" glyph-name="triagup" horiz-adv-x="820" unicode="&#9650;" /><glyph d="M374 780 359 530H308L292 780ZM255 780 240 530H189L173 780ZM136 780 121 530H70L54 780Z" glyph-name="tripleprime" horiz-adv-x="428" unicode="&#8244;" /><glyph d="M257 716Q221 716 198 706.5Q175 697 161 677.5Q147 658 141.5 629Q136 600 136 562L71 571Q71 616 78.5 653.5Q86 691 106 717.5Q126 744 162.5 759Q199 774 258 774Q314 774 349.5 761Q385 748 405.5 721.5Q426 695 433.5 656.5Q441 618 441 567Q441 520 430.5 486.5Q420 453 398.5 426Q377 399 345 376Q313 353 270 326Q220 295 192 268.5Q164 242 150.5 213Q137 184 134 147.5Q131 111 131 59H458V0H61Q61 90 66.5 146.5Q72 203 90.5 241.5Q109 280 144 309Q179 338 238 375Q281 402 308 423.5Q335 445 350 466Q365 487 370.5 510.5Q376 534 376 564Q376 603 371 632Q366 661 353 679.5Q340 698 317 707Q294 716 257 716Z" glyph-name="two" horiz-adv-x="520" unicode="2" /><glyph d="M243 716Q206 716 182 707Q158 698 144 679.5Q130 661 124.5 633.5Q119 606 119 570L54 579Q54 624 62 660Q70 696 91 721.5Q112 747 149 760.5Q186 774 244 774Q300 774 336 761Q372 748 393 721.5Q414 695 422 656.5Q430 618 430 567Q430 520 419 486Q408 452 386 425Q364 398 331.5 375Q299 352 256 325Q206 294 177.5 268Q149 242 135 212.5Q121 183 117.5 147Q114 111 114 59H446V0H45Q45 90 51 146Q57 202 75.5 240.5Q94 279 129.5 308Q165 337 224 374Q267 401 294.5 422.5Q322 444 337.5 465.5Q353 487 359 510.5Q365 534 365 564Q365 603 360 632Q355 661 341.5 679.5Q328 698 304 707Q280 716 243 716Z" glyph-name="two.LP" horiz-adv-x="493" unicode="&#58679;" /><glyph d="M156 157Q126 157 115.5 140Q105 123 105 85L50 92Q50 119 54 140Q58 161 70 175.5Q82 190 103 197.5Q124 205 157 205Q218 205 239.5 178.5Q261 152 261 95Q261 69 255.5 51.5Q250 34 238.5 19.5Q227 5 210 -7.5Q193 -20 169 -36Q146 -51 133 -62.5Q120 -74 113.5 -86.5Q107 -99 105 -114Q103 -129 103 -151H267V-200H45Q45 -151 48 -121Q51 -91 61 -70.5Q71 -50 89.5 -34Q108 -18 140 3Q159 15 172 25Q185 35 192.5 45Q200 55 203 66Q206 77 206 92Q206 126 196.5 141.5Q187 157 156 157Z" glyph-name="two.inf" horiz-adv-x="314" unicode="&#58739;" /><glyph d="M156 727Q126 727 115.5 710Q105 693 105 655L50 662Q50 689 54 710Q58 731 70 745.5Q82 760 103 767.5Q124 775 157 775Q218 775 239.5 748.5Q261 722 261 665Q261 639 255.5 621.5Q250 604 238.5 589.5Q227 575 210 562.5Q193 550 169 534Q146 519 133 507.5Q120 496 113.5 483.5Q107 471 105 456Q103 441 103 419H267V370H45Q45 419 48 449Q51 479 61 499.5Q71 520 89.5 536Q108 552 140 573Q159 585 172 595Q185 605 192.5 615Q200 625 203 636Q206 647 206 662Q206 696 196.5 711.5Q187 727 156 727Z" glyph-name="twosuperior" horiz-adv-x="314" unicode="&#178;" /><glyph d="M340 65Q317 35 277.5 12.5Q238 -10 178 -10Q114 -10 82 23Q50 56 50 107V530H114V127Q114 93 133.5 70.5Q153 48 198 48Q243 48 278.5 68.5Q314 89 334 121V530H398V116L401 0H346Z" glyph-name="u" horiz-adv-x="454" unicode="u" /><glyph d="M340 65Q317 35 277.5 12.5Q238 -10 178 -10Q114 -10 82 23Q50 56 50 107V530H114V127Q114 93 133.5 70.5Q153 48 198 48Q243 48 278.5 68.5Q314 89 334 121V530H398V116L401 0H346ZM314 800 254 592H193L243 800Z" glyph-name="uacute" horiz-adv-x="454" unicode="&#250;" /><glyph d="M340 65Q317 35 277.5 12.5Q238 -10 178 -10Q114 -10 82 23Q50 56 50 107V530H114V127Q114 93 133.5 70.5Q153 48 198 48Q243 48 278.5 68.5Q314 89 334 121V530H398V116L401 0H346ZM225 597Q181 597 154 611.5Q127 626 112 652.5Q97 679 92.5 716.5Q88 754 88 800H139Q138 727 154.5 689.5Q171 652 225 652Q279 652 295.5 689.5Q312 727 311 800H362Q362 754 357.5 716.5Q353 679 338 652.5Q323 626 296 611.5Q269 597 225 597Z" glyph-name="ubreve" horiz-adv-x="454" unicode="&#365;" /><glyph d="M340 65Q317 35 277.5 12.5Q238 -10 178 -10Q114 -10 82 23Q50 56 50 107V530H114V127Q114 93 133.5 70.5Q153 48 198 48Q243 48 278.5 68.5Q314 89 334 121V530H398V116L401 0H346ZM87 592 188 800H262L363 592H310L225 751L140 592Z" glyph-name="ucircumflex" horiz-adv-x="454" unicode="&#251;" /><glyph d="M340 65Q317 35 277.5 12.5Q238 -10 178 -10Q114 -10 82 23Q50 56 50 107V530H114V127Q114 93 133.5 70.5Q153 48 198 48Q243 48 278.5 68.5Q314 89 334 121V530H398V116L401 0H346ZM345 670H269V746H345ZM181 670H105V746H181Z" glyph-name="udieresis" horiz-adv-x="454" unicode="&#252;" /><glyph d="M340 65Q317 35 277.5 12.5Q238 -10 178 -10Q114 -10 82 23Q50 56 50 107V530H114V127Q114 93 133.5 70.5Q153 48 198 48Q243 48 278.5 68.5Q314 89 334 121V530H398V116L401 0H346ZM207 800 257 592H196L136 800Z" glyph-name="ugrave" horiz-adv-x="454" unicode="&#249;" /><glyph d="M340 65Q317 35 277.5 12.5Q238 -10 178 -10Q114 -10 82 23Q50 56 50 107V530H114V127Q114 93 133.5 70.5Q153 48 198 48Q243 48 278.5 68.5Q314 89 334 121V530H398V116L401 0H346ZM380 800 317 592H257L308 800ZM255 800 193 592H133L184 800Z" glyph-name="uhungarumlaut" horiz-adv-x="454" unicode="&#369;" /><glyph d="M340 65Q317 35 277.5 12.5Q238 -10 178 -10Q114 -10 82 23Q50 56 50 107V530H114V127Q114 93 133.5 70.5Q153 48 198 48Q243 48 278.5 68.5Q314 89 334 121V530H398V116L401 0H346ZM123 739H327V680H123Z" glyph-name="umacron" horiz-adv-x="454" unicode="&#363;" /><glyph d="M30 -200V-147H300V-200Z" glyph-name="underscore" horiz-adv-x="330" unicode="_" /><glyph d="M30 -200V-147H683V-200Z" glyph-name="underscoremonospace" horiz-adv-x="713" unicode="&#58642;" /><glyph d="M59 305V365H328V305Z" glyph-name="uni00AD" horiz-adv-x="387" unicode="&#173;" /><glyph d="M264 599V422H278Q349 422 349 513Q349 558 332.5 578.5Q316 599 278 599ZM126 422H197V599H126ZM197 165V363H126V165ZM264 363V165H283Q300 165 314.5 170Q329 175 340 186.5Q351 198 357.5 217Q364 236 364 264Q364 292 358 311Q352 330 341.5 341.5Q331 353 317.5 358Q304 363 290 363ZM197 0V106H60V658H197V764H264V658H287Q306 658 329 652Q352 646 371.5 630Q391 614 404 586Q417 558 417 514Q417 463 393 432Q369 401 331 398Q353 396 372 385.5Q391 375 404.5 357Q418 339 425.5 315Q433 291 433 263Q433 216 418.5 185.5Q404 155 382 137.5Q360 120 333.5 113Q307 106 283 106H264V0Z" glyph-name="uni0E3F" horiz-adv-x="470" unicode="&#3647;" /><glyph d="M59 305V365H1361V305Z" glyph-name="uni2015" horiz-adv-x="1420" unicode="&#8213;" /><glyph d="M59 359V420H1361V359Z" glyph-name="uni2015.cap" horiz-adv-x="1420" unicode="&#58504;" /><glyph d="M173 775Q209 775 232 766Q255 757 268.5 733.5Q282 710 287.5 670.5Q293 631 293 570Q293 509 287.5 469Q282 429 268.5 406Q255 383 232 373.5Q209 364 173 364Q137 364 113.5 373.5Q90 383 76.5 406Q63 429 58 469Q53 509 53 570Q53 631 58 670.5Q63 710 76.5 733.5Q90 757 113.5 766Q137 775 173 775ZM173 413Q194 413 206.5 419.5Q219 426 226 443Q233 460 235.5 489.5Q238 519 238 566Q238 615 235.5 646Q233 677 226.5 695Q220 713 207 719.5Q194 726 173 726Q152 726 139.5 719.5Q127 713 120 696Q113 679 110.5 649.5Q108 620 108 573Q108 524 110.5 493Q113 462 119.5 444Q126 426 139 419.5Q152 413 173 413Z" glyph-name="uni2070" horiz-adv-x="345" unicode="&#8304;" /><glyph d="M175 705 82 508 172 510ZM224 461V370H172V461H32V501L164 775H224V510H269V461Z" glyph-name="uni2074" horiz-adv-x="302" unicode="&#8308;" /><glyph d="M149 412Q207 412 207 501Q207 554 193.5 572.5Q180 591 156 591Q135 591 120 580Q105 569 99 556L52 563L61 769H250V720H108L103 605Q129 637 172 637Q193 637 209.5 630.5Q226 624 238 608.5Q250 593 256 566.5Q262 540 262 501Q262 427 235 395.5Q208 364 148 364Q89 364 66 389.5Q43 415 43 478L98 485Q99 443 109.5 427.5Q120 412 149 412Z" glyph-name="uni2075" horiz-adv-x="303" unicode="&#8309;" /><glyph d="M174 583Q149 583 134 569Q119 555 107 529Q107 494 110.5 471.5Q114 449 121 435.5Q128 422 139.5 417Q151 412 166 412Q198 412 212 431Q226 450 226 498Q226 546 213.5 564.5Q201 583 174 583ZM170 727Q131 727 118.5 693Q106 659 106 579Q123 608 146 619.5Q169 631 198 631Q242 631 261.5 599.5Q281 568 281 499Q281 433 256 398.5Q231 364 167 364Q131 364 108.5 374.5Q86 385 73.5 409.5Q61 434 56 473.5Q51 513 51 570Q51 623 56 662Q61 701 74.5 726Q88 751 112 763Q136 775 174 775Q228 775 251 753Q274 731 276 680L221 673Q221 705 207.5 716Q194 727 170 727Z" glyph-name="uni2076" horiz-adv-x="315" unicode="&#8310;" /><glyph d="M74 370 160 645 186 721 127 720H36V769H242V735L133 370Z" glyph-name="uni2077" horiz-adv-x="274" unicode="&#8311;" /><glyph d="M148 364Q85 364 61 393.5Q37 423 37 474Q37 501 42 519Q47 537 54.5 548.5Q62 560 71 566.5Q80 573 89 576Q70 583 57 606Q44 629 44 667Q44 726 67.5 750.5Q91 775 148 775Q205 775 228.5 750.5Q252 726 252 667Q252 629 239 606Q226 583 207 576Q216 573 225 566.5Q234 560 241.5 548.5Q249 537 254 519Q259 501 259 474Q259 423 235 393.5Q211 364 148 364ZM148 552Q122 552 106 538Q90 524 90 481Q90 413 148 413Q179 413 192.5 429.5Q206 446 206 481Q206 524 189.5 538Q173 552 148 552ZM148 726Q120 726 108.5 712Q97 698 97 661Q97 625 111 611.5Q125 598 148 598Q171 598 185 611.5Q199 625 199 661Q199 698 187.5 712Q176 726 148 726Z" glyph-name="uni2078" horiz-adv-x="297" unicode="&#8312;" /><glyph d="M142 556Q167 556 182 570Q197 584 209 610Q209 645 205.5 667.5Q202 690 194.5 703.5Q187 717 176 722Q165 727 149 727Q117 727 103.5 708Q90 689 90 642Q90 594 102.5 575Q115 556 142 556ZM143 412Q164 412 177 420Q190 428 197.5 445.5Q205 463 207.5 491.5Q210 520 210 561Q193 532 171 520Q149 508 120 508Q76 508 55.5 539.5Q35 571 35 640Q35 706 59.5 740.5Q84 775 149 775Q184 775 206.5 764.5Q229 754 241.5 730Q254 706 259 666.5Q264 627 264 570Q264 516 259 477.5Q254 439 240 413.5Q226 388 202 376Q178 364 139 364Q85 364 61 386Q37 408 36 459L90 466Q91 434 105 423Q119 412 143 412Z" glyph-name="uni2079" horiz-adv-x="314" unicode="&#8313;" /><glyph d="M173 553H50V608H173V730H228V608H350V553H228V430H173Z" glyph-name="uni207A" horiz-adv-x="400" unicode="&#8314;" /><glyph d="M50 553V608H350V553Z" glyph-name="uni207B" horiz-adv-x="400" unicode="&#8315;" /><glyph d="M50 613V668H350V613ZM50 493V548H350V493Z" glyph-name="uni207C" horiz-adv-x="400" unicode="&#8316;" /><glyph d="M127 567Q127 501 141 433Q155 365 177 314H122Q99 363 82 425.5Q65 488 65 567Q65 646 82 708.5Q99 771 122 820H177Q155 769 141 701Q127 633 127 567Z" glyph-name="uni207D" horiz-adv-x="230" unicode="&#8317;" /><glyph d="M104 567Q104 633 89.5 701Q75 769 53 820H109Q132 771 149 708.5Q166 646 166 567Q166 488 149 425.5Q132 363 109 314H53Q75 365 89.5 433Q104 501 104 567Z" glyph-name="uni207E" horiz-adv-x="230" unicode="&#8318;" /><glyph d="M173 405Q209 405 232 396Q255 387 268.5 363.5Q282 340 287.5 300.5Q293 261 293 200Q293 139 287.5 99Q282 59 268.5 36Q255 13 232 3.5Q209 -6 173 -6Q137 -6 113.5 3.5Q90 13 76.5 36Q63 59 58 99Q53 139 53 200Q53 261 58 300.5Q63 340 76.5 363.5Q90 387 113.5 396Q137 405 173 405ZM173 43Q194 43 206.5 49.5Q219 56 226 73Q233 90 235.5 119.5Q238 149 238 196Q238 245 235.5 276Q233 307 226.5 325Q220 343 207 349.5Q194 356 173 356Q152 356 139.5 349.5Q127 343 120 326Q113 309 110.5 279.5Q108 250 108 203Q108 154 110.5 123Q113 92 119.5 74Q126 56 139 49.5Q152 43 173 43Z" glyph-name="uni2080" horiz-adv-x="345" unicode="&#8320;" /><glyph d="M63 0V49H120V328Q107 314 91 303.5Q75 293 57 285V339Q79 350 96 365.5Q113 381 130 405H174V49H230V0Z" glyph-name="uni2081" horiz-adv-x="281" unicode="&#8321;" /><glyph d="M156 357Q126 357 115.5 340Q105 323 105 285L50 292Q50 319 54 340Q58 361 70 375.5Q82 390 103 397.5Q124 405 157 405Q218 405 239.5 378.5Q261 352 261 295Q261 269 255.5 251.5Q250 234 238.5 219.5Q227 205 210 192.5Q193 180 169 164Q146 149 133 137.5Q120 126 113.5 113.5Q107 101 105 86Q103 71 103 49H267V0H45Q45 49 48 79Q51 109 61 129.5Q71 150 89.5 166Q108 182 140 203Q159 215 172 225Q185 235 192.5 245Q200 255 203 266Q206 277 206 292Q206 326 196.5 341.5Q187 357 156 357Z" glyph-name="uni2082" horiz-adv-x="314" unicode="&#8322;" /><glyph d="M142 42Q175 42 189 59Q203 76 203 111Q203 133 198 147Q193 161 185 168Q177 175 167 177.5Q157 180 146 180H110V229H146Q155 229 163.5 231Q172 233 178 240Q184 247 188 259.5Q192 272 192 292Q192 328 181.5 342.5Q171 357 141 357Q109 357 99 340Q89 323 89 285L36 292Q36 319 40 340Q44 361 55.5 375.5Q67 390 87.5 397.5Q108 405 141 405Q199 405 223 381Q247 357 247 297Q247 256 234.5 235Q222 214 201 206Q225 200 241.5 178Q258 156 258 106Q258 54 232.5 24Q207 -6 140 -6Q106 -6 84.5 2.5Q63 11 51 26Q39 41 35 62.5Q31 84 31 110L84 117Q84 81 95.5 61.5Q107 42 142 42Z" glyph-name="uni2083" horiz-adv-x="290" unicode="&#8323;" /><glyph d="M175 335 82 138 172 140ZM224 91V0H172V91H32V131L164 405H224V140H269V91Z" glyph-name="uni2084" horiz-adv-x="302" unicode="&#8324;" /><glyph d="M149 42Q207 42 207 131Q207 184 193.5 202.5Q180 221 156 221Q135 221 120 210Q105 199 99 186L52 193L61 399H250V350H108L103 235Q129 267 172 267Q193 267 209.5 260.5Q226 254 238 238.5Q250 223 256 196.5Q262 170 262 131Q262 57 235 25.5Q208 -6 148 -6Q89 -6 66 19.5Q43 45 43 108L98 115Q99 73 109.5 57.5Q120 42 149 42Z" glyph-name="uni2085" horiz-adv-x="303" unicode="&#8325;" /><glyph d="M174 213Q149 213 134 199Q119 185 107 159Q107 124 110.5 101.5Q114 79 121 65.5Q128 52 139.5 47Q151 42 166 42Q198 42 212 61Q226 80 226 128Q226 176 213.5 194.5Q201 213 174 213ZM170 357Q131 357 118.5 323Q106 289 106 209Q123 238 146 249.5Q169 261 198 261Q242 261 261.5 229.5Q281 198 281 129Q281 63 256 28.5Q231 -6 167 -6Q131 -6 108.5 4.5Q86 15 73.5 39.5Q61 64 56 103.5Q51 143 51 200Q51 253 56 292Q61 331 74.5 356Q88 381 112 393Q136 405 174 405Q228 405 251 383Q274 361 276 310L221 303Q221 335 207.5 346Q194 357 170 357Z" glyph-name="uni2086" horiz-adv-x="315" unicode="&#8326;" /><glyph d="M74 0 160 275 186 351 127 350H36V399H242V365L133 0Z" glyph-name="uni2087" horiz-adv-x="274" unicode="&#8327;" /><glyph d="M148 -6Q85 -6 61 23.5Q37 53 37 104Q37 131 42 149Q47 167 54.5 178.5Q62 190 71 196.5Q80 203 89 206Q70 213 57 236Q44 259 44 297Q44 356 67.5 380.5Q91 405 148 405Q205 405 228.5 380.5Q252 356 252 297Q252 259 239 236Q226 213 207 206Q216 203 225 196.5Q234 190 241.5 178.5Q249 167 254 149Q259 131 259 104Q259 53 235 23.5Q211 -6 148 -6ZM148 182Q122 182 106 168Q90 154 90 111Q90 43 148 43Q179 43 192.5 59.5Q206 76 206 111Q206 154 189.5 168Q173 182 148 182ZM148 356Q120 356 108.5 342Q97 328 97 291Q97 255 111 241.5Q125 228 148 228Q171 228 185 241.5Q199 255 199 291Q199 328 187.5 342Q176 356 148 356Z" glyph-name="uni2088" horiz-adv-x="297" unicode="&#8328;" /><glyph d="M142 186Q167 186 182 200Q197 214 209 240Q209 275 205.5 297.5Q202 320 194.5 333.5Q187 347 176 352Q165 357 149 357Q117 357 103.5 338Q90 319 90 272Q90 224 102.5 205Q115 186 142 186ZM143 42Q164 42 177 50Q190 58 197.5 75.5Q205 93 207.5 121.5Q210 150 210 191Q193 162 171 150Q149 138 120 138Q76 138 55.5 169.5Q35 201 35 270Q35 336 59.5 370.5Q84 405 149 405Q184 405 206.5 394.5Q229 384 241.5 360Q254 336 259 296.5Q264 257 264 200Q264 146 259 107.5Q254 69 240 43.5Q226 18 202 6Q178 -6 139 -6Q85 -6 61 16Q37 38 36 89L90 96Q91 64 105 53Q119 42 143 42Z" glyph-name="uni2089" horiz-adv-x="314" unicode="&#8329;" /><glyph d="M173 183H50V238H173V360H228V238H350V183H228V60H173Z" glyph-name="uni208A" horiz-adv-x="400" unicode="&#8330;" /><glyph d="M50 183V238H350V183Z" glyph-name="uni208B" horiz-adv-x="400" unicode="&#8331;" /><glyph d="M50 243V298H350V243ZM50 123V178H350V123Z" glyph-name="uni208C" horiz-adv-x="400" unicode="&#8332;" /><glyph d="M127 197Q127 131 141 63Q155 -5 177 -56H122Q99 -7 82 55.5Q65 118 65 197Q65 276 82 338.5Q99 401 122 450H177Q155 399 141 331Q127 263 127 197Z" glyph-name="uni208D" horiz-adv-x="230" unicode="&#8333;" /><glyph d="M104 197Q104 263 89.5 331Q75 399 53 450H109Q132 401 149 338.5Q166 276 166 197Q166 118 149 55.5Q132 -7 109 -56H53Q75 -5 89.5 63Q104 131 104 197Z" glyph-name="uni208E" horiz-adv-x="230" unicode="&#8334;" /><glyph d="M327 701Q321 705 313.5 707.5Q306 710 298 712L150 99Q162 81 174 71ZM115 382Q115 313 117 261Q119 209 126 171L258 716H256Q210 716 182 698.5Q154 681 139 641.5Q124 602 119.5 538Q115 474 115 382ZM378 746Q414 722 426.5 678Q439 634 439 571L373 562Q372 595 369 620Q366 645 358 664L211 53Q221 50 232 49Q243 48 256 48Q292 48 314.5 57Q337 66 350 84.5Q363 103 368 132Q373 161 373 202L439 193Q439 143 432 105Q425 67 404.5 41.5Q384 16 348.5 3Q313 -10 258 -10Q224 -10 197 -4L187 -46H146L159 7Q142 15 132 23L115 -46H74L99 59Q70 104 59 182.5Q48 261 48 382Q48 492 57 567Q66 642 89.5 688Q113 734 153.5 754Q194 774 258 774H272L281 810H322L312 770Q320 768 327.5 766.5Q335 765 342 763L353 810H394Z" glyph-name="uni20A1" horiz-adv-x="486" unicode="&#8353;" /><glyph d="M401 408Q363 408 333.5 387.5Q304 367 281 333V49Q309 52 326.5 62.5Q344 73 354.5 91.5Q365 110 369 137.5Q373 165 373 202L439 193Q439 143 432 105Q425 67 404.5 41.5Q384 16 348.5 3Q313 -10 258 -10Q194 -10 153.5 10Q113 30 89.5 76Q66 122 57 197Q48 272 48 382Q48 492 57 567Q66 642 89.5 688Q113 734 153.5 754Q194 774 258 774Q313 774 348.5 761Q384 748 404.5 722.5Q425 697 432 659Q439 621 439 571L373 562Q373 602 368 631.5Q363 661 350 679.5Q337 698 314.5 707Q292 716 256 716Q210 716 182 698.5Q154 681 139 641.5Q124 602 119.5 538Q115 474 115 382Q115 301 118.5 241.5Q122 182 133 142Q144 102 164 80Q184 58 217 51V344L214 460H270L276 394Q296 428 328.5 449Q361 470 399 470Q424 470 439 463L435 404Q428 406 418.5 407Q409 408 401 408Z" glyph-name="uni20A2" horiz-adv-x="486" unicode="&#8354;" /><glyph d="M429 289H366L431 108ZM164 475H227L162 656ZM343 351H428V413H319ZM165 351H274L250 413H165ZM491 413V351H550V289H491V0H409L298 289H165L166 0H102V289H43V351H102V413H43V475H102V764H184L295 475H428V764H491V475H550V413Z" glyph-name="uni20A6" horiz-adv-x="593" unicode="&#8358;" /><glyph d="M220 390Q249 390 271.5 395.5Q294 401 309 418Q324 435 331.5 466Q339 497 339 547Q339 597 331.5 628Q324 659 309 676Q294 693 271.5 699Q249 705 220 705H125V390ZM552 42Q627 42 659.5 68Q692 94 692 142Q692 171 684.5 188.5Q677 206 662 217Q647 228 625.5 234.5Q604 241 576 248Q546 254 520.5 262.5Q495 271 477 286.5Q459 302 449 327.5Q439 353 439 394Q439 468 479.5 504Q520 540 598 540Q647 540 676.5 530.5Q706 521 722.5 502.5Q739 484 744.5 456.5Q750 429 750 394L685 385Q685 409 682 428Q679 447 670 460.5Q661 474 644 481Q627 488 598 488Q548 488 528 463.5Q508 439 508 394Q508 370 512 355Q516 340 527 330.5Q538 321 557 314.5Q576 308 606 301Q639 294 667.5 285Q696 276 717 259Q738 242 750 214.5Q762 187 762 144Q762 66 710 28Q658 -10 557 -10Q483 -10 429.5 21Q376 52 338 100.5Q300 149 274.5 209.5Q249 270 230 330H125V0H59V764H224Q264 764 297.5 756Q331 748 355 725Q379 702 392.5 659.5Q406 617 406 547Q406 494 398 456.5Q390 419 375.5 394.5Q361 370 340 356.5Q319 343 294 337Q310 285 333 232.5Q356 180 387 137.5Q418 95 458.5 68.5Q499 42 552 42Z" glyph-name="uni20A8" horiz-adv-x="795" unicode="&#8360;" /><glyph d="M156 351H229L239 413H149ZM445 351H518L525 413H435ZM186 85 219 289H163ZM488 85 511 289H455ZM285 351H389L379 413H295ZM337 674 305 475H369ZM138 -10 103 289H43V351H96L88 413H43V475H81L47 764H110L142 475H249L296 764H378L425 475H532L564 764H627L593 475H631V413H586L578 351H631V289H571L536 -10H447L399 289H275L227 -10Z" glyph-name="uni20A9" horiz-adv-x="674" unicode="&#8361;" /><glyph d="M171 0V654H236V63H326Q366 63 381 80.5Q396 98 396 135V764H462V120Q462 61 429 30.5Q396 0 336 0ZM223 764Q283 764 316 733.5Q349 703 349 644V110H283V629Q283 666 268 683.5Q253 701 213 701H123V0H58V764Z" glyph-name="uni20AA" horiz-adv-x="520" unicode="&#8362;" /><glyph d="M234 274V0H168V239L78 189V257L168 307V381L78 331V399L168 449V705H35V764H364V705H234V484L335 540V472L234 416V342L335 398V330Z" glyph-name="uni20AE" horiz-adv-x="399" unicode="&#8366;" /><glyph d="M168 635H371Q358 677 331.5 691Q305 705 263 705H168ZM263 379Q305 379 331.5 393Q358 407 371 449H168V379ZM382 542Q382 550 382 557.5Q382 565 381 573H168V511H381Q382 518 382 526Q382 534 382 542ZM168 0H102V449H43V511H102V573H43V635H102V764H267Q299 764 327 758.5Q355 753 377.5 739Q400 725 416 699.5Q432 674 440 635H505V573H448Q449 565 449 557.5Q449 550 449 542Q449 534 449 526.5Q449 519 448 511H505V449H441Q432 409 416 384Q400 359 377.5 344.5Q355 330 327 325Q299 320 268 320H168Z" glyph-name="uni20B1" horiz-adv-x="548" unicode="&#8369;" /><glyph d="M558 42Q591 42 605 59Q619 76 619 111Q619 133 614 147Q609 161 601 168Q593 175 583 177.5Q573 180 562 180H526V229H562Q571 229 579.5 231Q588 233 594 240Q600 247 604 259.5Q608 272 608 292Q608 328 597.5 342.5Q587 357 557 357Q525 357 515 340Q505 323 505 285L452 292Q452 319 456 340Q460 361 471.5 375.5Q483 390 503.5 397.5Q524 405 557 405Q615 405 639 381Q663 357 663 297Q663 256 650.5 235Q638 214 617 206Q641 200 657.5 178Q674 156 674 106Q674 54 648.5 24Q623 -6 556 -6Q522 -6 500.5 2.5Q479 11 467 26Q455 41 451 62.5Q447 84 447 110L500 117Q500 81 511.5 61.5Q523 42 558 42ZM511 764H576L186 0H121ZM63 370V419H120V698Q107 684 91 673.5Q75 663 57 655V709Q79 720 96 735.5Q113 751 130 775H174V419H230V370Z" glyph-name="uni2153" horiz-adv-x="706" unicode="&#8531;" /><glyph d="M591 42Q624 42 638 59Q652 76 652 111Q652 133 647 147Q642 161 634 168Q626 175 616 177.5Q606 180 595 180H559V229H595Q604 229 612.5 231Q621 233 627 240Q633 247 637 259.5Q641 272 641 292Q641 328 630.5 342.5Q620 357 590 357Q558 357 548 340Q538 323 538 285L485 292Q485 319 489 340Q493 361 504.5 375.5Q516 390 536.5 397.5Q557 405 590 405Q648 405 672 381Q696 357 696 297Q696 256 683.5 235Q671 214 650 206Q674 200 690.5 178Q707 156 707 106Q707 54 681.5 24Q656 -6 589 -6Q555 -6 533.5 2.5Q512 11 500 26Q488 41 484 62.5Q480 84 480 110L533 117Q533 81 544.5 61.5Q556 42 591 42ZM544 764H609L219 0H154ZM156 727Q126 727 115.5 710Q105 693 105 655L50 662Q50 689 54 710Q58 731 70 745.5Q82 760 103 767.5Q124 775 157 775Q218 775 239.5 748.5Q261 722 261 665Q261 639 255.5 621.5Q250 604 238.5 589.5Q227 575 210 562.5Q193 550 169 534Q146 519 133 507.5Q120 496 113.5 483.5Q107 471 105 456Q103 441 103 419H267V370H45Q45 419 48 449Q51 479 61 499.5Q71 520 89.5 536Q108 552 140 573Q159 585 172 595Q185 605 192.5 615Q200 625 203 636Q206 647 206 662Q206 696 196.5 711.5Q187 727 156 727Z" glyph-name="uni2154" horiz-adv-x="739" unicode="&#8532;" /><glyph d="M565 42Q623 42 623 131Q623 184 609.5 202.5Q596 221 572 221Q551 221 536 210Q521 199 515 186L468 193L477 399H666V350H524L519 235Q545 267 588 267Q609 267 625.5 260.5Q642 254 654 238.5Q666 223 672 196.5Q678 170 678 131Q678 57 651 25.5Q624 -6 564 -6Q505 -6 482 19.5Q459 45 459 108L514 115Q515 73 525.5 57.5Q536 42 565 42ZM511 764H576L186 0H121ZM63 370V419H120V698Q107 684 91 673.5Q75 663 57 655V709Q79 720 96 735.5Q113 751 130 775H174V419H230V370Z" glyph-name="uni2155" horiz-adv-x="719" unicode="&#8533;" /><glyph d="M598 42Q656 42 656 131Q656 184 642.5 202.5Q629 221 605 221Q584 221 569 210Q554 199 548 186L501 193L510 399H699V350H557L552 235Q578 267 621 267Q642 267 658.5 260.5Q675 254 687 238.5Q699 223 705 196.5Q711 170 711 131Q711 57 684 25.5Q657 -6 597 -6Q538 -6 515 19.5Q492 45 492 108L547 115Q548 73 558.5 57.5Q569 42 598 42ZM544 764H609L219 0H154ZM156 727Q126 727 115.5 710Q105 693 105 655L50 662Q50 689 54 710Q58 731 70 745.5Q82 760 103 767.5Q124 775 157 775Q218 775 239.5 748.5Q261 722 261 665Q261 639 255.5 621.5Q250 604 238.5 589.5Q227 575 210 562.5Q193 550 169 534Q146 519 133 507.5Q120 496 113.5 483.5Q107 471 105 456Q103 441 103 419H267V370H45Q45 419 48 449Q51 479 61 499.5Q71 520 89.5 536Q108 552 140 573Q159 585 172 595Q185 605 192.5 615Q200 625 203 636Q206 647 206 662Q206 696 196.5 711.5Q187 727 156 727Z" glyph-name="uni2156" horiz-adv-x="752" unicode="&#8534;" /><glyph d="M574 42Q632 42 632 131Q632 184 618.5 202.5Q605 221 581 221Q560 221 545 210Q530 199 524 186L477 193L486 399H675V350H533L528 235Q554 267 597 267Q618 267 634.5 260.5Q651 254 663 238.5Q675 223 681 196.5Q687 170 687 131Q687 57 660 25.5Q633 -6 573 -6Q514 -6 491 19.5Q468 45 468 108L523 115Q524 73 534.5 57.5Q545 42 574 42ZM520 764H585L195 0H130ZM142 412Q175 412 189 429Q203 446 203 481Q203 503 198 517Q193 531 185 538Q177 545 167 547.5Q157 550 146 550H110V599H146Q155 599 163.5 601Q172 603 178 610Q184 617 188 629.5Q192 642 192 662Q192 698 181.5 712.5Q171 727 141 727Q109 727 99 710Q89 693 89 655L36 662Q36 689 40 710Q44 731 55.5 745.5Q67 760 87.5 767.5Q108 775 141 775Q199 775 223 751Q247 727 247 667Q247 626 234.5 605Q222 584 201 576Q225 570 241.5 548Q258 526 258 476Q258 424 232.5 394Q207 364 140 364Q106 364 84.5 372.5Q63 381 51 396Q39 411 35 432.5Q31 454 31 480L84 487Q84 451 95.5 431.5Q107 412 142 412Z" glyph-name="uni2157" horiz-adv-x="728" unicode="&#8535;" /></font>
</defs>
</svg>
